<?xml version="1.0" encoding="UTF-8" standalone="no"?>
<svg
   xmlns:dc="http://purl.org/dc/elements/1.1/"
   xmlns:cc="http://creativecommons.org/ns#"
   xmlns:rdf="http://www.w3.org/1999/02/22-rdf-syntax-ns#"
   xmlns:svg="http://www.w3.org/2000/svg"
   xmlns="http://www.w3.org/2000/svg"
   viewBox="0 0 583.64001 552"
   height="552"
   width="583.64001"
   xml:space="preserve"
   id="svg2"
   version="1.1"><metadata
     id="metadata8"><rdf:RDF><cc:Work
         rdf:about=""><dc:format>image/svg+xml</dc:format><dc:type
           rdf:resource="http://purl.org/dc/dcmitype/StillImage" /></cc:Work></rdf:RDF></metadata><defs
     id="defs6" /><g
     transform="matrix(1.3333333,0,0,-1.3333333,0,552)"
     id="g10"><g
       transform="scale(0.1)"
       id="g12"><path
         id="path14"
         style="fill:#0071bc;fill-opacity:1;fill-rule:evenodd;stroke:none"
         d="m 603.18,2878.44 c 46.687,-37.24 94.633,-75.31 163.058,-93.35 269.112,569.72 849.212,964.91 1519.982,964.91 477.43,0 908.99,-200.19 1215.14,-521.04 162.49,50.42 306.08,90.06 432.88,92.08 C 3555.82,3818.33 2957.92,4140 2286.22,4140 1462.16,4140 749.121,3655.93 416.27,2957.26 c 6.168,0.71 12.382,1.11 18.664,1.11 68.046,0 118.984,-40.63 168.246,-79.93" /><path
         id="path16"
         style="fill:#0071bc;fill-opacity:1;fill-rule:evenodd;stroke:none"
         d="m 4178.05,1353.6 c -1.76,-0.06 -3.51,-0.09 -5.24,-0.09 -30.96,0 -60.05,9.54 -84.09,27.57 -8.86,6.63 -16.96,14.19 -24.27,22.64 -6.07,-8.29 -13.39,-15.96 -21.89,-22.84 -22.32,-18.12 -50.42,-28.29 -81.04,-29.21 -1.38,-0.04 -2.78,-0.07 -4.18,-0.07 -27.44,0 -54.01,7.98 -78.94,23.69 -4.99,3.13 -9.65,6.67 -14.16,10.4 -17.53,-9.47 -35.62,-16.76 -54.06,-22.16 -52.65,-113.12 -117.57,-219.41 -192.96,-317.24 6.82,-0.91 13.74,-2.05 20.77,-3.65 17.34,-3.99 33.47,-10.56 48.21,-19.62 10.17,-6.26 19.28,-13.76 27.54,-22.19 21.74,14.64 44.61,26.17 68.23,33.91 26.86,8.79 54.55,13.24 82.36,13.24 43.32,0 79.15,-12.57 106.49,-37.39 23.17,-21.008 38.04,-48.52 43.27,-79.129 88.77,134.289 162.39,279.419 218.25,433.039 -17.72,-6.88 -35.87,-10.6 -54.29,-10.9" /><path
         id="path18"
         style="fill:#0071bc;fill-opacity:1;fill-rule:evenodd;stroke:none"
         d="m 3600.62,558.949 c -26.84,-13.668 -55.13,-22.687 -84.07,-26.758 -9.7,-1.359 -19.59,-2.07 -29.33,-2.07 -24.26,0 -48.31,4.277 -71.5,12.731 -17.55,6.238 -33.18,14.32 -47.09,23.988 -5.38,-3.82 -10.8,-7.481 -16.26,-10.809 -27.66,-16.89 -56.58,-25.66 -85.95,-26.07 -1.57,-0.051 -3.12,-0.082 -4.66,-0.082 -28.09,0 -54.81,7.851 -77.25,22.711 -8.62,5.699 -16.55,12.211 -23.77,19.5 -6.11,-7.141 -13.25,-13.711 -21.37,-19.488 -20.97,-15 -46.86,-23.43 -74.64,-24.223 l -3.84,-0.047 c -23.53,0 -46.53,5.898 -68.52,17.438 C 2777.59,445.84 2538.31,390 2286.22,390 c -187.68,0 -368.27,30.961 -536.93,88.012 -4.94,-10.551 -8.46,-18.832 -10.89,-24.953 2.48,-36.25 -14.24,-72.629 -47.17,-96.188 -21.41,-15.242 -47.26,-23.621 -74.97,-24.371 l -3.7,-0.07 c -24.72,0 -48.93,6.449 -71.94,19.191 -21.07,11.699 -49.23,35.008 -64.95,80.129 -13.16,36.66 -6.22,72.449 0.21,96.34 2.01,7.43 4.42,15.219 7.03,23.191 -3.55,2.168 -7.03,4.481 -10.41,6.957 -9.15,6.742 -17.71,14.364 -25.63,22.852 -14.98,-11.09 -29.71,-20.629 -43.91,-28.391 -20.46,-11.187 -41.01,-18.289 -61.18,-21.801 -7.94,-1.699 -16.24,-2.199 -25.03,-2.199 -4.25,0 -8.48,1.301 -12.65,1.301 h -1.19 c -0.01,-0.012 -0.02,-0.039 -0.03,-0.059 -12.22,-24.64 -29.01,-47.82 -49.95,-68.961 -22.71,-23.05 -49.61,-43.011 -79.78,-59.148 -22.86,-12.242 -46.63,-21.844 -70.86,-28.871 C 1438,138.031 1846.27,0 2286.22,0 c 537.44,0 1027.63,205.961 1395.97,543.012 -21.4,7.648 -40.05,17.949 -55.97,30.648 -8.45,-5.301 -16.96,-10.32 -25.6,-14.711" /><path
         id="path20"
         style="fill:#ff0000;fill-opacity:1;fill-rule:nonzero;stroke:none"
         d="m 1198.46,1098.09 c 21.64,-6.79 41.35,-16.96 59.15,-30.53 17.79,-13.57 32.1,-28.73 42.92,-45.48 10.82,-16.75 17.54,-34.139 20.19,-52.15 2.64,-18.032 -0.12,-34.891 -8.29,-50.571 -2.42,-4.679 -6.85,-8.07 -13.35,-10.187 -6.49,-2.113 -13.59,-3.391 -21.28,-3.801 -7.69,-0.43 -15.51,0 -23.43,1.27 -7.94,1.269 -14.79,3.179 -20.57,5.718 -5.76,2.551 -9.62,5.61 -11.53,9.231 -1.93,3.59 -0.73,7.519 3.6,11.762 10.58,10.589 17.79,22.257 21.64,34.98 3.84,12.727 5.29,25.227 4.33,37.528 -0.97,12.3 -4.58,23.64 -10.82,34.04 -6.25,10.38 -14.19,18.44 -23.8,24.17 -9.63,5.72 -21.17,8.58 -34.63,8.58 -13.46,0 -27.89,-4.45 -43.27,-13.36 -16.36,-8.9 -30.42,-20.14 -42.2,-33.71 -11.79,-13.57 -21.04,-28.42 -27.77,-44.521 -6.74,-16.118 -10.71,-32.868 -11.9,-50.25 -1.2,-17.399 1.08,-34.348 6.85,-50.887 0,-0.434 0.11,-0.641 0.36,-0.641 0.24,0 0.36,-0.211 0.36,-0.633 19.23,2.122 36.3,2.543 51.22,1.274 8.65,-0.434 17.18,-1.703 25.6,-3.82 8.41,-2.122 16.1,-4.872 23.08,-8.262 6.97,-3.399 12.86,-7.43 17.67,-12.09 4.81,-4.668 7.69,-9.762 8.66,-15.27 0.47,-3.398 0.23,-7.21 -0.72,-11.449 -0.97,-4.242 -3.86,-8.691 -8.65,-13.351 -3.86,-2.981 -8.19,-5.84 -12.99,-8.598 -4.81,-2.762 -10.58,-5.191 -17.31,-7.312 l -12.99,-4.45 c -20.67,-5.519 -42.08,-7.531 -64.19,-6.039 -22.12,1.481 -42.8,6.25 -62.03,14.309 -0.49,0 -0.85,0.101 -1.09,0.32 -0.24,0.211 -0.6,0.309 -1.07,0.309 -21.647,-12.297 -39.44,-25.66 -53.386,-40.059 -13.949,-15.281 -25.847,-31.39 -35.703,-48.351 -9.855,-16.969 -16.945,-34.137 -21.277,-51.52 -2.41,-8.898 -3.852,-17.809 -4.324,-26.719 -0.485,-8.898 0,-17.582 1.445,-26.082 2.394,-18.648 8.89,-35.617 19.473,-50.879 15.382,-22.898 33.175,-39.757 53.371,-50.578 20.203,-10.812 41.351,-16.422 63.481,-16.851 22.11,-0.41 44.11,4.039 65.99,13.359 21.88,9.332 42.2,23.109 60.95,41.352 10.58,10.168 19.35,21.621 26.33,34.339 6.97,12.731 11.18,25.34 12.62,37.852 1.45,12.5 0,24.488 -4.32,35.938 -4.33,11.449 -12.27,21.199 -23.81,29.261 -10.09,6.778 -21.76,11.129 -34.98,13.039 -13.23,1.91 -26.09,1.16 -38.59,-2.23 -12.51,-3.399 -23.56,-9.442 -33.18,-18.129 -9.62,-8.699 -15.87,-20.039 -18.75,-34.031 -0.97,-5.938 -5.9,-10.078 -14.79,-12.399 -8.9,-2.34 -18.28,-3.281 -28.13,-2.859 -9.86,0.418 -18.876,2.219 -27.048,5.406 -8.184,3.172 -12.027,7.723 -11.539,13.672 0.473,11.859 5.281,22.898 14.426,33.082 9.129,10.168 20.668,18.859 34.621,26.078 13.94,7.199 29.57,12.809 46.89,16.852 17.31,4.027 34.37,6.039 51.21,6.039 16.82,0 32.81,-2.231 47.96,-6.672 15.15,-4.449 27.52,-11.559 37.15,-21.32 11.54,-11.438 19.83,-24.278 24.88,-38.477 5.05,-14.211 6.86,-28.844 5.41,-43.883 -1.44,-15.051 -5.89,-30.109 -13.34,-45.168 -7.46,-15.051 -17.92,-29.351 -31.37,-42.941 -15.87,-16.102 -34.52,-29.891 -55.91,-41.34 -21.4,-11.449 -43.4,-19.719 -65.99,-24.809 -11.55,-2.109 -23.09,-3.921 -34.63,-5.402 -11.54,-1.48 -23.33,-2.23 -35.338,-2.23 -12.028,0 -23.934,0.75 -35.711,2.23 -11.785,1.481 -23.203,3.5 -34.258,6.043 -53.859,13.578 -94.738,40.707 -122.621,81.418 -24.055,36.48 -30.543,77.391 -19.473,122.762 4.801,19.09 12.621,38.058 23.438,56.929 10.82,18.868 24.164,36.579 40.035,53.11 12.98,13.57 29.086,26.398 48.324,38.488 19.231,12.082 40.629,22.781 64.199,32.121 -2.414,3.391 -4.453,6.879 -6.132,10.5 -1.692,3.59 -3.247,7.52 -4.688,11.762 -6.742,19.09 -9.504,38.699 -8.297,58.84 1.195,20.136 5.887,39.957 14.067,59.476 8.171,19.082 19.226,36.352 33.179,51.832 13.942,15.48 30.046,28.09 48.326,37.85 8.66,4.66 19.12,9.22 31.38,13.67 12.26,4.46 25.6,7.74 40.03,9.87 14.43,2.12 29.81,2.86 46.16,2.22 16.34,-0.63 33.18,-3.5 50.49,-8.59" /><path
         id="path22"
         style="fill:#ff0000;fill-opacity:1;fill-rule:nonzero;stroke:none"
         d="m 1316.75,628.031 c -1.45,0 -2.77,0.11 -3.97,0.309 -1.19,0.23 -2.53,0.332 -3.97,0.332 -0.47,0.418 -0.95,0.629 -1.44,0.629 -3.84,1.687 -6.96,3.918 -9.38,6.679 -2.4,2.758 -3.61,6.25 -3.61,10.5 0,5.508 2.29,10.18 6.86,13.989 4.58,3.82 9.74,5.73 15.51,5.73 7.69,0 13.46,-3.187 17.31,-9.539 8.65,4.219 18.14,10.488 28.49,18.762 10.34,8.269 21.28,17.808 32.82,28.617 11.54,10.82 23.68,22.59 36.42,35.301 12.74,12.73 25.61,25.871 38.6,39.441 -3.38,17.821 -6.5,35.309 -9.38,52.469 -2.89,17.18 -5.78,32.34 -8.66,45.492 -2.88,13.137 -6.02,23.738 -9.38,31.797 -3.37,8.063 -7.46,12.09 -12.26,12.09 -3.37,0 -7.57,-2.328 -12.62,-7 -5.05,-4.668 -10.46,-10.488 -16.23,-17.488 -5.77,-6.993 -11.43,-14.629 -16.95,-22.903 -5.53,-8.258 -10.46,-15.898 -14.79,-22.898 -4.32,-7 -7.93,-12.828 -10.82,-17.488 -2.88,-4.672 -4.32,-6.793 -4.32,-6.364 -2.42,-3.816 -5.3,-6.476 -8.66,-7.949 -3.37,-1.488 -6.38,-2.019 -9.02,-1.59 -2.65,0.422 -4.68,1.801 -6.13,4.133 -1.44,2.316 -0.96,5.406 1.45,9.227 14.42,24.589 26.79,44.73 37.14,60.429 10.34,15.672 19.84,27.981 28.49,36.883 8.66,8.91 17.32,15.051 25.97,18.449 8.66,3.391 18.27,5.09 28.85,5.09 12.98,0 24.53,-2.441 34.63,-7.32 10.09,-4.871 18.98,-11.442 26.68,-19.711 7.69,-8.277 14.18,-18.129 19.48,-29.578 5.29,-11.449 9.85,-23.539 13.7,-36.25 13.94,13.988 27.65,27.121 41.12,39.429 13.45,12.29 26.2,23.102 38.22,32.442 12.02,9.316 23.2,16.75 33.54,22.269 10.34,5.489 19.59,8.469 27.77,8.891 2.89,0.848 5.53,1.277 7.94,1.277 5.29,0 10.1,-1.91 14.43,-5.718 4.32,-3.821 6.49,-8.5 6.49,-13.993 0,-5.519 -2.17,-9.976 -6.49,-13.359 -4.33,-3.398 -9.14,-5.09 -14.43,-5.09 -4.33,0 -8.18,0.84 -11.54,2.539 h -0.72 c -6.74,0 -14.55,-2.769 -23.45,-8.269 -8.9,-5.508 -18.87,-12.938 -29.93,-22.258 -11.07,-9.34 -22.84,-20.25 -35.34,-32.762 -12.51,-12.508 -25.5,-25.769 -38.95,-39.758 3.84,-19.5 6.72,-38.91 8.65,-58.191 1.92,-19.309 3.61,-36.691 5.05,-52.168 1.45,-15.48 3.25,-27.98 5.41,-37.523 2.17,-9.539 5.41,-14.317 9.74,-14.317 2.88,0 7.21,2.117 12.98,6.36 5.77,4.238 12.26,10.07 19.48,17.5 7.21,7.41 14.9,15.789 23.08,25.117 8.17,9.32 16.34,19.082 24.52,29.269 7.69,9.742 14.9,19.602 21.64,29.571 6.73,9.961 12.5,18.972 17.31,27.043 4.81,8.039 8.77,14.937 11.91,20.66 3.12,5.73 4.92,9.226 5.41,10.5 1.44,4.238 3.84,6.879 7.21,7.949 3.36,1.051 6.73,1.16 10.1,0.32 7.21,-2.133 9.37,-6.582 6.49,-13.359 -5.3,-9.75 -11.9,-21.313 -19.84,-34.672 -7.93,-13.359 -16.95,-27.238 -27.05,-41.66 -10.1,-14.418 -20.91,-28.621 -32.46,-42.61 -11.54,-14 -23.33,-26.511 -35.34,-37.531 -12.02,-11.039 -23.93,-19.949 -35.71,-26.719 -11.78,-6.789 -22.72,-10.179 -32.81,-10.179 -11.54,0 -21.64,3.187 -30.3,9.539 -8.65,6.371 -16.35,14.73 -23.08,25.129 -6.74,10.39 -12.62,22.363 -17.67,35.941 -5.05,13.559 -9.27,27.988 -12.62,43.25 -14.43,-14.84 -28.85,-28.84 -43.28,-41.98 -14.42,-13.149 -28.38,-24.918 -41.84,-35.309 -13.46,-10.391 -26.21,-18.859 -38.22,-25.441 -12.03,-6.578 -23.09,-10.489 -33.18,-11.758 -0.96,-0.422 -2.64,-0.641 -5.05,-0.641" /><path
         id="path24"
         style="fill:#ff0000;fill-opacity:1;fill-rule:nonzero;stroke:none"
         d="m 1812.28,679.559 c 0,-8.071 -4.1,-13.789 -12.27,-17.18 2.89,-5.09 6.97,-7.629 12.27,-7.629 6.24,-0.43 13.57,2.219 21.99,7.949 8.41,5.723 17.32,13.992 26.69,24.801 9.38,10.82 19.12,24.07 29.22,39.762 10.09,15.679 20.19,33.5 30.29,53.429 6.24,12.289 11.41,25.758 15.51,40.391 4.08,14.629 6.49,28.508 7.21,41.668 0.72,13.129 -0.61,24.48 -3.97,34.02 -3.37,9.539 -9.62,15.371 -18.75,17.492 -8.18,1.699 -16.72,0.418 -25.61,-3.813 -8.9,-4.238 -17.79,-10.488 -26.69,-18.769 -8.9,-8.27 -17.79,-18.121 -26.68,-29.578 -8.91,-11.442 -17.44,-23.321 -25.61,-35.614 -9.63,-22.047 -21.04,-45.906 -34.26,-71.558 -13.23,-25.668 -26.94,-51.739 -41.11,-78.239 -14.19,-26.511 -28.01,-52.261 -41.48,-77.281 -13.45,-25.019 -25.25,-47.922 -35.34,-68.699 -10.1,-20.77 -17.67,-38.371 -22.72,-52.789 -5.05,-14.422 -6.14,-24.172 -3.25,-29.262 1.93,-3.39 0.36,-6.89 -4.69,-10.5 -5.05,-3.59 -11.54,-5.512 -19.47,-5.719 -7.93,-0.211 -16.11,2.02 -24.53,6.68 -8.4,4.66 -14.78,13.359 -19.11,26.07 -2.88,7.637 -2.04,19.938 2.53,36.891 4.57,16.969 11.53,36.797 20.91,59.477 9.38,22.691 20.32,47.179 32.82,73.461 12.51,26.289 25.37,52.808 38.59,79.519 13.23,26.711 25.97,52.68 38.23,77.922 12.26,25.219 22.96,47.801 32.1,67.738 9.12,19.93 15.87,36.473 20.19,49.621 4.33,13.129 5.05,20.989 2.17,23.532 -3.37,2.539 -1.81,5.5 4.68,8.898 6.5,3.391 14.67,5.301 24.53,5.73 9.85,0.411 19.83,-1.492 29.93,-5.73 10.1,-4.238 17.32,-12.711 21.64,-25.441 1.44,-4.668 1.68,-11.438 0.72,-20.348 18.27,19.5 38.23,33.809 59.87,42.93 21.64,9.121 45.92,9 72.85,-0.313 19.23,-7.219 33.06,-17.289 41.47,-30.219 8.41,-12.937 13.34,-27.148 14.79,-42.609 1.44,-15.488 0,-31.609 -4.33,-48.34 -4.32,-16.762 -9.62,-32.129 -15.87,-46.129 -12.51,-27.57 -26.45,-50.883 -41.83,-69.972 -15.39,-19.079 -31.5,-34.34 -48.33,-45.789 24.05,4.66 45.32,13.671 63.84,27.031 18.51,13.359 36.18,28.949 53.01,46.75 15.87,16.539 30.17,33.398 42.92,50.578 12.74,17.16 23.2,32.75 31.37,46.742 1.45,2.961 3.61,4.981 6.5,6.051 2.89,1.047 6.49,0.527 10.82,-1.594 3.36,-1.699 5.42,-4.039 6.13,-6.996 0.72,-2.973 0.36,-5.73 -1.09,-8.273 -11.54,-20.778 -24.88,-40.918 -40.03,-60.43 -15.14,-19.508 -31.86,-38.379 -50.12,-56.609 -12.03,-11.872 -24.78,-22.801 -38.23,-32.75 -13.47,-9.969 -28.5,-18.239 -45.08,-24.821 -16.59,-6.57 -34.99,-11.129 -55.18,-13.668 -20.2,-2.551 -42.81,-2.551 -67.81,0 h -10.82 c -5.76,0.43 -11.9,1.367 -18.39,2.86 -6.49,1.488 -12.5,3.918 -18.03,7.32 -5.53,3.391 -10.22,7.949 -14.06,13.668 -3.86,5.73 -5.78,12.82 -5.78,21.312 0,9.321 2.17,15.481 6.5,18.45 4.8,4.23 10.1,6.359 15.87,6.359 5.76,0 10.92,-1.699 15.5,-5.078 4.57,-3.402 6.86,-7.863 6.86,-13.363" /><path
         id="path26"
         style="fill:#ff0000;fill-opacity:1;fill-rule:nonzero;stroke:none"
         d="m 2183.02,795.32 c -2.42,-4.672 -4.34,-8.91 -5.77,-12.718 28.84,8.898 52.53,21.089 71.04,36.57 18.51,15.469 32.34,30.75 41.48,45.808 9.13,15.032 13.81,28.079 14.07,39.11 0.23,11.019 -3.98,16.742 -12.63,17.172 -12.98,0.418 -29.34,-10.602 -49.05,-33.071 -19.73,-22.48 -39.44,-53.429 -59.14,-92.871 z m 211.34,40.078 c 5.77,-3.398 7.21,-8.066 4.32,-14 -8.18,-15.257 -17.92,-31.277 -29.22,-48.027 -11.3,-16.75 -24.04,-33.07 -38.22,-48.973 -14.19,-15.91 -29.22,-30.539 -45.08,-43.898 -15.87,-13.352 -32.34,-24.27 -49.41,-32.75 -17.07,-8.488 -34.51,-14 -52.29,-16.531 -17.8,-2.547 -35.35,-0.649 -52.65,5.722 -19.24,6.778 -33.07,16.629 -41.49,29.579 -8.4,12.929 -13.34,27.23 -14.78,42.929 -1.45,15.68 0,31.903 4.33,48.66 4.32,16.75 9.62,32.121 15.86,46.11 11.55,25.863 24.41,47.812 38.6,65.84 14.18,18.023 29.21,32.761 45.07,44.203 15.88,11.457 32.21,19.929 49.06,25.449 16.82,5.508 33.89,8.269 51.21,8.269 17.78,0 30.89,-3.808 39.3,-11.449 8.42,-7.633 12.63,-17.601 12.63,-29.89 0,-12.309 -3.86,-25.871 -11.54,-40.719 -7.7,-14.84 -18.64,-29.363 -32.82,-43.563 -14.18,-14.218 -31.37,-27.148 -51.57,-38.808 -20.19,-11.672 -42.81,-20.461 -67.81,-26.403 -3.36,-11.019 -5.76,-21.937 -7.21,-32.75 -1.44,-10.816 -1.69,-20.668 -0.72,-29.578 0.96,-8.91 3.24,-16.332 6.86,-22.269 3.6,-5.93 9.01,-9.539 16.23,-10.809 10.56,-1.703 21.99,-0.32 34.26,4.129 12.26,4.457 24.76,11.141 37.51,20.039 12.73,8.91 25.24,19.301 37.5,31.172 12.26,11.867 23.8,24.379 34.62,37.527 10.82,13.141 20.43,26.18 28.86,39.121 8.4,12.942 15.02,24.911 19.83,35.942 1.44,3.387 3.96,5.726 7.57,7 3.62,1.258 7.33,0.84 11.19,-1.274" /><path
         id="path28"
         style="fill:#ff0000;fill-opacity:1;fill-rule:nonzero;stroke:none"
         d="m 2396.51,816.309 c -1.44,-2.547 -3.73,-4.239 -6.85,-5.079 -3.13,-0.859 -6.02,-0.859 -8.65,0 -2.66,0.84 -4.82,2.43 -6.5,4.758 -1.67,2.332 -1.8,5.192 -0.36,8.594 1.45,3.809 4.08,9.637 7.93,17.5 3.85,7.84 7.7,16.098 11.54,24.797 3.85,8.68 7.7,17.18 11.55,25.441 3.84,8.27 6.49,15.16 7.94,20.672 -11.07,4.668 -20.56,12.09 -28.49,22.27 -7.94,10.168 -11.91,20.347 -11.91,30.527 0,13.141 3.84,24.383 11.54,33.723 7.69,9.308 19.23,13.988 34.63,13.988 9.61,0 17.91,-3.5 24.88,-10.5 6.96,-7 10.69,-15.379 11.17,-25.121 0,-5.52 -0.35,-13.149 -1.07,-22.899 -0.73,-9.761 -2.05,-17.82 -3.97,-24.171 2.4,-1.7 5.65,-2.77 9.74,-3.188 4.08,-0.422 8.52,-0.633 13.34,-0.633 10.57,0 18.87,1.051 24.88,3.184 6.02,2.117 11.18,4.348 15.51,6.68 4.34,2.32 8.66,4.546 12.99,6.679 4.32,2.11 10.1,3.168 17.31,3.168 9.61,0 19.22,-2.117 28.85,-6.347 9.61,-4.25 16.59,-12.512 20.92,-24.813 4.32,-12.301 3.6,-27.25 -2.17,-44.84 -5.77,-17.609 -13.83,-35.937 -24.16,-55.019 -10.34,-19.078 -21.41,-37.961 -33.18,-56.61 -11.79,-18.672 -21.63,-35.308 -29.57,-49.929 -7.93,-14.641 -12.51,-26.301 -13.71,-34.993 -1.21,-8.699 3.73,-12.617 14.79,-11.769 4.33,0.422 10.33,3.82 18.03,10.172 7.69,6.371 16.11,14.531 25.25,24.5 9.12,9.961 18.51,21.09 28.13,33.39 9.62,12.289 18.76,24.579 27.41,36.891 8.65,12.289 16.34,23.949 23.07,34.988 6.73,11.012 11.55,20.141 14.44,27.352 1.43,3.387 3.84,5.5 7.2,6.359 3.36,0.84 6.5,0.84 9.38,0 2.89,-0.859 5.17,-2.551 6.86,-5.09 1.68,-2.55 1.55,-5.312 -0.37,-8.269 -3.85,-7.223 -9.37,-17.07 -16.59,-29.582 -7.2,-12.508 -15.75,-25.871 -25.6,-40.07 -9.87,-14.219 -20.56,-28.52 -32.1,-42.938 -11.54,-14.41 -23.44,-27.57 -35.71,-39.434 -12.25,-11.878 -24.64,-21.628 -37.13,-29.257 -12.51,-7.641 -24.54,-11.45 -36.07,-11.45 -9.63,-0.421 -17.92,1.278 -24.88,5.079 -6.98,3.82 -12.63,9.23 -16.96,16.23 -4.33,7 -7.21,15.469 -8.65,25.441 -1.44,9.957 -1.44,20.68 0,32.118 1.92,16.543 6.49,34.132 13.69,52.8 7.22,18.653 15.16,36.993 23.81,55.02 8.65,18.012 17.06,34.883 25.25,50.57 8.17,15.68 14.18,29.039 18.03,40.071 -10.09,-3.399 -21.53,-5.411 -34.26,-6.04 -12.75,-0.64 -25.37,0.52 -37.87,3.489 -1.44,-2.969 -3.96,-8.367 -7.57,-16.207 -3.61,-7.852 -7.58,-16.34 -11.9,-25.453 -4.33,-9.118 -8.66,-18.028 -12.99,-26.719 -4.33,-8.692 -7.93,-15.371 -10.82,-20.031" /><path
         id="path30"
         style="fill:#ff0000;fill-opacity:1;fill-rule:nonzero;stroke:none"
         d="m 2782.04,991.238 c 2.64,5.082 5.52,10.172 8.65,15.262 3.13,5.09 6.01,9.96 8.66,14.63 2.63,4.66 3.97,8.27 3.97,10.81 0,10.59 -3.61,19.3 -10.82,26.08 -7.22,6.78 -15.27,11.87 -24.17,15.27 -8.9,3.38 -16.94,5.08 -24.16,5.08 -7.22,0 -10.82,-1.48 -10.82,-4.45 0,-2.54 -1.45,-6.15 -4.33,-10.81 -2.88,-4.67 -6.13,-9.76 -9.73,-15.26 -3.61,-5.52 -6.86,-10.72 -9.74,-15.59 -2.89,-4.88 -4.33,-8.81 -4.33,-11.77 0,-10.6 3.84,-19.4 11.54,-26.388 7.68,-7.012 15.98,-12.09 24.89,-15.27 8.89,-3.184 17.19,-4.773 24.88,-4.773 7.69,0 11.55,1.691 11.55,5.089 0,2.961 1.31,7 3.96,12.09 z m 31.38,-198.148 c -7.22,-12.508 -15.76,-25.871 -25.61,-40.07 -9.86,-14.219 -20.55,-28.52 -32.1,-42.938 -11.54,-14.41 -23.44,-27.57 -35.7,-39.434 -12.27,-11.878 -24.65,-21.628 -37.15,-29.257 -12.51,-7.641 -24.52,-11.45 -36.06,-11.45 -9.62,-0.421 -17.91,1.278 -24.89,5.079 -6.97,3.82 -12.62,9.23 -16.95,16.23 -4.33,7 -7.22,15.469 -8.65,25.441 -1.45,9.957 -1.45,20.68 0,32.118 1.92,14 5.65,28.832 11.17,44.523 5.54,15.688 11.9,31.379 19.12,47.078 7.21,15.68 14.54,30.84 22,45.481 7.44,14.629 13.94,27.871 19.48,39.75 5.51,11.871 9.37,21.839 11.54,29.898 2.16,8.051 1.55,13.57 -1.81,16.543 -3.37,2.539 -1.8,5.5 4.69,8.898 6.49,3.391 14.54,5.301 24.16,5.719 9.62,0.422 19.59,-1.48 29.94,-5.719 10.33,-4.238 17.67,-12.718 21.99,-25.441 4.33,-12.301 3.62,-27.25 -2.15,-44.84 -5.78,-17.609 -13.83,-35.937 -24.17,-55.019 -10.35,-19.078 -21.4,-37.961 -33.18,-56.61 -11.79,-18.672 -21.64,-35.308 -29.58,-49.929 -7.93,-14.641 -12.51,-26.301 -13.7,-34.993 -1.2,-8.699 3.72,-12.617 14.79,-11.769 4.8,0.422 10.93,3.82 18.39,10.172 7.46,6.371 15.75,14.531 24.89,24.5 9.13,9.961 18.5,21.09 28.13,33.39 9.61,12.289 18.75,24.579 27.4,36.891 8.67,12.289 16.35,23.949 23.09,34.988 6.73,11.012 11.54,20.141 14.42,27.352 1.45,3.387 3.85,5.5 7.22,6.359 3.35,0.84 6.49,0.84 9.38,0 2.88,-0.859 5.15,-2.551 6.84,-5.09 1.68,-2.55 1.56,-5.312 -0.35,-8.269 -3.86,-7.223 -9.38,-17.07 -16.59,-29.582" /><path
         id="path32"
         style="fill:#ff0000;fill-opacity:1;fill-rule:nonzero;stroke:none"
         d="m 2881.22,795.32 c -2.41,-4.672 -4.34,-8.91 -5.77,-12.718 28.85,8.898 52.53,21.089 71.04,36.57 18.51,15.469 32.34,30.75 41.48,45.808 9.13,15.032 13.82,28.079 14.06,39.11 0.25,11.019 -3.96,16.742 -12.62,17.172 -12.98,0.418 -29.33,-10.602 -49.05,-33.071 -19.72,-22.48 -39.43,-53.429 -59.14,-92.871 z m 211.34,40.078 c 5.77,-3.398 7.21,-8.066 4.32,-14 -8.18,-15.257 -17.92,-31.277 -29.2,-48.027 -11.31,-16.75 -24.06,-33.07 -38.24,-48.973 -14.19,-15.91 -29.21,-30.539 -45.07,-43.898 -15.87,-13.352 -32.35,-24.27 -49.42,-32.75 -17.07,-8.488 -34.5,-14 -52.29,-16.531 -17.8,-2.547 -35.35,-0.649 -52.65,5.722 -19.24,6.778 -33.06,16.629 -41.47,29.579 -8.41,12.929 -13.35,27.23 -14.8,42.929 -1.44,15.68 0,31.903 4.34,48.66 4.32,16.75 9.62,32.121 15.87,46.11 11.53,25.863 24.39,47.812 38.58,65.84 14.18,18.023 29.21,32.761 45.08,44.203 15.87,11.457 32.21,19.929 49.05,25.449 16.83,5.508 33.9,8.269 51.21,8.269 17.78,0 30.89,-3.808 39.31,-11.449 8.41,-7.633 12.62,-17.601 12.62,-29.89 0,-12.309 -3.85,-25.871 -11.54,-40.719 -7.69,-14.84 -18.64,-29.363 -32.81,-43.563 -14.19,-14.218 -31.38,-27.148 -51.58,-38.808 -20.2,-11.672 -42.81,-20.461 -67.8,-26.403 -3.36,-11.019 -5.77,-21.937 -7.21,-32.75 -1.45,-10.816 -1.69,-20.668 -0.73,-29.578 0.96,-8.91 3.25,-16.332 6.86,-22.269 3.6,-5.93 9.01,-9.539 16.23,-10.809 10.57,-1.703 21.99,-0.32 34.26,4.129 12.26,4.457 24.76,11.141 37.51,20.039 12.73,8.91 25.24,19.301 37.51,31.172 12.25,11.867 23.8,24.379 34.62,37.527 10.82,13.141 20.43,26.18 28.84,39.121 8.41,12.942 15.03,24.911 19.84,35.942 1.44,3.387 3.97,5.726 7.58,7 3.6,1.258 7.32,0.84 11.18,-1.274" /><path
         id="path34"
         style="fill:#ff0000;fill-opacity:1;fill-rule:nonzero;stroke:none"
         d="m 3351.49,867.84 c -0.96,-14.43 -4.57,-29.578 -10.82,-45.481 -6.25,-15.91 -13.34,-31.5 -21.27,-46.757 -7.94,-15.262 -15.86,-29.793 -23.8,-43.571 -7.93,-13.781 -14.07,-25.769 -18.39,-35.941 -4.33,-10.18 -6.14,-18.34 -5.41,-24.481 0.72,-6.16 5.88,-9.23 15.5,-9.23 4.33,0 10.34,3.07 18.03,9.23 7.69,6.141 16.11,14.2 25.25,24.172 9.13,9.949 18.63,21.199 28.49,33.707 9.86,12.5 19.11,24.903 27.78,37.203 8.65,12.297 16.33,24.071 23.07,35.309 6.73,11.23 11.54,20.461 14.43,27.672 1.44,3.387 3.84,5.5 7.21,6.359 3.36,0.84 6.5,0.84 9.38,0 2.89,-0.859 5.16,-2.551 6.85,-5.09 1.68,-2.55 1.56,-5.312 -0.36,-8.269 -3.86,-7.223 -9.37,-17.07 -16.59,-29.582 -7.22,-12.508 -15.75,-25.871 -25.61,-40.07 -9.86,-14.219 -20.55,-28.52 -32.1,-42.938 -11.54,-14.41 -23.43,-27.57 -35.7,-39.434 -12.26,-11.878 -24.65,-21.628 -37.15,-29.257 -12.51,-7.641 -24.52,-11.45 -36.06,-11.45 -9.62,-0.421 -17.79,1.59 -24.52,6.039 -6.74,4.45 -12.27,10.5 -16.59,18.129 -4.33,7.633 -7.34,16.219 -9.02,25.762 -1.69,9.539 -1.8,19.188 -0.36,28.938 2.4,17.39 6.96,34.562 13.7,51.531 6.73,16.949 14.07,33.172 22,48.66 7.94,15.469 15.75,29.68 23.45,42.621 7.69,12.93 13.46,24.168 17.31,33.707 3.84,9.543 5.16,16.852 3.96,21.942 -1.2,5.089 -6.85,7.41 -16.94,6.992 -5.31,-0.422 -12.76,-4.133 -22.37,-11.121 -9.63,-7 -20.08,-15.911 -31.37,-26.719 -11.3,-10.813 -22.73,-22.692 -34.26,-35.621 -11.54,-12.942 -21.89,-25.352 -31.02,-37.211 -9.14,-16.531 -18.64,-32.981 -28.49,-49.301 -9.87,-16.328 -18.65,-31.699 -26.33,-46.109 -7.7,-14.43 -13.34,-27.149 -16.94,-38.168 -3.62,-11.032 -3.73,-19.512 -0.37,-25.442 1.92,-3.398 0.37,-6.898 -4.68,-10.492 -5.05,-3.617 -11.55,-5.508 -19.49,-5.738 -7.93,-0.199 -16.1,2.019 -24.52,6.68 -8.41,4.671 -14.78,13.359 -19.11,26.089 -3.85,10.172 -3.61,23.532 0.72,40.071 4.33,16.539 10.58,34.242 18.75,53.109 8.19,18.871 17.32,38.172 27.42,57.883 10.09,19.726 19.23,37.848 27.4,54.387 8.17,16.543 14.18,30.742 18.04,42.613 3.83,11.879 3.83,19.508 0,22.91 -3.37,2.539 -1.81,5.5 4.68,8.898 6.5,3.391 14.66,5.301 24.52,5.719 9.86,0.422 19.84,-1.48 29.94,-5.719 10.1,-4.238 17.31,-12.718 21.64,-25.441 1.91,-5.519 2.63,-11.559 2.17,-18.129 -0.49,-6.578 -1.69,-13.469 -3.61,-20.668 9.12,9.317 18.39,18.227 27.77,26.707 9.37,8.481 18.86,15.91 28.49,22.27 9.61,6.363 18.99,11.441 28.13,15.261 9.13,3.821 18.03,5.719 26.69,5.719 18.76,0.422 32.69,-6.777 41.83,-21.617 9.13,-14.852 12.01,-33.934 8.65,-57.242" /><path
         id="path36"
         style="fill:#ff0000;fill-opacity:1;fill-rule:nonzero;stroke:none"
         d="m 3608.99,896.461 c 0,3.391 1.09,6.559 3.26,9.539 2.15,2.961 4.92,5.512 8.29,7.629 -2.41,5.09 -6.25,7.633 -11.55,7.633 -6.73,0.418 -14.19,-2.223 -22.35,-7.942 -8.18,-5.73 -16.95,-14 -26.33,-24.808 -9.37,-10.821 -19.12,-24.18 -29.22,-40.082 -10.09,-15.899 -20.19,-33.61 -30.29,-53.11 -6.25,-12.308 -11.42,-25.871 -15.51,-40.711 -4.09,-14.847 -6.49,-28.839 -7.2,-41.98 -0.73,-13.149 0.59,-24.488 3.96,-34.027 3.36,-9.543 9.61,-15.172 18.75,-16.86 10.58,-1.703 22,-0.32 34.27,4.129 12.25,4.457 24.75,11.141 37.5,20.039 12.73,8.91 25.25,19.301 37.51,31.172 12.26,11.867 23.81,24.379 34.62,37.527 10.82,13.141 20.44,26.18 28.85,39.121 8.41,12.942 15.02,24.911 19.84,35.942 1.44,3.387 3.85,5.617 7.22,6.668 3.35,1.058 6.96,0.742 10.82,-0.942 6.24,-2.976 7.93,-7.429 5.04,-13.359 -7.7,-14.859 -17.2,-30.648 -28.49,-47.398 -11.3,-16.743 -23.93,-32.969 -37.87,-48.653 -13.95,-15.687 -28.98,-30.437 -45.08,-44.207 -16.11,-13.789 -32.71,-25.031 -49.77,-33.711 -17.08,-8.699 -34.63,-14.32 -52.65,-16.851 -18.04,-2.547 -35.71,-0.649 -53.02,5.722 -19.24,6.778 -33.06,16.75 -41.47,29.891 -8.41,13.148 -13.34,27.449 -14.79,42.938 -1.45,15.468 0,31.582 4.33,48.339 4.32,16.75 9.63,32.121 15.87,46.11 11.54,25.863 24.4,48.031 38.59,66.48 14.17,18.449 29.21,33.492 45.08,45.153 15.87,11.66 32.2,20.039 49.04,25.128 16.83,5.09 33.91,7.411 51.22,7 5.76,-0.429 11.9,-1.378 18.39,-2.859 6.49,-1.492 12.5,-3.922 18.04,-7.32 5.51,-3.403 10.2,-7.949 14.06,-13.672 3.84,-5.731 5.77,-12.84 5.77,-21.309 0,-8.488 -2.17,-14.629 -6.49,-18.449 -3.86,-4.242 -9.14,-6.359 -15.87,-6.359 -5.77,0 -10.95,1.687 -15.51,5.09 -4.58,3.386 -6.86,7.839 -6.86,13.359" /><path
         id="path38"
         style="fill:#ff0000;fill-opacity:1;fill-rule:nonzero;stroke:none"
         d="m 3767.68,795.32 c -2.42,-4.672 -4.34,-8.91 -5.78,-12.718 28.85,8.898 52.53,21.089 71.05,36.57 18.51,15.469 32.33,30.75 41.47,45.808 9.13,15.032 13.82,28.079 14.07,39.11 0.24,11.019 -3.97,16.742 -12.62,17.172 -12.99,0.418 -29.34,-10.602 -49.05,-33.071 -19.72,-22.48 -39.44,-53.429 -59.14,-92.871 z m 211.33,40.078 c 5.78,-3.398 7.21,-8.066 4.33,-14 -8.18,-15.257 -17.92,-31.277 -29.21,-48.027 -11.31,-16.75 -24.05,-33.07 -38.23,-48.973 -14.19,-15.91 -29.21,-30.539 -45.08,-43.898 -15.87,-13.352 -32.34,-24.27 -49.41,-32.75 -17.07,-8.488 -34.51,-14 -52.3,-16.531 -17.79,-2.547 -35.34,-0.649 -52.65,5.722 -19.23,6.778 -33.05,16.629 -41.47,29.579 -8.41,12.929 -13.35,27.23 -14.79,42.929 -1.44,15.68 0,31.903 4.33,48.66 4.33,16.75 9.62,32.121 15.87,46.11 11.53,25.863 24.39,47.812 38.58,65.84 14.18,18.023 29.21,32.761 45.08,44.203 15.87,11.457 32.22,19.929 49.06,25.449 16.82,5.508 33.89,8.269 51.21,8.269 17.78,0 30.88,-3.808 39.3,-11.449 8.41,-7.633 12.63,-17.601 12.63,-29.89 0,-12.309 -3.86,-25.871 -11.54,-40.719 -7.7,-14.84 -18.65,-29.363 -32.82,-43.563 -14.19,-14.218 -31.37,-27.148 -51.58,-38.808 -20.19,-11.672 -42.8,-20.461 -67.79,-26.403 -3.37,-11.019 -5.77,-21.937 -7.22,-32.75 -1.44,-10.816 -1.69,-20.668 -0.72,-29.578 0.96,-8.91 3.24,-16.332 6.86,-22.269 3.6,-5.93 9.01,-9.539 16.23,-10.809 10.56,-1.703 21.99,-0.32 34.25,4.129 12.27,4.457 24.77,11.141 37.51,20.039 12.74,8.91 25.25,19.301 37.51,31.172 12.26,11.867 23.8,24.379 34.62,37.527 10.82,13.141 20.43,26.18 28.85,39.121 8.41,12.942 15.03,24.911 19.83,35.942 1.45,3.387 3.98,5.726 7.58,7 3.61,1.258 7.33,0.84 11.18,-1.274" /><path
         id="path40"
         style="fill:#f7931e;fill-opacity:1;fill-rule:evenodd;stroke:none"
         d="m 2286.22,3630 c -606.74,0 -1133.64,-348.2 -1391.49,-855.25 48.508,0.96 95.149,3.54 139.78,7.56 247.88,434.64 715.55,727.69 1251.71,727.69 366.18,0 700.37,-136.76 954.47,-361.88 44.73,13.25 88.74,26.88 131.78,40.39 C 3091.38,3461.57 2708.13,3630 2286.22,3630" /><path
         id="path42"
         style="fill:#f7931e;fill-opacity:1;fill-rule:evenodd;stroke:none"
         d="m 1001.02,1354.17 c -6.192,-0.67 -12.45,-1 -18.676,-1 -25.457,0 -51.692,5.58 -77.989,16.62 -5.273,2.15 -10.347,4.52 -15.312,7.01 34.187,-68.63 73.437,-134.31 116.987,-196.78 6.77,2.91 13.92,5.78 21.61,8.57 18.49,6.71 38.53,11.69 59.57,14.79 14.95,2.2 30.6,3.29 46.55,3.42 -36.7,48.95 -70.42,100.27 -100.76,153.75 -10.45,-2.95 -21.09,-5.18 -31.98,-6.38" /><path
         id="path44"
         style="fill:#f7931e;fill-opacity:1;fill-rule:evenodd;stroke:none"
         d="m 3668.24,1369.65 c -19,7.67 -36.03,17.73 -50.97,29.69 -6.02,-4.88 -12.07,-9.57 -18.19,-13.8 -19.75,-13.66 -40.22,-22.89 -61.18,-27.79 -65.29,-114.51 -145.98,-219.06 -239.02,-311.15 0.71,0.01 1.41,0.1 2.12,0.1 l 1.55,0.02 c 45.14,0 85.05,-18.74 112.63,-51.771 104.6,109.821 193.55,234.691 262.86,371.211 -3.27,1.16 -6.57,2.17 -9.8,3.49" /><path
         id="path46"
         style="fill:#f7931e;fill-opacity:1;fill-rule:evenodd;stroke:none"
         d="m 2564.71,553.141 c -26.13,-14.942 -53.27,-22.789 -80.83,-23.18 -1.71,-0.063 -3.4,-0.082 -5.07,-0.082 -25.34,0 -48.9,5.851 -70.03,17.402 -22.32,12.207 -40.47,29.461 -54,51.309 -1.24,1.98 -2.23,4.109 -3.36,6.16 -0.3,-0.238 -0.57,-0.508 -0.86,-0.75 -21.9,-18.43 -45.22,-33.828 -69.31,-45.801 -26.55,-13.199 -54.37,-21.937 -82.66,-25.98 -9.7,-1.387 -19.6,-2.098 -29.34,-2.098 -24.14,0 -48.13,4.277 -71.31,12.731 -21.16,7.519 -39.65,17.617 -55.49,30.07 -15.02,-9.313 -31.05,-17.473 -48,-24.184 -6.58,-2.609 -13.36,-4.968 -20.28,-7.129 C 2075.05,521.031 2179.36,510 2286.22,510 c 103.87,0 205.32,10.441 303.56,29.91 -5.4,2.129 -10.68,4.559 -15.81,7.352 -3.24,1.777 -6.2,3.886 -9.26,5.879" /><path
         id="path48"
         style="fill:#ffffff;fill-opacity:1;fill-rule:nonzero;stroke:none"
         d="m 556.074,2967.93 c -1.441,0.02 -2.984,0.51 -4.636,1.46 -2.473,1.41 -3.633,3.27 -3.493,5.57 0.145,2.28 2.715,7.91 7.7,16.87 6.21,10.97 11.441,21.02 15.695,30.15 4.242,9.14 10.32,23.48 18.234,43.03 3.008,7.41 6.285,14.2 9.84,20.42 1.797,3.14 3.695,6 5.703,8.61 2.012,2.61 3.531,4.41 4.563,5.38 1.035,0.98 2.566,1.36 4.597,1.14 2.032,-0.21 3.489,-0.56 4.36,-1.07 3.902,-2.24 5.07,-4.73 3.496,-7.48 -1.043,-1.8 -2.625,-4.18 -4.746,-7.13 -2.106,-3.03 -4.711,-7.27 -7.832,-12.7 -3.203,-5.61 -6.703,-12.63 -10.489,-21.09 -3.785,-8.45 -5.019,-13.63 -3.711,-15.56 1.305,-1.91 11.204,-9.49 29.668,-22.74 18.469,-13.24 32.504,-22.62 42.125,-28.13 4.454,-2.55 9.985,-4.81 16.602,-6.77 1.223,-0.4 1.938,-0.67 2.156,-0.81 2.422,-1.39 4.231,-3.29 5.426,-5.72 1.191,-2.45 1.262,-4.6 0.184,-6.46 -1.637,-2.86 -4.371,-4.45 -8.203,-4.77 -3.836,-0.32 -12.067,3.14 -24.708,10.38 -11.98,6.86 -34.054,22.54 -66.226,47.03 -1.742,1.28 -2.645,1.95 -2.695,1.98 -1.871,1.07 -3.383,0.59 -4.555,-1.45 -1.883,-3.3 -5.078,-9.83 -9.57,-19.59 -4.446,-9.79 -7.801,-16.65 -10.063,-20.6 -3.406,-5.95 -6.543,-9.26 -9.422,-9.95" /><path
         id="path50"
         style="fill:#ffffff;fill-opacity:1;fill-rule:nonzero;stroke:none"
         d="m 713.441,3062.81 c -22.972,43.81 -30.211,72.04 -21.695,84.71 2.262,3.37 6.02,4.82 11.266,4.34 5.25,-0.47 14.918,-4.48 28.992,-12.04 14.922,-8.11 27.059,-11.96 36.426,-11.54 4.793,0.21 7.957,-0.19 9.48,-1.22 1.363,-0.91 2.094,-2.54 2.192,-4.9 0.097,-2.36 -0.454,-4.43 -1.657,-6.22 -2.757,-4.09 -7.488,-6.18 -14.207,-6.24 -6.718,-0.06 -16.164,3.35 -28.324,10.22 -11.535,6.45 -19.328,10.3 -23.355,11.57 -4.039,1.25 -6.832,0.74 -8.383,-1.58 -3.711,-5.51 3.25,-26.33 20.875,-62.44 5.265,-10.79 8.433,-18.25 9.496,-22.39 1.066,-4.15 0.945,-7.21 -0.359,-9.16 -1.555,-2.3 -3.547,-3.79 -5.969,-4.45 -2.426,-0.66 -4.641,-0.31 -6.637,1.03 -1.477,0.99 -4.027,3.32 -7.664,6.98 -29.047,28.89 -58.625,56.17 -88.766,81.83 -7.054,5.97 -11.222,10.73 -12.492,14.29 -1.269,3.57 -1.476,5.98 -0.633,7.24 1.52,2.25 3.817,3.69 6.895,4.29 3.082,0.61 6.246,-0.19 9.5,-2.37 9.676,-6.5 21.351,-17.79 35.055,-33.86 6.804,-7.93 15.781,-17.51 26.929,-28.73 11.153,-11.23 18.246,-17.87 21.297,-19.91 0.633,-0.43 1.141,-0.36 1.527,0.23 l 0.211,0.32" /><path
         id="path52"
         style="fill:#ffffff;fill-opacity:1;fill-rule:nonzero;stroke:none"
         d="m 770.824,3177.39 c 3.68,31.02 1.676,49.48 -6.015,55.38 -3.012,2.31 -5.555,2.11 -7.645,-0.6 -3.547,-4.63 -4.152,-12.45 -1.816,-23.45 2.328,-11.01 7.488,-21.45 15.476,-31.33 z m 51.942,43.37 c 5.121,-3.93 7.824,-13.21 8.109,-27.82 0.273,-14.63 -3.281,-26.76 -10.684,-36.41 -6.207,-8.09 -13.382,-12.51 -21.531,-13.24 -8.14,-0.75 -16.48,2.17 -25.027,8.73 -14.375,11.01 -24.32,26.34 -29.856,46 -5.515,19.64 -3.871,35.21 4.957,46.71 2.891,3.77 6.481,5.91 10.778,6.41 4.289,0.5 8.164,-0.58 11.633,-3.24 7.742,-5.94 12.246,-15.42 13.507,-28.45 1.266,-13.01 0.446,-28.51 -2.472,-46.45 -0.653,-3.66 0.105,-6.31 2.269,-7.98 4.172,-3.2 8.438,-4.55 12.797,-4.06 4.371,0.48 8.356,3.08 11.977,7.81 8.293,10.8 10.765,26.42 7.449,46.85 -0.395,2.93 -0.262,4.83 0.398,5.67 1.231,1.62 3.129,1.44 5.696,-0.53" /><path
         id="path54"
         style="fill:#ffffff;fill-opacity:1;fill-rule:nonzero;stroke:none"
         d="m 852.742,3389.89 c 27.27,-36.93 47.586,-61.87 60.949,-74.85 2.954,-2.86 5.469,-4.72 7.539,-5.58 0.672,0.05 1.512,0.6 2.532,1.65 2.82,2.91 8.301,12.37 16.426,28.4 8.128,16.03 11.937,31.74 11.433,47.14 -0.508,15.4 -5.828,28.01 -15.969,37.84 -8.406,8.15 -18.007,11.71 -28.789,10.64 -10.769,-1.06 -20.879,-6.46 -30.308,-16.18 -5.735,-5.92 -12.09,-13.56 -19.067,-22.93 -1.531,-2.15 -3.117,-4.18 -4.746,-6.13 z m -7.39,-16.76 c -1.778,1.71 -3.926,1.81 -6.457,0.29 -4.524,-2.85 -7.899,-3.19 -10.129,-1.03 -1.68,1.64 -2.614,3.97 -2.793,7.01 -0.18,3.05 0.543,5.4 2.172,7.09 l 9.531,9.28 c 4.32,4.46 9.711,10.61 16.172,18.45 6.422,7.81 11.371,13.51 14.851,17.1 12.168,12.55 25.481,19.2 39.934,19.97 14.453,0.75 27.457,-4.47 39.004,-15.66 12.683,-12.31 18.965,-28.95 18.843,-49.97 -0.125,-21 -7.539,-43.92 -22.246,-68.73 -5.812,-9.8 -9.105,-17.06 -9.879,-21.78 -1.074,-6.19 -2.792,-10.52 -5.175,-12.98 -1.68,-1.72 -4.086,-2.37 -7.227,-1.92 -3.14,0.43 -5.254,1.19 -6.348,2.25 -0.46,0.44 -1.203,2.05 -2.226,4.8 -1.121,2.94 -2.535,5.61 -4.254,8.03 -1.715,2.42 -5.145,6.37 -10.297,11.9 -5.14,5.43 -13.012,14.67 -23.601,27.72 -10.594,13.05 -17.946,22.46 -22.075,28.21 -3.566,5.05 -6.164,8.37 -7.8,9.97" /><path
         id="path56"
         style="fill:#ffffff;fill-opacity:1;fill-rule:nonzero;stroke:none"
         d="m 1048.8,3467.43 c 2.95,-15.57 3.71,-28.97 2.3,-40.19 -1.41,-11.22 -4.84,-19.23 -10.29,-24.06 -3.13,-2.77 -7.94,-3.76 -14.42,-2.99 -6.48,0.79 -13.08,4.97 -19.79,12.56 -5.49,6.23 -12.092,16.7 -19.799,31.45 -6.418,12.32 -11.434,20.52 -15.043,24.61 -1.145,4.06 -0.235,7.38 2.707,9.99 1.984,1.76 4.195,2.47 6.621,2.11 2.426,-0.34 4.305,-1.28 5.648,-2.8 2.934,-3.32 5.954,-9.07 9.032,-17.23 6.114,-15.83 12.944,-27.99 20.494,-36.54 6.88,-7.78 12.13,-10.08 15.73,-6.89 4.61,4.07 7,13.16 7.2,27.28 0.19,14.12 -3.36,30.42 -10.65,48.91 -2.95,7.37 -4.55,12.44 -4.78,15.23 -0.23,2.79 0.72,5.15 2.85,7.03 3.23,2.85 6.73,2.14 10.51,-2.13 0.45,-0.52 1.54,-2.64 3.24,-6.39 6.34,-12.91 13.6,-23.99 21.77,-33.24 9.82,-11.1 18,-16.68 24.55,-16.72 3.45,-0.08 5.65,-0.66 6.62,-1.74 1.18,-1.34 1.28,-3.39 0.32,-6.19 -0.95,-2.79 -2.21,-4.88 -3.78,-6.25 -3.32,-2.96 -8.18,-2.86 -14.58,0.28 -6.4,3.12 -13.87,9.52 -22.38,19.15 l -2.08,2.35 c -0.67,0.75 -1.34,1.56 -2,2.41" /><path
         id="path58"
         style="fill:#ffffff;fill-opacity:1;fill-rule:nonzero;stroke:none"
         d="m 1088.67,3570.57 c 4.82,4.41 9.28,8.67 13.39,12.78 4.1,4.02 7.64,7.2 10.63,9.54 3.78,2.97 6.46,4.5 7.99,4.58 1.55,0.08 3.01,-0.75 4.38,-2.49 3.16,-4.04 2.06,-8.43 -3.3,-13.2 -6.88,-6.11 -13.04,-11.96 -18.49,-17.52 -5.46,-5.56 -8.22,-8.79 -8.28,-9.69 -0.07,-0.89 3.08,-8.01 9.42,-21.33 6.35,-13.34 10.85,-21.69 13.51,-25.09 4.3,-5.48 7.88,-8.56 10.75,-9.26 2.87,-0.68 5.75,0.11 8.64,2.38 4.3,3.36 7.73,11.24 10.32,23.65 0.86,4.95 2.1,8.04 3.69,9.3 2.15,1.67 4.11,1.36 5.91,-0.92 2.81,-3.59 3,-10.94 0.58,-22.07 -2.43,-11.11 -7.26,-19.5 -14.49,-25.18 -12.06,-9.44 -23.66,-7.07 -34.79,7.13 -4.03,5.14 -9.01,14.07 -14.96,26.8 -5.96,12.62 -9.78,20 -11.46,22.15 -0.59,0.75 -1.48,0.65 -2.67,-0.29 l -7.25,-6.77 c -6.38,-4.99 -11.56,-4.95 -15.55,0.13 -2.26,2.89 -1.93,5.48 1.02,7.79 l 15.4,12.07 c 1.04,0.83 1.59,2.03 1.65,3.59 0.06,1.58 -1.27,5.67 -3.95,12.29 -2.7,6.62 -5.52,13.04 -8.47,19.26 -2.9,6.18 -2.61,10.62 0.88,13.36 2.13,1.67 4.39,2.24 6.77,1.69 2.36,-0.56 4.05,-1.48 5.07,-2.79 0.55,-0.7 2.44,-4.96 5.69,-12.8 l 7.97,-19.09" /><path
         id="path60"
         style="fill:#ffffff;fill-opacity:1;fill-rule:nonzero;stroke:none"
         d="m 1215.76,3538.94 c -7.78,-5.46 -15.32,-7.41 -22.62,-5.88 -7.3,1.53 -13.76,6.33 -19.4,14.37 -9.48,13.54 -14.12,31.57 -13.91,54.11 0.22,22.54 4.94,37.03 14.17,43.5 4.21,2.95 9.41,3.22 15.63,0.8 6.21,-2.42 11.1,-6.15 14.67,-11.25 2.14,-3.05 3.32,-6.15 3.54,-9.28 0.23,-3.13 -0.34,-5.17 -1.69,-6.11 -3.01,-2.11 -7.26,-0.56 -12.76,4.63 -5.97,5.56 -10.29,7.41 -12.93,5.55 -5.39,-3.77 -7.29,-14.65 -5.67,-32.61 1.61,-17.98 5.5,-31.38 11.68,-40.2 6.17,-8.82 14.27,-9.71 24.28,-2.7 7.63,5.33 14.09,15.2 19.4,29.6 1.85,5.08 3.63,8.23 5.34,9.42 1.76,1.24 3.35,0.84 4.76,-1.17 2.77,-3.95 1.61,-12.17 -3.48,-24.67 -5.08,-12.48 -12.08,-21.86 -21.01,-28.11" /><path
         id="path62"
         style="fill:#ffffff;fill-opacity:1;fill-rule:nonzero;stroke:none"
         d="m 1273.2,3618.71 c -2.59,49.41 2.62,78.1 15.64,86.06 3.46,2.11 7.48,1.86 12.05,-0.76 4.57,-2.63 11.68,-10.3 21.32,-23.04 10.17,-13.61 19.6,-22.17 28.29,-25.68 4.45,-1.83 7.15,-3.51 8.1,-5.08 0.86,-1.4 0.84,-3.2 -0.05,-5.37 -0.9,-2.18 -2.26,-3.84 -4.09,-4.96 -4.22,-2.58 -9.39,-2.49 -15.53,0.26 -6.13,2.74 -13.29,9.79 -21.47,21.11 -7.8,10.67 -13.26,17.42 -16.4,20.25 -3.14,2.83 -5.9,3.52 -8.28,2.07 -5.67,-3.47 -8.03,-25.28 -7.08,-65.46 0.29,-12 0.05,-20.11 -0.72,-24.32 -0.76,-4.22 -2.15,-6.93 -4.14,-8.15 -2.38,-1.45 -4.81,-1.98 -7.29,-1.56 -2.47,0.41 -4.34,1.64 -5.6,3.7 -0.92,1.51 -2.28,4.68 -4.06,9.55 -14.32,38.36 -29.83,75.51 -46.5,111.4 -3.93,8.36 -5.72,14.43 -5.39,18.2 0.33,3.76 1.15,6.05 2.44,6.84 2.32,1.42 5.01,1.76 8.06,1.03 3.05,-0.74 5.59,-2.79 7.64,-6.12 6.08,-9.95 11.99,-25.08 17.73,-45.4 2.87,-10.05 7.03,-22.5 12.48,-37.36 5.45,-14.85 9.13,-23.85 11.04,-26.97 0.39,-0.66 0.89,-0.8 1.49,-0.44 l 0.32,0.2" /><path
         id="path64"
         style="fill:#ffffff;fill-opacity:1;fill-rule:nonzero;stroke:none"
         d="m 1495.83,3777 c -1.6,-0.79 -2.49,-9.27 -2.67,-25.44 -0.14,-13.33 -0.93,-25.5 -2.39,-36.52 -1.44,-11.02 -3.42,-17.08 -5.9,-18.2 -7.16,-3.2 -18.57,4.47 -34.2,23.05 -15.64,18.57 -26.36,34.34 -32.18,47.36 -1.89,4.22 -2.4,8.18 -1.54,11.91 0.87,3.71 2.7,6.33 5.49,7.86 0.37,0.24 1.1,0.55 2.18,0.93 1.09,0.38 2.78,0 5.1,-1.16 2.32,-1.15 3.86,-2.59 4.64,-4.31 l 0.16,-0.35 c 0.3,-0.7 1.28,-3.74 2.92,-9.1 1.16,-4 2.97,-8.7 5.39,-14.14 3.86,-8.62 9.76,-17.38 17.72,-26.32 7.95,-8.92 13.05,-12.88 15.3,-11.87 1.62,0.73 3.04,11.9 4.25,33.54 0.73,13.71 1.38,23.23 1.98,28.58 l 0.45,6.44 c 0.57,9.42 2.01,16.37 4.3,20.86 5.25,1.59 8.85,0.23 10.79,-4.11 0.64,-1.46 1.07,-2.72 1.29,-3.8 0.2,-1.1 0.63,-2.36 1.28,-3.8 4.79,-10.69 12.57,-20.65 23.36,-29.87 10.79,-9.23 17.37,-13.3 19.74,-12.24 1.73,0.77 1.73,8.13 0.01,22.07 -2.37,18.93 -3.26,33.51 -2.68,43.76 0.58,10.25 1.53,16.6 2.86,19.08 1.31,2.46 3.25,4.26 5.8,5.4 1.44,0.64 2.95,0.57 4.51,-0.21 1.57,-0.79 2.68,-1.91 3.33,-3.35 0.96,-2.15 1.3,-3.76 1.02,-4.86 -2.94,-12.63 -3.24,-30.42 -0.87,-53.37 2.07,-19.68 3.06,-32.18 2.94,-37.5 -0.11,-5.31 -0.86,-8.3 -2.25,-8.91 -6.99,-3.14 -13.86,-3.14 -20.61,-0.02 -6.73,3.13 -18.72,14.09 -35.94,32.88 -2.03,2.21 -3.9,4.12 -5.58,5.73" /><path
         id="path66"
         style="fill:#ffffff;fill-opacity:1;fill-rule:nonzero;stroke:none"
         d="m 1616.48,3793.17 c 2.13,-6.03 5.15,-10.5 9.04,-13.42 3.88,-2.93 7.92,-3.64 12.1,-2.17 8.9,3.16 16.09,11.2 21.58,24.13 5.49,12.94 6.13,25.37 1.9,37.32 -2.61,7.33 -6.44,12.68 -11.49,16.03 -5.05,3.34 -10.47,4 -16.26,1.94 -9.61,-3.4 -15.77,-12.22 -18.49,-26.45 -2.71,-14.23 -2.17,-26.7 1.62,-37.38 z m 24.73,-30.24 c -8.18,-2.89 -16.03,-2.18 -23.54,2.14 -7.51,4.32 -12.89,11.06 -16.13,20.18 -5.46,15.4 -5.67,32.42 -0.61,51.04 5.06,18.62 14.81,30.5 29.25,35.63 9.55,3.38 18.6,2.45 27.14,-2.78 8.54,-5.24 14.62,-12.94 18.22,-23.08 5.49,-15.51 4.46,-32.08 -3.1,-49.69 -7.57,-17.59 -17.98,-28.73 -31.23,-33.44" /><path
         id="path68"
         style="fill:#ffffff;fill-opacity:1;fill-rule:nonzero;stroke:none"
         d="m 1727.92,3836.39 c 0.3,1.27 0.59,3 0.88,5.19 1.4,10.69 3.05,19.23 4.96,25.62 1.91,6.39 4.24,12.64 6.98,18.78 2.75,6.13 5.47,10.97 8.17,14.51 2.7,3.54 5.3,6.23 7.81,8.05 2.51,1.81 5.07,3.09 7.68,3.85 5.31,1.53 10.08,1.17 14.35,-1.05 4.27,-2.22 7.02,-5.46 8.25,-9.73 0.54,-1.89 0.44,-3.76 -0.3,-5.63 -0.74,-1.86 -2.34,-3.14 -4.78,-3.84 -2.54,-0.75 -5.22,-0.29 -7.99,1.34 -2.85,1.62 -5.45,2.09 -7.82,1.41 -6.33,-1.84 -12.88,-12.03 -19.65,-30.59 -6.76,-18.58 -8.71,-37.44 -5.81,-56.57 0.77,-4.92 0.51,-8.38 -0.75,-10.39 -1.27,-2.03 -3.44,-3.48 -6.56,-4.37 -2.98,-0.86 -5.78,0.73 -8.39,4.79 -2.63,4.06 -5.46,11.34 -8.5,21.87 -0.82,2.85 -2.49,9.2 -5,19.02 -2.96,11.6 -4.91,21.1 -5.85,28.47 -0.15,1.2 -0.63,4.01 -1.43,8.39 -0.94,4.81 -1.34,8.22 -1.23,10.23 0.12,2 0.93,4.09 2.45,6.23 1.52,2.16 3.44,3.58 5.75,4.24 2.25,0.65 4.15,0.42 5.68,-0.69 1.54,-1.09 2.55,-2.47 3.02,-4.11 0.69,-2.38 1.05,-5.9 1.08,-10.57 -0.01,-5.2 0.12,-8.77 0.4,-10.66 0.42,-2.13 0.71,-4.38 0.88,-6.78 0.14,-2.79 1.52,-9.83 4.12,-21.14 l 0.89,-3.41 0.71,-2.46" /><path
         id="path70"
         style="fill:#ffffff;fill-opacity:1;fill-rule:nonzero;stroke:none"
         d="m 1814.79,3986.66 c 4.44,1.08 7.33,-1.23 8.7,-6.9 1.21,-5.04 1.42,-17.69 0.61,-37.95 -0.52,-12.76 0.04,-26.56 1.65,-41.42 1.61,-14.85 3.4,-26.37 5.37,-34.57 2.44,-10.14 5.51,-20.09 9.21,-29.83 0.71,-1.84 1.17,-3.2 1.37,-4.06 0.74,-3.08 0.33,-5.98 -1.23,-8.7 -1.56,-2.72 -3.51,-4.36 -5.85,-4.92 -3.27,-0.77 -6.02,0.71 -8.25,4.47 -2.24,3.76 -4.45,10.15 -6.62,19.22 -4.96,20.62 -8.62,46.77 -10.99,78.45 -2.36,31.68 -2.7,50.44 -1.01,56.31 1.68,5.88 4.03,9.18 7.04,9.9" /><path
         id="path72"
         style="fill:#ffffff;fill-opacity:1;fill-rule:nonzero;stroke:none"
         d="m 1915.91,3928.84 c -10.08,-1.87 -18.81,-10.56 -26.17,-26.07 -7.37,-15.5 -9.97,-29.04 -7.83,-40.63 1.45,-7.78 4.76,-11.2 9.92,-10.23 4.85,0.9 10.29,4.55 16.28,10.94 5.99,6.39 11.63,15.86 16.9,28.4 5.27,12.54 7.39,21.61 6.35,27.22 -0.51,2.74 -2.29,5.33 -5.35,7.76 -3.06,2.42 -6.43,3.29 -10.1,2.61 z m 20.35,-41.44 c -5.86,-14.94 -12.79,-26.91 -20.78,-35.88 -7.99,-9 -15.91,-14.22 -23.76,-15.68 -6.04,-1.12 -11.25,0.32 -15.63,4.3 -4.38,3.99 -7.28,9.84 -8.72,17.57 -2.92,15.75 0.48,33.09 10.2,52.03 9.72,18.94 21.99,29.78 36.81,32.53 6.48,1.21 13,-0.45 19.57,-4.96 l 1.74,63.51 c 0.16,4.34 1.37,7.46 3.63,9.37 2.25,1.9 4.09,2.99 5.52,3.24 4.36,0.82 7.26,-2.64 8.69,-10.37 0.26,-1.36 -0.22,-6.74 -1.45,-16.11 -2,-14.54 -3.19,-32.18 -3.56,-52.88 -0.38,-20.72 0.55,-37.1 2.79,-49.19 2.32,-12.45 6.18,-18.18 11.6,-17.17 3.49,0.65 6.88,2.47 10.19,5.47 1.35,1.4 2.71,2.23 4.08,2.49 1.99,0.37 3.24,-0.75 3.71,-3.37 0.59,-3.17 -1.51,-7.36 -6.31,-12.57 -4.79,-5.21 -10.12,-8.36 -15.98,-9.45 -10.27,-1.89 -17.24,7.05 -20.92,26.85 -0.63,3.36 -1.1,6.79 -1.42,10.27" /><path
         id="path74"
         style="fill:#ffffff;fill-opacity:1;fill-rule:nonzero;stroke:none"
         d="m 2098.62,3901.85 c 0.39,-6.39 2.06,-11.54 5,-15.4 2.94,-3.88 6.62,-5.68 11.05,-5.4 9.42,0.58 18.54,6.34 27.38,17.26 8.84,10.92 12.87,22.71 12.08,35.35 -0.48,7.77 -2.69,13.97 -6.63,18.57 -3.94,4.61 -8.97,6.73 -15.1,6.35 -10.17,-0.63 -18.52,-7.42 -25.05,-20.37 -6.52,-12.93 -9.43,-25.06 -8.73,-36.36 z m 15.47,-35.88 c -8.66,-0.54 -16.01,2.3 -22.04,8.52 -6.04,6.22 -9.35,14.17 -9.96,23.85 -1.02,16.29 3.46,32.71 13.45,49.23 9.98,16.51 22.61,25.25 37.92,26.2 10.1,0.63 18.55,-2.75 25.32,-10.12 6.78,-7.39 10.51,-16.46 11.17,-27.19 1.02,-16.44 -4.53,-32.08 -16.64,-46.92 -12.12,-14.84 -25.19,-22.71 -39.22,-23.57" /><path
         id="path76"
         style="fill:#ffffff;fill-opacity:1;fill-rule:nonzero;stroke:none"
         d="m 2262.26,3949.6 c -3.3,-0.03 -6.88,-2.2 -10.75,-6.53 -3.85,-4.34 -9.72,-14.02 -17.61,-29.09 -10.37,-20.21 -17.09,-31.71 -20.15,-34.51 -3.06,-2.83 -5.6,-4.22 -7.62,-4.24 -7.47,-0.05 -11.23,3.53 -11.28,10.75 -0.02,3.04 0.45,7.36 1.43,12.94 3.36,19.13 4.97,39.32 4.82,60.54 0,2.4 1,5.09 3.05,8.04 2.03,2.97 3.98,4.45 5.81,4.45 3.29,0.04 5.64,-0.97 7.04,-2.98 1.41,-2.02 2.14,-6.1 2.18,-12.25 0.04,-6.39 -1.77,-19.58 -5.44,-39.54 -1.23,-6.61 -1.83,-10.79 -1.82,-12.55 0,-1.02 0.26,-1.53 0.78,-1.53 0.94,0.01 5.3,7.61 13.05,22.79 7.81,15.45 14.68,26.32 20.59,32.63 5.92,6.31 12.44,9.49 19.6,9.54 5.69,0.03 10.36,-2.54 13.97,-7.7 3.62,-5.17 6.28,-14.62 8.02,-28.35 1.88,-15.64 3.54,-25.37 4.99,-29.19 1.45,-3.83 3.73,-5.72 6.84,-5.7 1.95,0.01 4.42,0.73 7.39,2.14 0.5,0.27 0.88,0.39 1.13,0.39 2.73,0.02 4.09,-1.56 4.12,-4.72 0.02,-2.79 -1.82,-5.75 -5.54,-8.92 -3.73,-3.16 -8.21,-4.76 -13.47,-4.79 -5.38,-0.04 -9.55,2.07 -12.53,6.32 -2.97,4.26 -5.38,15.66 -7.21,34.2 -1.88,18.61 -5.69,27.89 -11.39,27.86" /><path
         id="path78"
         style="fill:#ffffff;fill-opacity:1;fill-rule:nonzero;stroke:none"
         d="m 2492.72,3925.16 c -1.77,0.15 -6.91,-6.65 -15.43,-20.4 -7.01,-11.33 -13.98,-21.34 -20.91,-30.03 -6.94,-8.68 -11.76,-12.85 -14.46,-12.52 -7.79,0.95 -13.59,13.42 -17.37,37.39 -3.79,23.99 -4.81,43.04 -3.08,57.18 0.57,4.6 2.19,8.26 4.85,10.99 2.67,2.74 5.58,4.04 8.77,3.91 0.44,0 1.22,-0.11 2.34,-0.34 1.11,-0.23 2.37,-1.45 3.77,-3.63 1.39,-2.18 1.97,-4.2 1.74,-6.1 l -0.05,-0.36 c -0.09,-0.76 -0.83,-3.86 -2.2,-9.32 -1.06,-4.01 -1.96,-8.98 -2.69,-14.88 -1.14,-9.36 -0.63,-19.92 1.56,-31.68 2.19,-11.74 4.52,-17.78 6.97,-18.08 1.76,-0.22 8.75,8.61 20.96,26.51 7.72,11.38 13.21,19.18 16.48,23.44 l 3.72,5.28 c 5.35,7.77 10.16,12.99 14.45,15.64 5.32,-1.35 7.69,-4.37 7.11,-9.09 -0.19,-1.59 -0.48,-2.88 -0.86,-3.93 -0.39,-1.03 -0.67,-2.34 -0.86,-3.91 -1.44,-11.62 0.09,-24.17 4.55,-37.64 4.47,-13.47 8.01,-20.36 10.58,-20.68 1.88,-0.23 5.69,6.05 11.41,18.89 7.76,17.42 14.53,30.37 20.33,38.84 5.8,8.48 9.9,13.44 12.31,14.85 2.4,1.43 4.99,1.97 7.75,1.64 1.58,-0.2 2.83,-1.04 3.77,-2.52 0.92,-1.49 1.29,-3.01 1.1,-4.59 -0.28,-2.32 -0.82,-3.88 -1.62,-4.68 -9.06,-9.29 -18.5,-24.36 -28.34,-45.24 -8.38,-17.91 -14.01,-29.12 -16.86,-33.62 -2.85,-4.5 -5.04,-6.66 -6.54,-6.47 -7.6,0.93 -13.48,4.48 -17.64,10.64 -4.16,6.16 -8.75,21.74 -13.79,46.73 -0.59,2.94 -1.19,5.53 -1.82,7.78" /><path
         id="path80"
         style="fill:#ffffff;fill-opacity:1;fill-rule:nonzero;stroke:none"
         d="m 2604.6,3876.61 c -1.29,-6.26 -1.03,-11.65 0.8,-16.16 1.83,-4.5 4.9,-7.21 9.25,-8.11 9.24,-1.89 19.56,1.28 30.95,9.51 11.38,8.22 18.35,18.55 20.89,30.95 1.57,7.63 1.06,14.2 -1.53,19.67 -2.6,5.48 -6.9,8.83 -12.92,10.07 -9.99,2.05 -19.81,-2.31 -29.5,-13.1 -9.68,-10.78 -15.66,-21.71 -17.94,-32.83 z m 5.54,-38.66 c -8.5,1.75 -14.85,6.41 -19.05,13.99 -4.19,7.59 -5.32,16.13 -3.37,25.61 3.29,16.01 11.91,30.68 25.86,44.01 13.96,13.33 28.44,18.46 43.45,15.37 9.93,-2.04 17.19,-7.5 21.8,-16.4 4.61,-8.89 5.83,-18.62 3.66,-29.17 -3.31,-16.13 -12.75,-29.76 -28.33,-40.93 -15.58,-11.14 -30.25,-15.3 -44.02,-12.48" /><path
         id="path82"
         style="fill:#ffffff;fill-opacity:1;fill-rule:nonzero;stroke:none"
         d="m 2716.76,3851.7 c -1.68,-6.19 -1.75,-11.58 -0.22,-16.18 1.54,-4.63 4.45,-7.51 8.72,-8.67 9.11,-2.48 19.6,0.04 31.49,7.54 11.87,7.5 19.48,17.35 22.8,29.58 2.04,7.52 1.93,14.1 -0.3,19.72 -2.24,5.63 -6.33,9.25 -12.26,10.86 -9.84,2.67 -19.93,-1.07 -30.26,-11.21 -10.34,-10.16 -17,-20.71 -19.97,-31.64 z m 3.1,-38.94 c -8.38,2.27 -14.41,7.32 -18.12,15.16 -3.71,7.83 -4.3,16.43 -1.76,25.78 4.28,15.76 13.8,29.86 28.56,42.28 14.77,12.44 29.55,16.65 44.33,12.63 9.79,-2.66 16.69,-8.57 20.73,-17.74 4.04,-9.17 4.65,-18.96 1.82,-29.35 -4.31,-15.89 -14.59,-28.9 -30.84,-39.06 -16.25,-10.15 -31.15,-13.39 -44.72,-9.7" /><path
         id="path84"
         style="fill:#ffffff;fill-opacity:1;fill-rule:nonzero;stroke:none"
         d="m 2883.3,3855.31 c -9.7,3.35 -21.58,0.1 -35.64,-9.74 -14.06,-9.85 -23.02,-20.32 -26.87,-31.46 -2.6,-7.48 -1.41,-12.07 3.57,-13.8 4.66,-1.62 11.18,-1.13 19.56,1.47 8.37,2.6 17.94,8.04 28.72,16.35 10.78,8.3 17.11,15.15 18.97,20.52 0.91,2.64 0.64,5.76 -0.83,9.39 -1.45,3.62 -3.95,6.04 -7.48,7.27 z m -2.78,-46.09 c -12.48,-10.09 -24.42,-17.07 -35.8,-20.93 -11.39,-3.87 -20.85,-4.5 -28.4,-1.88 -5.8,2 -9.62,5.82 -11.46,11.46 -1.84,5.62 -1.47,12.15 1.1,19.57 5.24,15.14 16.76,28.54 34.57,40.2 17.81,11.67 33.84,15.03 48.08,10.11 6.22,-2.16 11.08,-6.83 14.55,-14 l 32.89,54.36 c 2.29,3.7 4.89,5.82 7.79,6.36 2.9,0.53 5.04,0.57 6.41,0.09 4.18,-1.46 5,-5.88 2.44,-13.31 -0.46,-1.32 -3.54,-5.75 -9.23,-13.29 -8.94,-11.66 -18.67,-26.4 -29.23,-44.23 -10.57,-17.82 -17.85,-32.52 -21.87,-44.14 -4.15,-11.97 -3.61,-18.85 1.6,-20.65 3.34,-1.17 7.2,-1.27 11.56,-0.3 1.86,0.57 3.45,0.62 4.77,0.16 1.92,-0.66 2.44,-2.24 1.58,-4.76 -1.06,-3.05 -4.97,-5.66 -11.71,-7.81 -6.74,-2.16 -12.92,-2.27 -18.55,-0.31 -9.87,3.4 -11.52,14.64 -4.93,33.67 1.12,3.23 2.39,6.45 3.84,9.63" /><path
         id="path86"
         style="fill:#ffffff;fill-opacity:1;fill-rule:nonzero;stroke:none"
         d="m 2959.23,3787.54 c 30.95,4.28 48.3,10.9 52.05,19.83 1.47,3.51 0.63,5.92 -2.51,7.24 -5.38,2.27 -13.09,0.87 -23.14,-4.18 -10.06,-5.04 -18.86,-12.67 -26.4,-22.89 z m 55.11,-39.28 c -2.5,-5.96 -10.8,-10.9 -24.87,-14.88 -14.08,-3.98 -26.72,-3.61 -37.93,1.12 -9.39,3.95 -15.48,9.78 -18.25,17.47 -2.77,7.7 -2.08,16.51 2.1,26.42 7.03,16.7 19.35,30.21 36.95,40.52 17.6,10.32 33.09,12.67 46.46,7.04 4.37,-1.83 7.34,-4.78 8.91,-8.8 1.58,-4.04 1.51,-8.05 -0.18,-12.08 -3.79,-8.98 -11.82,-15.74 -24.09,-20.27 -12.29,-4.52 -27.48,-7.64 -45.59,-9.37 -3.7,-0.3 -6.07,-1.69 -7.13,-4.2 -2.04,-4.85 -2.27,-9.33 -0.69,-13.42 1.56,-4.1 5.1,-7.3 10.59,-9.61 12.54,-5.29 28.28,-3.73 47.2,4.66 2.74,1.11 4.6,1.46 5.6,1.05 1.86,-0.79 2.17,-2.67 0.92,-5.65" /><path
         id="path88"
         style="fill:#ffffff;fill-opacity:1;fill-rule:nonzero;stroke:none"
         d="m 3113.27,3745.68 c -2.95,1.46 -7.13,1.14 -12.54,-0.96 -5.41,-2.11 -15.03,-8.09 -28.88,-17.95 -18.41,-13.32 -29.61,-20.52 -33.61,-21.65 -3.99,-1.11 -6.89,-1.21 -8.71,-0.32 -6.68,3.34 -8.41,8.25 -5.18,14.71 1.36,2.71 3.74,6.34 7.13,10.87 11.67,15.56 22.25,32.82 31.74,51.79 1.08,2.15 3.2,4.09 6.36,5.79 3.15,1.73 5.56,2.17 7.2,1.35 2.94,-1.47 4.59,-3.43 4.93,-5.87 0.33,-2.42 -0.87,-6.4 -3.61,-11.88 -2.87,-5.74 -10.45,-16.66 -22.78,-32.81 -4.08,-5.33 -6.51,-8.78 -7.3,-10.37 -0.46,-0.9 -0.46,-1.47 0,-1.7 0.85,-0.42 8.16,4.38 21.96,14.41 13.97,10.22 25.01,16.8 33.14,19.75 8.12,2.95 15.4,2.82 21.79,-0.39 5.1,-2.54 8.09,-6.93 8.97,-13.18 0.88,-6.25 -1.03,-15.88 -5.7,-28.91 -5.41,-14.79 -8.34,-24.2 -8.78,-28.28 -0.44,-4.06 0.74,-6.79 3.51,-8.17 1.76,-0.88 4.28,-1.37 7.56,-1.45 0.57,0 0.97,-0.05 1.2,-0.16 2.43,-1.23 2.94,-3.25 1.52,-6.09 -1.25,-2.49 -4.23,-4.3 -8.98,-5.42 -4.75,-1.15 -9.47,-0.53 -14.17,1.82 -4.82,2.4 -7.59,6.18 -8.31,11.32 -0.72,5.14 2.3,16.39 9.07,33.75 6.75,17.45 7.57,27.45 2.47,30" /><path
         id="path90"
         style="fill:#ffffff;fill-opacity:1;fill-rule:nonzero;stroke:none"
         d="m 3260.58,3601.42 c 2.2,3.47 0.45,10.15 -5.27,20.03 -7.3,12.47 -11.8,21.58 -13.49,27.35 -1.69,5.77 -1.23,10.72 1.39,14.83 6.77,10.62 17.72,16.04 32.83,16.25 15.11,0.22 26.03,-1.83 32.76,-6.12 4.33,-2.75 6.99,-5.5 7.99,-8.23 0.99,-2.75 0.32,-5.96 -2.03,-9.65 -1.06,-1.65 -2.66,-2.62 -4.83,-2.89 -2.17,-0.27 -3.65,-0.16 -4.45,0.36 -0.59,0.38 -1.48,1.51 -2.68,3.39 -1.23,1.85 -2.11,2.93 -2.64,3.28 -2.68,1.69 -9.34,3.2 -19.99,4.51 -10.67,1.3 -17.55,-0.5 -20.69,-5.42 -1.9,-2.99 -2.19,-6.62 -0.85,-10.88 1.33,-4.27 4.62,-10.55 9.85,-18.84 4.2,-6.73 7.06,-12.88 8.57,-18.46 1.5,-5.58 0.85,-10.6 -1.97,-15.03 -5.21,-8.17 -14.92,-10.97 -29.14,-8.42 -14.2,2.56 -26.44,7.11 -36.69,13.64 -8.65,5.52 -11.12,11.22 -7.37,17.09 1.29,2.02 3.22,2.9 5.79,2.63 2.55,-0.29 4.82,-1.06 6.8,-2.32 0.8,-0.51 2.15,-1.74 4.06,-3.71 1.84,-1.93 3.12,-3.11 3.81,-3.56 5.93,-3.77 12.91,-6.83 20.96,-9.18 8.04,-2.34 13.8,-2.55 17.28,-0.65" /><path
         id="path92"
         style="fill:#ffffff;fill-opacity:1;fill-rule:nonzero;stroke:none"
         d="m 3309.55,3576.82 c 44.56,21.51 73.03,27.79 85.41,18.87 3.29,-2.37 4.6,-6.17 3.96,-11.41 -0.66,-5.23 -4.98,-14.74 -13,-28.57 -8.61,-14.64 -12.85,-26.65 -12.75,-36.02 0.05,-4.8 -0.46,-7.95 -1.53,-9.42 -0.97,-1.35 -2.63,-2.03 -4.98,-2.05 -2.35,-0.02 -4.4,0.61 -6.15,1.87 -4.01,2.89 -5.93,7.69 -5.77,14.41 0.16,6.71 3.87,16.03 11.15,27.96 6.83,11.32 10.95,18.98 12.34,22.95 1.4,4 0.97,6.81 -1.3,8.45 -5.39,3.89 -26.42,-2.38 -63.09,-18.8 -10.96,-4.91 -18.53,-7.82 -22.71,-8.75 -4.19,-0.92 -7.22,-0.7 -9.13,0.67 -2.25,1.63 -3.67,3.67 -4.25,6.12 -0.57,2.44 -0.16,4.63 1.24,6.59 1.05,1.44 3.45,3.92 7.24,7.44 29.84,28.06 58.09,56.72 84.74,85.99 6.19,6.86 11.09,10.86 14.69,12 3.61,1.16 6.02,1.29 7.26,0.39 2.21,-1.58 3.55,-3.93 4.06,-7.01 0.5,-3.1 -0.4,-6.25 -2.69,-9.42 -6.82,-9.47 -18.48,-20.76 -35,-33.92 -8.15,-6.53 -18.02,-15.18 -29.62,-25.96 -11.59,-10.76 -18.46,-17.64 -20.61,-20.62 -0.45,-0.62 -0.38,-1.13 0.18,-1.54 l 0.31,-0.22" /><path
         id="path94"
         style="fill:#ffffff;fill-opacity:1;fill-rule:nonzero;stroke:none"
         d="m 3412.37,3504.38 c -4.07,-4.95 -6.35,-9.82 -6.86,-14.67 -0.5,-4.83 0.95,-8.66 4.37,-11.48 7.28,-6.01 17.87,-8.04 31.79,-6.11 13.93,1.94 24.91,7.79 32.98,17.56 4.96,6.01 7.58,12.03 7.85,18.09 0.27,6.05 -1.96,11.05 -6.69,14.95 -7.87,6.48 -18.6,7.24 -32.21,2.26 -13.6,-5 -24.01,-11.87 -31.23,-20.6 z m -13.22,-36.76 c -6.69,5.52 -10.11,12.61 -10.26,21.28 -0.16,8.66 2.85,16.74 9.02,24.2 10.4,12.61 24.88,21.53 43.46,26.78 18.57,5.23 33.77,2.98 45.59,-6.78 7.82,-6.44 11.67,-14.69 11.57,-24.71 -0.1,-10.01 -3.58,-19.18 -10.42,-27.48 -10.49,-12.69 -25.22,-20.32 -44.2,-22.89 -19,-2.55 -33.91,0.64 -44.76,9.6" /><path
         id="path96"
         style="fill:#ffffff;fill-opacity:1;fill-rule:nonzero;stroke:none"
         d="m 3510.35,3440.42 c 30.53,-6.61 49.09,-6.37 55.69,0.72 2.59,2.78 2.63,5.34 0.13,7.67 -4.27,3.96 -11.98,5.32 -23.16,4.04 -11.18,-1.27 -22.07,-5.42 -32.66,-12.43 z m 38.23,-55.83 c -4.4,-4.72 -13.88,-6.54 -28.47,-5.43 -14.58,1.12 -26.32,5.82 -35.23,14.1 -7.46,6.95 -11.17,14.51 -11.13,22.69 0.05,8.18 3.73,16.21 11.07,24.09 12.34,13.26 28.55,21.7 48.63,25.35 20.08,3.63 35.42,0.49 46.04,-9.38 3.48,-3.23 5.26,-7.01 5.34,-11.33 0.09,-4.33 -1.35,-8.09 -4.33,-11.29 -6.64,-7.14 -16.51,-10.72 -29.59,-10.73 -13.08,-0.03 -28.42,2.27 -46.02,6.88 -3.57,0.99 -6.3,0.48 -8.14,-1.5 -3.59,-3.86 -5.34,-7.98 -5.28,-12.37 0.07,-4.38 2.28,-8.6 6.65,-12.67 9.97,-9.27 25.27,-13.22 45.92,-11.85 2.95,0.1 4.83,-0.22 5.62,-0.94 1.48,-1.39 1.12,-3.25 -1.08,-5.62" /><path
         id="path98"
         style="fill:#ffffff;fill-opacity:1;fill-rule:nonzero;stroke:none"
         d="m 3591.04,3326.11 c 2.95,2.86 2.79,9.77 -0.48,20.7 -4.22,13.82 -6.49,23.73 -6.79,29.73 -0.31,6.01 1.29,10.71 4.78,14.1 9.06,8.77 20.96,11.5 35.71,8.21 14.75,-3.31 24.9,-7.82 30.46,-13.54 3.56,-3.69 5.51,-6.99 5.86,-9.88 0.33,-2.89 -1.08,-5.85 -4.21,-8.9 -1.41,-1.37 -3.21,-1.93 -5.36,-1.69 -2.18,0.23 -3.6,0.69 -4.25,1.38 -0.49,0.49 -1.1,1.8 -1.82,3.91 -0.78,2.09 -1.39,3.34 -1.82,3.8 -2.21,2.28 -8.34,5.28 -18.4,9.02 -10.07,3.74 -17.19,3.58 -21.37,-0.47 -2.56,-2.47 -3.67,-5.94 -3.36,-10.39 0.31,-4.46 2.05,-11.33 5.22,-20.61 2.52,-7.52 3.87,-14.16 4.05,-19.94 0.18,-5.79 -1.62,-10.51 -5.39,-14.16 -6.97,-6.74 -17.06,-7.22 -30.3,-1.44 -13.23,5.78 -24.07,13.04 -32.53,21.77 -7.14,7.37 -8.22,13.49 -3.21,18.32 1.73,1.68 3.8,2.09 6.23,1.22 2.42,-0.87 4.46,-2.14 6.09,-3.83 0.66,-0.67 1.69,-2.19 3.08,-4.54 1.36,-2.3 2.32,-3.76 2.89,-4.35 4.9,-5.05 10.98,-9.64 18.26,-13.79 7.28,-4.15 12.84,-5.69 16.66,-4.63" /><path
         id="path100"
         style="fill:#ff0000;fill-opacity:1;fill-rule:nonzero;stroke:none"
         d="m 3997.9,2110 h -0.27 l 0.27,2.9 z m 10,120 h 3.16 c -1.21,40 -80.35,72.19 -177.85,72.19 -97.49,0 -176.62,-32.19 -177.83,-72.19 h 2.52 v -130.99 l 156.8,-1.97 c 1.99,-4.76 3.8,-9.66 5.38,-14.71 0.02,-0.06 0.04,-0.12 0.06,-0.18 3.87,0.47 7.6,1 11.18,1.56 3.53,4.68 7.52,8.95 11.74,12.97 l 153.11,-1.92 c 4.23,-3.76 8.06,-7.88 11.73,-12.15 V 2230" /><path
         id="path102"
         style="fill:#ff0000;fill-opacity:1;fill-rule:nonzero;stroke:none"
         d="m 4107.9,2370 h -519.53 l -265.29,86.62 2.4,40.45 242.99,-77.07 h 9.43 v 301.46 l -253.53,83.73 3.45,40.64 456.55,-117.26 200.42,-53.3 -0.94,-48.9 -203.22,46.78 0.95,14.78 -143.68,29.84 V 2420 h 470 z m -1146.02,0 H 2447.9 v 50 h 470 v 297.77 l -146.46,-29.84 -1.58,-14.78 -203.39,-46.78 -1.09,48.9 200.24,53.3 456.22,117.26 1.82,-40.64 -255.76,-83.73 V 2420 h 13.89 l 242.99,76.96 2.4,-39.94 z m -667.29,129.25 c -0.46,-6.36 -1.99,-12.71 -3.7,-18.88 -2.56,-9.25 -6.6,-17.89 -12.35,-25.67 -4.67,-6.34 -9.14,-12.84 -13.83,-19.16 -1.99,-2.67 -4.29,-5.15 -6.6,-7.54 -5.27,-5.43 -10.67,-10.75 -16.02,-16.1 -9.58,-9.6 -20.01,-18.21 -31.36,-25.58 -8.02,-5.21 -16.53,-9.65 -24.83,-14.42 -2.46,-1.41 -4.87,-2.91 -7.45,-4.07 -1.12,-0.49 -2.86,-0.69 -3.85,-0.16 -8.56,4.68 -17.23,9.23 -25.47,14.45 -9.26,5.86 -18.15,12.28 -27.09,18.61 -10.76,7.63 -20.45,16.58 -29.15,26.43 -6.59,7.47 -12.45,15.68 -18.02,23.96 -4.37,6.51 -8.34,13.41 -11.51,20.57 -3.62,8.16 -6.07,16.79 -7.14,25.8 -1.85,15.52 0.36,30.43 6.49,44.68 6.48,15.12 17.18,26.02 32.52,32.58 11.48,4.89 23.31,6.9 35.5,5.67 5.05,-0.49 10.09,-2.68 14.76,-4.89 10.18,-4.82 18.27,-12.3 24.91,-21.38 0.76,-1.02 2,-1.69 3.26,-2.72 4.71,4.38 9.06,8.92 13.91,12.83 13.24,10.67 27.9,18.04 45.51,16.23 6.23,-0.64 12.42,-2.41 18.43,-4.3 6.86,-2.14 13.19,-5.45 18.82,-10.08 6.33,-5.2 11.2,-11.53 15.12,-18.62 4.22,-7.64 8.09,-15.54 8.86,-24.32 0.68,-7.93 0.86,-15.99 0.28,-23.92 z m -0.89,-373.67 -47.37,-47.37 -71.07,71.06 -71.07,-71.06 -47.38,47.37 71.06,71.08 -71.06,71.06 47.38,47.38 71.07,-71.07 71.07,71.07 47.37,-47.38 -71.06,-71.06 z m -236.89,711.15 47.37,47.38 71.08,-71.07 71.06,71.07 47.38,-47.38 -71.07,-71.07 71.07,-71.07 -47.38,-47.38 -71.06,71.07 -71.07,-71.07 -47.38,47.38 71.07,71.07 z m 572.57,103.56 c -293.42,0 -711.14,344.73 -850.78,165.57 -4.15,-5.33 1.1,-12.81 1.1,-19.27 0,-227.7 -415,-412.29 -926.93,-412.29 -311.993,0 -362.457,295.46 -492.754,137.73 -81.68,-98.87 -75.297,-405.69 15.336,-669.35 12.929,1.82 25.972,2.85 39.011,2.85 13.371,0 26.969,-0.97 40.418,-2.9 14.821,-2.12 29.199,-5.81 43.117,-10.95 v 344.51 c 0,2.46 90,46.71 90,46.71 v 52.38 c 0,1.15 7.118,4.72 8.774,4.72 h 110.223 c 0.593,0 1.003,-5.78 1.003,-7.12 v -49.98 c 0,0 90,-59.98 90,-60.68 v -511.76 c 0.829,-1.63 1.711,-3.23 2.473,-4.89 3.461,0.22 6.973,0.33 10.531,0.33 2.34,0 4.668,-0.1 6.996,-0.2 V 2340 h 39.836 c 1.469,0 60.164,132.41 60.164,132.41 v 84.76 c 0,0.23 1.743,0.39 3.036,0.38 24.156,-0.08 47.836,-0.15 72,-0.17 3.406,0 4.964,-0.9 4.964,-2.63 v -82.34 L 1070.87,2340 h 37.03 v -392.58 l 1.64,-0.05 2.85,-0.25 c 8.29,-0.7 16.87,-2.15 25.51,-3.95 V 2460 h 50 v 15.99 c 30,5.41 44.11,33.35 51.85,64.5 2.84,11.46 6.64,23.6 10.31,34.56 15.71,46.98 54.87,76.85 94.66,73.26 42.46,-3.84 77.18,-37.76 88.09,-87.76 4.58,-20.97 9.16,-41.79 20.56,-59.17 10.67,-16.23 24.32,-26.44 41.81,-25.8 0.3,0.01 2.72,0 2.72,0.02 V 2460 h 49.88 c 0.13,0 0.23,-5.42 0.24,-9.51 0.07,-25.29 0.94,-378.74 1.32,-533.62 1.77,-0.07 3.72,-0.12 6.02,-0.12 4.7,0 8.84,0.04 12.54,0.11 V 2440 h 50 v 70 h 50 v 50 h 40 v 60 h 40 v -60 h 40 v -50 h 60 v -70 h 40 c 0,-30 0,-59.67 0,-91.28 0,-217.11 0,-247.05 0,-413.33 17.86,7.89 37.55,12.53 58.94,13.55 2.56,0.12 5.04,0.18 7.5,0.18 26.71,0 52.68,-6.66 77.19,-19.8 24.38,-13.1 56.51,-39.86 72.05,-93.33 2.9,-9.91 4.61,-20.3 5.12,-31.36 0.94,-0.28 1.88,-0.58 2.81,-0.89 26.29,-8.83 48.28,-26.77 62.27,-50.65 2.28,-3.92 4.31,-7.95 6.08,-12.03 11.38,39.75 29.35,80.61 53.63,121.56 25.45,42.95 57.64,83.38 95.7,120.18 34.62,33.48 74.54,63.15 118.71,88.43 V 2360 h 520 v -1.69 l 260.87,83.19 -2.9,-39.81 -247.97,-83.26 v -244.64 c 12.29,-9.16 24.08,-18.97 35.06,-29.94 38.12,-38.14 66.66,-87.05 85.49,-145.46 7.8,9.35 18.01,18.43 31.46,26.42 21.27,12.58 45.58,19.61 72.38,20.97 2.71,0.12 5.3,0.19 7.9,0.19 15.92,0 31.83,-2.63 47.55,-7.37 9.02,54.65 38.25,87.75 62.22,106.24 28.21,21.73 62.89,36.08 103.13,42.71 24.14,3.98 50.62,6 78.75,6 7.2,0 14.59,-0.13 22.13,-0.39 4.08,-0.15 8.18,-0.3 12.3,-0.48 0.42,2.47 0.99,5.11 1.66,7.84 l 29.97,-0.37 v 218.28 l -244.36,83.26 0.73,39.81 263.63,-83.19 v 1.69 h 520 v -175.4 c 11.06,2.89 22.6,4.8 34.77,5.4 2.65,0.12 5.22,0.18 7.79,0.18 6.67,0 13.32,-0.49 19.94,-1.31 45.03,69.8 72.93,143.39 81.1,219.43 154.49,1436.38 -702.78,531.99 -1622.12,531.99" /><path
         id="path104"
         style="fill:#ff0000;fill-opacity:1;fill-rule:nonzero;stroke:none"
         d="m 2897.9,2230 h -3.02 c -1.21,40 -80.34,72.19 -177.84,72.19 -97.5,0 -176.64,-32.19 -177.85,-72.19 h -1.29 v -117.78 c 0.79,0.27 1.56,0.58 2.35,0.85 l 357.65,-4.5 V 2230" /><path
         id="path106"
         style="fill:#0071bc;fill-opacity:1;fill-rule:evenodd;stroke:none"
         d="m 765.824,1355.38 c -3.23,-0.49 -6.469,-0.92 -9.715,-1.2 -3.449,-0.31 -6.906,-0.52 -10.379,-0.58 -1.914,-0.06 -3.812,-0.1 -5.687,-0.1 -3.461,0 -6.902,0.12 -10.32,0.35 -23.946,1.6 -46.758,8.81 -66.52,21.1 -19.762,12.25 -35.894,28.89 -48.461,49.07 -6.054,-8.35 -12.054,-16.37 -17.965,-23.96 -44.441,-58.29 -91.816,-108.23 -140.222,-147.68 -8.059,-6.47 -16.125,-12.53 -24.2,-18.43 -1.996,-1.45 -3.98,-2.88 -5.968,-4.3 -8.102,-5.76 -16.207,-11.34 -24.321,-16.52 77.614,-169.99 177.606,-327.689 296.133,-469.38 4.871,11.109 10.235,22.109 16.43,32.922 14.844,25.879 33.226,50.316 54.648,72.629 18.243,19.051 40.504,36.969 66.094,53.179 -0.945,11.668 -1.07,23.43 -0.359,35.258 1.851,31.301 9.148,62.322 21.668,92.182 12.758,29.8 29.863,56.53 51.125,80.11 0.105,0.13 0.23,0.23 0.34,0.36 -53.915,77.21 -101.575,159.11 -142.11,245.01 -0.066,-0.01 -0.14,-0.02 -0.211,-0.02" /><path
         id="path108"
         style="fill:#0071bc;fill-opacity:1;fill-rule:nonzero;stroke:none"
         d="m 645.469,1697.02 c 4.199,-1.59 6.82,-4.34 7.883,-8.28 1.043,-3.94 0.257,-8.01 -2.368,-12.21 -9.453,-18.91 -19.695,-38.09 -30.726,-57.51 -11.024,-19.44 -22.328,-38.48 -33.871,-57.12 -11.559,-18.64 -23.117,-36.5 -34.664,-53.57 -11.555,-17.07 -22.844,-32.69 -33.875,-46.87 -40.446,-53.04 -81.93,-96.89 -124.469,-131.56 -39.922,-32.03 -79.313,-55.15 -118.168,-69.33 -13.668,-5.77 -27.969,-9.97 -42.938,-12.6 -14.968,-2.62 -29.543,-3.94 -43.722,-3.94 -16.813,0 -33.356,2.11 -49.629,6.31 -16.285,4.21 -31.258,10.76 -44.9025,19.68 -24.1679,14.18 -43.332,32.57 -57.5117,55.15 -14.1797,22.59 -24.1484,47.15 -29.93358,73.66 -5.773439,26.53 -7.7461,54.22 -5.910157,83.11 1.847657,28.89 6.437497,56.73 13.785137,83.5 13.125,46.22 27.5742,89.15 43.3281,128.81 15.7579,39.65 34,76.67 54.7497,111.09 20.743,34.38 44.243,66.95 70.508,97.67 26.258,30.73 56.195,60.28 89.813,88.64 11.023,9.45 25.597,18.9 43.718,28.35 18.122,9.46 37.813,16.55 59.086,21.27 21.274,4.73 42.938,5.51 64.993,2.37 22.058,-3.15 42.539,-12.87 61.449,-29.14 14.699,-12.62 26.515,-30.86 35.449,-54.77 8.922,-23.9 13.395,-49.63 13.395,-77.2 0,-27.56 -5.122,-55.42 -15.368,-83.5 -10.238,-28.11 -26.918,-52.38 -50.023,-72.87 -7.359,-6.31 -17.07,-8.54 -29.145,-6.7 -12.089,1.83 -23.242,5.78 -33.48,11.81 -10.246,6.04 -17.727,13.13 -22.453,21.27 -4.727,8.15 -3.156,15.38 4.726,21.67 14.7,11.56 27.696,26.52 38.993,44.91 11.292,18.38 20.089,37.55 26.394,57.51 6.305,19.96 9.711,39.25 10.238,57.91 0.52,18.63 -2.363,33.98 -8.664,46.07 -5.785,9.98 -15.238,13.79 -28.363,11.43 -13.129,-2.37 -28.754,-9.98 -46.867,-22.85 -18.121,-12.88 -37.692,-30.33 -58.696,-52.39 -21.007,-22.05 -42.023,-47.79 -63.019,-77.21 -15.758,-22.05 -30.469,-45.82 -44.117,-71.28 -13.668,-25.48 -25.875,-50.69 -36.637,-75.63 -10.766,-24.96 -20.223,-48.98 -28.359,-72.09 -8.149,-23.11 -14.575,-43.59 -19.301,-61.44 -9.453,-34.66 -14.18,-66.97 -14.18,-96.9 0,-29.94 3.805,-56.33 11.426,-79.18 7.605,-22.84 18.77,-41.47 33.48,-55.93 14.7,-14.44 32.028,-23.37 51.993,-26.78 19.953,-3.41 42.148,-0.91 66.57,7.48 24.422,8.41 50.539,23.9 78.383,46.48 21,17.34 42.406,37.81 64.207,61.45 21.789,23.63 43.328,49.75 64.601,78.39 21.27,28.61 42.004,59.34 62.231,92.16 20.215,32.83 39.515,67.08 57.906,102.81 5.242,9.45 12.602,12.08 22.055,7.89" /><path
         id="path110"
         style="fill:#0071bc;fill-opacity:1;fill-rule:nonzero;stroke:none"
         d="m 650.195,1684.4 c -1.578,-3.15 -4.078,-5.25 -7.484,-6.3 -3.426,-1.05 -6.574,-1.05 -9.453,0 -2.891,1.05 -5.254,3.02 -7.09,5.91 -1.836,2.88 -1.969,6.42 -0.398,10.64 1.578,4.73 4.46,11.94 8.668,21.66 4.199,9.71 8.394,19.95 12.605,30.73 4.195,10.76 8.395,21.27 12.605,31.5 4.2,10.25 7.09,18.78 8.668,25.61 -12.089,5.78 -22.457,14.97 -31.121,27.57 -8.664,12.6 -12.996,25.22 -12.996,37.82 0,16.27 4.196,30.19 12.602,41.75 8.394,11.55 21.004,17.33 37.812,17.33 10.504,0 19.563,-4.34 27.184,-13 7.605,-8.66 11.68,-19.03 12.207,-31.12 0,-6.83 -0.391,-16.28 -1.184,-28.36 -0.785,-12.08 -2.234,-22.05 -4.328,-29.93 2.621,-2.1 6.164,-3.42 10.633,-3.94 4.461,-0.53 9.316,-0.79 14.574,-0.79 11.543,0 20.61,1.31 27.18,3.94 6.562,2.62 12.211,5.39 16.937,8.28 4.727,2.87 9.454,5.63 14.18,8.26 4.727,2.62 11.031,3.94 18.906,3.94 10.504,0 21,-2.63 31.516,-7.88 10.496,-5.25 18.117,-15.5 22.848,-30.72 4.722,-15.24 3.933,-33.75 -2.368,-55.54 -6.3,-21.79 -15.105,-44.51 -26.39,-68.14 -11.305,-23.63 -23.379,-47.01 -36.238,-70.12 -12.875,-23.11 -23.633,-43.72 -32.301,-61.83 -8.668,-18.13 -13.66,-32.57 -14.965,-43.34 -1.32,-10.77 4.062,-15.63 16.144,-14.57 4.731,0.51 11.29,4.73 19.7,12.6 8.394,7.88 17.59,17.99 27.574,30.33 9.965,12.34 20.211,26.13 30.723,41.36 10.496,15.23 20.484,30.45 29.933,45.7 9.453,15.22 17.848,29.65 25.211,43.33 7.352,13.65 12.606,24.94 15.754,33.86 1.574,4.2 4.199,6.83 7.879,7.89 3.668,1.04 7.09,1.04 10.238,0 3.156,-1.06 5.641,-3.16 7.488,-6.31 1.832,-3.14 1.7,-6.57 -0.394,-10.23 -4.211,-8.95 -10.242,-21.15 -18.121,-36.64 -7.875,-15.5 -17.207,-32.04 -27.965,-49.63 -10.773,-17.61 -22.449,-35.33 -35.059,-53.17 -12.601,-17.86 -25.601,-34.15 -38.996,-48.85 -13.39,-14.71 -26.918,-26.79 -40.57,-36.24 -13.66,-9.45 -26.785,-14.18 -39.391,-14.18 -10.511,-0.53 -19.566,1.58 -27.175,6.31 -7.622,4.72 -13.789,11.41 -18.516,20.09 -4.727,8.66 -7.875,19.16 -9.453,31.51 -1.578,12.33 -1.578,25.59 0,39.77 2.094,20.49 7.09,42.28 14.972,65.4 7.875,23.1 16.54,45.81 25.997,68.14 9.453,22.31 18.636,43.19 27.57,62.63 8.922,19.42 15.484,35.97 19.691,49.63 -11.027,-4.2 -23.508,-6.7 -37.414,-7.48 -13.926,-0.79 -27.711,0.65 -41.363,4.33 -1.57,-3.68 -4.332,-10.38 -8.273,-20.1 -3.938,-9.71 -8.27,-20.21 -12.997,-31.5 -4.726,-11.31 -9.453,-22.32 -14.179,-33.09 -4.727,-10.77 -8.668,-19.04 -11.817,-24.82" /><path
         id="path112"
         style="fill:#0071bc;fill-opacity:1;fill-rule:nonzero;stroke:none"
         d="m 1116.57,1783.67 c 0,4.2 1.18,8.13 3.54,11.81 2.37,3.67 5.38,6.83 9.06,9.46 -2.63,6.3 -6.83,9.45 -12.6,9.45 -7.37,0.52 -15.5,-2.75 -24.43,-9.84 -8.93,-7.1 -18.51,-17.34 -28.75,-30.74 -10.24,-13.39 -20.88,-29.93 -31.91,-49.63 -11.03,-19.68 -22.05,-41.62 -33.082,-65.78 -6.832,-15.23 -12.48,-31.64 -16.937,-49.23 -4.469,-17.6 -6.969,-34.4 -7.484,-50.42 -0.532,-16.02 1.046,-30.07 4.722,-42.14 3.672,-12.09 10.246,-19.97 19.699,-23.64 7.352,-3.15 15.092,-2.36 23.242,2.37 8.14,4.72 16.27,12.07 24.42,22.06 8.13,9.97 16.54,22.05 25.21,36.23 8.67,14.18 17.06,29.01 25.21,44.52 8.13,15.48 16.02,30.98 23.63,46.47 7.61,15.48 14.84,29.8 21.67,42.94 7.35,17.33 14.57,33.73 21.66,49.23 7.09,15.49 13,29.41 17.73,41.75 4.72,12.34 7.87,22.85 9.45,31.52 1.58,8.67 0.79,14.57 -2.36,17.72 -3.68,3.15 -1.97,6.82 5.12,11.03 7.09,4.2 15.88,6.57 26.39,7.09 10.5,0.52 21.39,-1.84 32.69,-7.09 11.29,-5.25 19.3,-15.76 24.03,-31.51 4.73,-15.24 3.94,-33.75 -2.36,-55.54 -6.31,-21.79 -15.11,-44.51 -26.4,-68.14 -11.29,-23.63 -23.37,-47.01 -36.24,-70.12 -12.87,-23.11 -23.63,-43.72 -32.3,-61.83 -8.66,-18.13 -13.66,-32.57 -14.96,-43.34 -1.32,-10.77 4.06,-15.63 16.15,-14.57 4.72,0.51 11.29,4.73 19.69,12.6 8.4,7.88 17.59,17.99 27.58,30.33 9.97,12.34 20.34,26.13 31.11,41.36 10.76,15.23 20.75,30.45 29.94,45.7 9.18,15.22 17.45,29.65 24.82,43.33 7.34,13.65 12.6,24.94 15.75,33.86 1.57,4.2 4.2,6.83 7.88,7.89 3.67,1.04 7.09,1.04 10.24,0 3.15,-1.06 5.64,-3.16 7.48,-6.31 1.84,-3.14 1.7,-6.57 -0.39,-10.23 -4.21,-8.95 -10.24,-21.15 -18.12,-36.64 -7.88,-15.5 -17.21,-32.04 -27.97,-49.63 -10.77,-17.61 -22.45,-35.33 -35.05,-53.17 -12.61,-17.86 -25.61,-34.15 -39,-48.85 -13.39,-14.71 -26.92,-26.79 -40.57,-36.24 -13.66,-9.45 -26.78,-14.18 -39.39,-14.18 -19.97,-1.06 -34.93,7.09 -44.9,24.42 -9.99,17.34 -13.66,39.4 -11.03,66.17 -9.98,-16.27 -20.49,-31.11 -31.51,-44.5 -11.03,-13.4 -22.98,-24.03 -35.85,-31.91 -12.87,-7.87 -26.52,-12.6 -40.961,-14.18 -14.453,-1.57 -30.332,1.31 -47.664,8.67 -21.012,8.39 -36.102,20.74 -45.297,37.02 -9.184,16.28 -14.574,34.01 -16.152,53.18 -1.575,19.17 0,39.12 4.726,59.88 4.727,20.73 10.512,39.77 17.332,57.11 12.606,32.03 26.653,59.47 42.153,82.32 15.48,22.85 31.902,41.49 49.23,55.94 17.333,14.43 35.183,24.8 53.573,31.11 18.38,6.3 37.02,9.18 55.93,8.68 6.3,-0.54 13,-1.72 20.09,-3.56 7.09,-1.85 13.65,-4.86 19.7,-9.06 6.03,-4.2 11.15,-9.85 15.36,-16.94 4.2,-7.09 6.3,-15.88 6.3,-26.38 0,-11.56 -2.63,-19.44 -7.88,-23.63 -4.21,-4.73 -9.72,-7.09 -16.54,-7.09 -6.3,0 -11.95,2.09 -16.94,6.29 -5,4.2 -7.48,9.72 -7.48,16.55" /><path
         id="path114"
         style="fill:#0071bc;fill-opacity:1;fill-rule:nonzero;stroke:none"
         d="m 1699.53,1700.94 c 1.04,3.67 3.27,6.17 6.69,7.49 3.41,1.3 6.95,1.44 10.64,0.4 4.19,-1.06 7.09,-3.16 8.66,-6.31 1.58,-3.14 1.31,-6.83 -0.78,-11.03 -5.26,-11.55 -11.82,-24.55 -19.7,-38.99 -7.88,-14.45 -16.29,-29.28 -25.21,-44.51 -11.03,-18.9 -23.37,-37.56 -37.03,-55.93 -13.66,-18.39 -27.96,-34.94 -42.93,-49.63 -14.97,-14.71 -30.86,-26.66 -47.66,-35.85 -16.81,-9.19 -33.88,-14.06 -51.21,-14.57 -12.6,0 -23.51,0.91 -32.69,2.75 -9.2,1.84 -17.86,3.95 -26,6.31 -8.15,2.36 -16.28,4.45 -24.42,6.3 -8.15,1.83 -17.72,2.75 -28.75,2.75 -15.24,0 -28.24,-1.05 -39,-3.14 -10.77,-2.11 -19.57,-3.82 -26.39,-5.13 -6.82,-1.31 -11.68,-1.57 -14.58,-0.78 -2.88,0.78 -4.33,4.06 -4.33,9.84 0,6.82 3.82,16.67 11.42,29.54 7.62,12.87 17.59,27.58 29.94,44.13 12.34,16.54 26.51,34.65 42.54,54.35 16.02,19.69 32.42,40.04 49.24,61.06 16.8,20.99 33.48,41.87 50.02,62.62 16.55,20.74 31.38,40.83 44.51,60.27 -12.6,0.52 -23.12,2.75 -31.51,6.7 -8.41,3.94 -15.76,8.13 -22.05,12.59 -6.31,4.47 -12.61,8.4 -18.92,11.83 -6.29,3.41 -13.92,5.12 -22.84,5.12 -13.66,0 -25.6,-4.6 -35.84,-13.78 -10.25,-9.2 -15.37,-20.63 -15.37,-34.28 0,-16.29 5.91,-29.54 17.73,-39.79 11.82,-10.23 26.12,-14.57 42.94,-12.98 3.14,0.5 3.66,-1.59 1.57,-6.31 -2.11,-4.73 -5.91,-10.12 -11.42,-16.15 -5.52,-6.04 -12.48,-11.57 -20.88,-16.55 -8.41,-5 -17.6,-7.48 -27.58,-7.48 -18.38,0 -34,5.77 -46.87,17.33 -12.86,11.55 -19.3,25.73 -19.3,42.54 0,15.76 2.76,30.45 8.27,44.12 5.52,13.65 13.12,25.6 22.85,35.85 9.71,10.24 21,18.24 33.87,24.02 12.87,5.77 26.65,8.66 41.37,8.66 11.03,0 20.6,-1.44 28.75,-4.32 8.14,-2.91 16.8,-6.05 26,-9.46 9.18,-3.43 19.3,-6.57 30.32,-9.45 11.03,-2.9 24.94,-4.34 41.76,-4.34 16.27,0 29.66,0.4 40.18,1.18 10.5,0.8 19.56,1.84 27.17,3.16 7.61,1.3 14.18,2.36 19.7,3.15 5.51,0.78 11.68,1.18 18.51,1.18 6.31,0 9.46,-2.63 9.46,-7.88 0,-2.63 -1.58,-5.65 -4.73,-9.06 -3.15,-3.42 -8.54,-9.06 -16.15,-16.93 -7.62,-7.88 -17.73,-18.52 -30.33,-31.92 -12.6,-13.38 -28.24,-31.11 -46.88,-53.16 -18.64,-22.07 -40.96,-49.24 -66.96,-81.54 -25.99,-32.3 -55.8,-71.04 -89.41,-116.2 5.77,0 11.81,-1.46 18.12,-4.33 6.3,-2.9 12.86,-6.05 19.7,-9.45 6.81,-3.43 13.9,-6.7 21.26,-9.86 7.35,-3.15 15.49,-4.72 24.42,-4.72 16.28,-0.53 32.7,4.45 49.24,14.97 16.55,10.49 32.42,24.02 47.66,40.56 15.23,16.55 29.54,34.93 42.94,55.15 13.39,20.21 25.33,40.05 35.84,59.48 5.25,9.46 9.97,18.24 14.18,26.39 4.2,8.14 7.61,16.15 10.25,24.02" /><path
         id="path116"
         style="fill:#0071bc;fill-opacity:1;fill-rule:nonzero;stroke:none"
         d="m 1731.82,1345.66 c -7.87,-6.31 -16.81,-11.82 -26.78,-16.54 -9.97,-4.74 -19.96,-9.47 -29.94,-14.19 -9.97,-4.73 -19.56,-9.97 -28.75,-15.76 -9.19,-5.77 -16.67,-12.6 -22.45,-20.47 -3.68,-5.25 -5.13,-11.04 -4.34,-17.34 0.79,-6.3 3.15,-11.94 7.09,-16.94 3.94,-4.98 8.94,-8.78 14.97,-11.42 6.05,-2.62 12.74,-2.88 20.09,-0.79 7.36,2.11 14.96,7.23 22.85,15.36 7.87,8.16 15.22,20.62 22.05,37.43 3.16,7.36 6.96,16.02 11.43,25.99 4.45,9.98 9.05,21.54 13.78,34.67 z m -141.8,-85.87 c -0.52,4.73 0.14,10.37 1.97,16.93 1.85,6.58 6.44,13.53 13.79,20.88 8.4,8.41 18.51,16.03 30.32,22.84 11.82,6.84 24.17,13.4 37.03,19.7 12.88,6.3 25.48,12.74 37.82,19.3 12.33,6.57 22.97,13.79 31.9,21.67 6.31,19.43 14.58,41.09 24.82,64.99 10.24,23.9 21.13,49.24 32.69,76.02 -15.76,-19.44 -31.78,-35.58 -48.06,-48.45 -16.28,-12.87 -32.04,-19.57 -47.26,-20.09 -10.5,-0.53 -19.56,1.58 -27.18,6.31 -7.61,4.72 -13.79,11.41 -18.51,20.09 -4.73,8.66 -7.88,19.16 -9.46,31.51 -1.57,12.33 -1.57,25.59 0,39.77 2.11,17.34 6.18,35.72 12.21,55.15 6.04,19.43 13,38.87 20.88,58.3 7.88,19.43 15.88,38.21 24.03,56.33 8.13,18.12 15.22,34.53 21.27,49.24 6.03,14.69 10.24,27.17 12.6,37.42 2.37,10.23 1.7,16.93 -1.97,20.08 -3.68,3.15 -1.97,6.82 5.12,11.03 7.09,4.2 15.88,6.57 26.39,7.09 10.5,0.52 21.4,-1.84 32.7,-7.09 11.28,-5.25 19.3,-15.76 24.02,-31.51 4.73,-15.24 3.94,-33.75 -2.36,-55.54 -6.3,-21.79 -15.1,-44.51 -26.39,-68.14 -11.3,-23.63 -23.38,-47.01 -36.24,-70.12 -12.87,-23.11 -23.63,-43.72 -32.3,-61.83 -8.66,-18.13 -13.66,-32.57 -14.97,-43.34 -1.31,-10.77 4.07,-15.63 16.16,-14.57 6.3,0.51 15.62,7.21 27.96,20.09 12.33,12.86 25.21,28.62 38.6,47.27 13.4,18.63 26.65,38.46 39.79,59.47 13.12,21 23.63,39.65 31.51,55.94 8.39,19.42 16.15,37.81 23.24,55.14 7.09,17.34 12.86,32.82 17.33,46.48 4.46,13.65 7.48,25.08 9.06,34.28 1.57,9.18 1.05,15.35 -1.58,18.5 -2.63,3.16 -0.27,6.83 7.09,11.03 7.35,4.2 16.55,6.56 27.58,7.09 11.03,0.53 21.92,-2.1 32.69,-7.87 10.76,-5.78 18.51,-16.82 23.24,-33.09 2.62,-8.94 1.31,-23.24 -3.95,-42.93 -5.25,-19.71 -12.59,-41.89 -22.05,-66.58 -9.45,-24.69 -20.22,-50.55 -32.3,-77.6 -12.09,-27.05 -23.63,-52.52 -34.66,-76.4 -11.03,-23.91 -20.75,-44.79 -29.15,-62.64 -8.4,-17.85 -13.66,-30.19 -15.75,-37.02 18.9,12.6 38.6,30.33 59.08,53.17 20.48,22.85 39.65,46.74 57.51,71.69 17.85,24.94 33.6,49.24 47.26,72.87 13.66,23.63 23.11,42.55 28.36,56.73 1.59,4.73 4.2,7.73 7.89,9.05 3.66,1.3 7.09,1.44 10.24,0.4 3.14,-1.06 5.63,-3.16 7.48,-6.31 1.84,-3.14 1.97,-6.57 0.39,-10.23 -12.09,-26.8 -27.17,-55.03 -45.29,-84.69 -18.13,-29.68 -37.95,-58.18 -59.48,-85.48 -21.54,-27.31 -44.12,-51.87 -67.75,-73.66 -23.64,-21.79 -46.75,-38.46 -69.33,-50.03 -3.15,-7.87 -7.36,-17.98 -12.6,-30.32 -5.26,-12.33 -10.64,-24.81 -16.15,-37.42 -5.52,-12.61 -10.51,-24.43 -14.97,-35.45 -4.47,-11.04 -7.75,-19.17 -9.85,-24.42 -5.25,-14.7 -13.52,-27.18 -24.81,-37.43 -11.3,-10.24 -24.03,-18.11 -38.21,-23.63 -14.18,-5.52 -28.89,-8.66 -44.12,-9.45 -15.22,-0.79 -29.4,0.79 -42.54,4.72 -13.12,3.94 -24.54,10.51 -34.26,19.7 -9.72,9.19 -15.88,20.88 -18.52,35.06" /><path
         id="path118"
         style="fill:#0071bc;fill-opacity:1;fill-rule:nonzero;stroke:none"
         d="m 2446.35,1494.55 c -4.21,12.6 -3.03,30.72 3.54,54.35 6.57,23.63 15.76,49.64 27.58,78 11.82,28.36 24.93,57.5 39.39,87.44 14.44,29.94 27.56,57.64 39.38,83.11 11.82,25.47 20.74,47.13 26.8,65 6.02,17.85 6.95,28.87 2.75,33.08 -2.64,2.09 -2.11,4.59 1.57,7.48 3.67,2.89 8.93,5.26 15.76,7.09 6.81,1.84 14.57,3.03 23.24,3.56 8.66,0.51 16.93,-0.28 24.81,-2.37 7.88,-2.11 14.7,-6.05 20.48,-11.81 5.78,-5.79 9.19,-13.93 10.24,-24.44 2.09,-19.96 -0.39,-41.48 -7.48,-64.59 -7.09,-23.12 -16.54,-46.87 -28.36,-71.29 -11.81,-24.43 -24.69,-48.98 -38.6,-73.67 -13.92,-24.68 -26.91,-48.57 -38.99,-71.68 -12.09,-23.12 -22.06,-44.91 -29.93,-65.39 -7.9,-20.48 -11.31,-38.6 -10.26,-54.35 0,-4.73 -3.28,-9.34 -9.84,-13.79 -6.57,-4.47 -14.46,-6.7 -23.64,-6.7 -9.19,0 -18.38,2.88 -27.56,8.67 -9.2,5.77 -16.16,16.54 -20.88,32.3 z m -102.41,-327.72 c 7.34,-15.23 17.46,-26 30.33,-32.3 12.86,-6.3 27.18,-9.46 42.93,-9.46 15.76,0 32.42,2.37 50.03,7.09 17.58,4.73 34.78,10.51 51.59,17.34 16.81,6.82 32.56,14.05 47.27,21.66 14.7,7.61 27.3,14.58 37.82,20.88 57.23,33.61 106.21,73.66 146.92,120.13 40.69,46.49 72.33,101.51 94.92,165.04 -32.04,-8.4 -63.42,-17.21 -94.14,-26.38 -30.72,-9.18 -60.54,-18.52 -89.41,-27.97 -175.94,-58.29 -280.98,-117.11 -315.12,-176.47 -15.23,-25.72 -16.28,-52.25 -3.14,-79.56 z m 826.38,405.7 c 0.52,-4.2 -0.78,-8.14 -3.93,-11.81 -3.16,-3.67 -6.84,-6.04 -11.03,-7.09 l -3.94,-0.78 -159.93,-37.82 c -11.02,-37.82 -24.55,-73.13 -40.56,-105.96 -16.03,-32.82 -34.27,-62.63 -54.76,-89.42 -28.36,-35.7 -60.4,-68 -96.1,-96.89 -35.72,-28.88 -74.33,-53.3 -115.81,-73.26 -36.24,-17.85 -72.87,-31.77 -109.89,-41.76 -37.04,-9.97 -72.62,-15.48 -106.75,-16.54 -17.34,0 -34.41,0.79 -51.2,2.36 -16.82,1.58 -31.79,4.73 -44.91,9.45 -28.89,10.52 -47.8,25.74 -56.72,45.7 -17.87,36.24 -16.03,72.74 5.51,109.5 21.53,36.77 64.07,72.75 127.62,107.93 54.09,28.88 123.95,57.78 209.55,86.66 31.51,10.5 63.94,20.6 97.3,30.32 33.35,9.72 67.09,19.03 101.23,27.97 5.24,16.81 9.71,33.74 13.38,50.81 3.68,17.06 6.83,34.78 9.47,53.18 9.45,60.92 11.54,116.99 6.3,168.19 -5.26,51.21 -18.91,94.4 -40.97,129.6 -19.43,30.98 -42.93,54.35 -70.51,70.1 -27.57,15.77 -56.72,24.43 -87.44,26 -30.72,1.58 -61.33,-3.28 -91.78,-14.57 -30.46,-11.3 -58.29,-28.75 -83.5,-52.38 -20.49,-18.91 -38.87,-40.32 -55.15,-64.21 -16.28,-23.91 -30.46,-48.59 -42.54,-74.06 -12.09,-25.47 -21.93,-50.54 -29.54,-75.23 -7.62,-24.69 -12.74,-47.4 -15.37,-68.14 -2.63,-20.76 -2.75,-38.6 -0.39,-53.58 2.36,-14.96 7.48,-25.34 15.37,-31.11 8.39,-6.3 10.89,-13 7.48,-20.09 -3.42,-7.09 -9.98,-12.73 -19.7,-16.93 -9.71,-4.21 -21.27,-5.79 -34.65,-4.73 -13.4,1.05 -25.88,6.82 -37.43,17.32 -17.86,16.28 -28.62,38.33 -32.3,66.19 -3.67,27.83 -1.05,58.29 7.88,91.38 8.93,33.09 23.9,67.35 44.9,102.81 21.01,35.44 47.39,68.53 79.17,99.25 31.78,30.74 68.55,57.38 110.29,79.96 41.76,22.58 88.11,38.08 139.05,46.48 61.45,9.98 117.51,10.12 168.19,0.4 50.68,-9.72 92.7,-31.26 126.05,-64.6 33.35,-33.36 56.72,-79.31 70.11,-137.86 13.39,-58.57 13.79,-131.44 1.18,-218.61 -1.57,-12.09 -3.54,-23.77 -5.9,-35.06 -2.37,-11.3 -4.87,-22.45 -7.48,-33.48 l 150.46,35.45 3.15,0.79 c 4.73,1.05 8.79,0.39 12.22,-1.97 3.4,-2.37 4.84,-5.66 4.32,-9.86" /><path
         id="path120"
         style="fill:#0071bc;fill-opacity:1;fill-rule:nonzero;stroke:none"
         d="m 3523.25,1692.29 c -4.21,-8.95 -10.24,-21.15 -18.11,-36.64 -7.88,-15.5 -17.21,-32.04 -27.97,-49.63 -10.77,-17.61 -22.45,-35.33 -35.06,-53.17 -12.61,-17.86 -25.61,-34.15 -38.99,-48.85 -13.39,-14.71 -26.93,-26.79 -40.58,-36.24 -13.66,-9.45 -26.78,-14.18 -39.39,-14.18 -10.51,-0.53 -19.57,1.58 -27.17,6.31 -7.62,4.72 -13.79,11.41 -18.52,20.09 -4.73,8.66 -7.88,19.16 -9.45,31.51 -1.57,12.33 -1.57,25.59 0,39.77 0,2.63 0.26,5.13 0.79,7.49 0.52,2.37 1.04,4.85 1.57,7.49 -9.98,-14.71 -20.36,-28.75 -31.12,-42.15 -10.77,-13.39 -21.66,-25.34 -32.69,-35.84 -11.03,-10.52 -22.06,-18.91 -33.09,-25.22 -11.03,-6.3 -21.54,-9.45 -31.51,-9.45 -10.5,-0.53 -19.56,1.58 -27.18,6.31 -7.6,4.72 -13.78,11.41 -18.51,20.09 -4.73,8.66 -7.88,19.16 -9.45,31.51 -1.59,12.33 -1.59,25.59 0,39.77 2.1,17.34 6.17,35.72 12.2,55.15 6.05,19.43 13,38.87 20.88,58.3 7.88,19.43 15.88,38.21 24.03,56.33 8.13,18.12 15.22,34.53 21.27,49.24 6.03,14.69 10.24,27.04 12.6,37.02 2.37,9.97 1.7,16.81 -1.97,20.48 -3.67,3.15 -1.96,6.82 5.13,11.03 7.09,4.2 15.88,6.57 26.38,7.09 10.5,0.52 21.4,-1.84 32.7,-7.09 11.29,-5.25 19.31,-15.76 24.03,-31.51 4.73,-15.24 3.94,-33.75 -2.36,-55.54 -6.31,-21.79 -15.11,-44.51 -26.4,-68.14 -11.3,-23.63 -23.38,-47.01 -36.24,-70.12 -12.87,-23.11 -23.63,-43.72 -32.29,-61.83 -8.67,-18.13 -13.66,-32.57 -14.97,-43.34 -1.32,-10.77 4.06,-15.63 16.15,-14.57 6.3,0.51 15.48,7.09 27.57,19.69 12.08,12.61 24.81,28.22 38.21,46.88 13.39,18.63 26.51,38.33 39.39,59.09 12.87,20.73 23.5,39.25 31.91,55.53 7.87,18.38 15.61,35.97 23.23,52.79 7.61,16.8 14.18,32.16 19.7,46.07 5.52,13.92 9.32,25.61 11.42,35.06 2.09,9.46 1.3,15.76 -2.36,18.91 -3.68,3.15 -1.97,6.82 5.12,11.03 7.09,4.2 15.88,6.57 26.39,7.09 10.5,0.52 21.39,-1.84 32.69,-7.09 11.29,-5.25 19.31,-15.76 24.03,-31.51 4.73,-15.24 3.94,-33.75 -2.36,-55.54 -6.31,-21.79 -15.11,-44.51 -26.4,-68.14 -11.29,-23.63 -23.37,-47.01 -36.24,-70.12 -12.87,-23.11 -23.63,-43.72 -32.29,-61.83 -8.66,-18.13 -13.66,-32.57 -14.97,-43.34 -1.32,-10.77 4.06,-15.63 16.15,-14.57 4.73,0.51 11.29,4.73 19.7,12.6 8.39,7.88 17.59,17.99 27.57,30.33 9.97,12.34 20.21,26.13 30.72,41.36 10.51,15.23 20.49,30.45 29.94,45.7 9.45,15.22 17.84,29.65 25.21,43.33 7.35,13.65 12.6,24.94 15.76,33.86 1.57,4.2 4.19,6.83 7.87,7.89 3.67,1.04 7.09,1.04 10.24,0 3.16,-1.06 5.64,-3.16 7.48,-6.31 1.84,-3.14 1.7,-6.57 -0.39,-10.23" /><path
         id="path122"
         style="fill:#0071bc;fill-opacity:1;fill-rule:nonzero;stroke:none"
         d="m 3386.96,1879.77 c -0.5,-7.35 -2.55,-12.21 -6.15,-14.57 -3.58,-2.36 -7.55,-2.1 -11.91,0.79 -4.35,2.88 -7.94,8.39 -10.77,16.54 -2.84,8.14 -3.73,19.04 -2.68,32.7 2.06,22.06 10.58,38.86 25.57,50.42 15,11.54 34.44,19.3 58.34,23.24 23.9,3.94 50.94,5.37 81.14,4.33 30.19,-1.06 61.57,-3.16 94.14,-6.3 8.92,23.63 15.48,43.06 19.7,58.3 4.19,15.21 4.98,24.14 2.36,26.78 -3.68,3.15 -1.97,6.81 5.12,11.03 7.09,4.2 15.88,6.56 26.38,7.09 10.51,0.51 21.4,-1.85 32.7,-7.09 11.29,-5.25 19.31,-15.76 24.03,-31.52 2.62,-7.35 2.88,-17.33 0.78,-29.92 -2.1,-12.62 -5.5,-26.8 -10.23,-42.55 23.09,-1.07 46.2,-1.07 69.31,0 23.11,1.04 43.85,3.02 62.24,5.91 18.38,2.88 33.21,6.7 44.51,11.42 11.29,4.73 16.95,10.5 16.95,17.33 0,7.89 2.36,11.94 7.09,12.21 4.72,0.27 9.45,-1.71 14.18,-5.91 4.72,-4.2 7.99,-9.72 9.84,-16.54 1.84,-6.83 -0.39,-13.13 -6.7,-18.9 -6.83,-6.84 -17.72,-13.28 -32.69,-19.3 -14.97,-6.06 -32.83,-11.31 -53.57,-15.76 -20.75,-4.48 -43.72,-8.27 -68.93,-11.43 -25.21,-3.14 -51.48,-5 -78.78,-5.51 -11.03,-28.36 -24.3,-59.08 -39.78,-92.17 -15.5,-33.09 -31,-66.05 -46.48,-98.87 -15.5,-32.82 -30.47,-64.35 -44.91,-94.53 -14.45,-30.21 -25.99,-56.72 -34.66,-79.57 -8.67,-22.84 -13.92,-41.11 -15.76,-54.75 -1.84,-13.67 1.98,-19.97 11.43,-18.91 5.24,0.51 11.93,4.73 20.09,12.6 8.13,7.88 17.19,17.99 27.18,30.33 9.97,12.34 20.21,26.13 30.72,41.36 10.5,15.23 20.49,30.45 29.94,45.7 9.45,15.22 17.84,29.65 25.2,43.33 7.35,13.65 12.61,24.94 15.76,33.86 1.58,4.2 4.2,6.83 7.88,7.89 3.67,1.04 7.09,1.04 10.24,0 3.15,-1.06 5.64,-3.16 7.48,-6.31 1.84,-3.14 1.7,-6.57 -0.39,-10.23 -4.21,-8.95 -10.24,-21.15 -18.12,-36.64 -7.87,-15.5 -17.21,-32.04 -27.96,-49.63 -10.77,-17.61 -22.45,-35.33 -35.06,-53.17 -12.61,-17.86 -25.61,-34.15 -39,-48.85 -13.39,-14.71 -26.92,-26.79 -40.57,-36.24 -13.66,-9.45 -26.79,-14.18 -39.39,-14.18 -10.49,-0.53 -19.56,1.58 -27.17,6.31 -7.61,4.72 -13.79,11.41 -18.52,20.09 -4.73,8.66 -7.88,19.16 -9.45,31.51 -1.59,12.33 -1.59,25.59 0,39.77 2.1,16.28 8.27,39.26 18.51,68.94 10.24,29.67 22.45,62.24 36.63,97.69 14.18,35.44 29.27,71.94 45.3,109.5 16.01,37.54 30.85,72.6 44.51,105.17 -27.32,0 -53.31,-0.39 -77.99,-1.19 -24.68,-0.78 -46.35,-3.03 -65,-6.69 -18.63,-3.68 -33.6,-9.06 -44.9,-16.15 -11.29,-7.09 -17.2,-16.68 -17.73,-28.76" /><path
         id="path124"
         style="fill:#0071bc;fill-opacity:1;fill-rule:nonzero;stroke:none"
         d="m 3880.12,1783.67 c 0,4.2 1.18,8.13 3.54,11.81 2.38,3.67 5.38,6.83 9.06,9.46 -2.63,6.3 -6.82,9.45 -12.6,9.45 -7.36,0.52 -15.49,-2.75 -24.42,-9.84 -8.93,-7.1 -18.51,-17.34 -28.76,-30.74 -10.23,-13.39 -20.87,-29.93 -31.9,-49.63 -11.03,-19.68 -22.06,-41.62 -33.09,-65.78 -6.83,-15.23 -12.48,-32.03 -16.93,-50.41 -4.47,-18.4 -7.09,-35.72 -7.88,-52 -0.79,-16.28 0.65,-30.32 4.33,-42.14 3.67,-11.81 10.5,-18.79 20.48,-20.88 11.55,-2.11 24.03,-0.4 37.43,5.12 13.38,5.52 27.04,13.79 40.96,24.82 13.91,11.03 27.57,23.89 40.96,38.6 13.4,14.7 26,30.19 37.82,46.48 11.82,16.27 22.32,32.43 31.51,48.45 9.18,16.01 16.41,30.85 21.66,44.5 1.58,4.2 4.2,6.97 7.89,8.28 3.66,1.31 7.6,0.91 11.81,-1.19 6.82,-3.67 8.66,-9.19 5.51,-16.54 -8.41,-18.38 -18.78,-37.95 -31.11,-58.69 -12.35,-20.74 -26.14,-40.83 -41.36,-60.27 -15.24,-19.43 -31.65,-37.68 -49.24,-54.74 -17.61,-17.07 -35.72,-31 -54.35,-41.76 -18.66,-10.76 -37.83,-17.72 -57.51,-20.87 -19.7,-3.15 -39,-0.79 -57.91,7.09 -21.01,8.39 -36.11,20.74 -45.3,37.02 -9.18,16.28 -14.57,34.01 -16.15,53.18 -1.57,19.17 0,39.12 4.73,59.88 4.72,20.73 10.51,39.77 17.33,57.11 12.61,32.03 26.65,59.47 42.15,82.32 15.48,22.85 31.9,41.49 49.24,55.94 17.32,14.43 35.17,24.8 53.56,31.11 18.38,6.3 37.03,9.18 55.94,8.68 6.3,-0.54 13,-1.72 20.09,-3.56 7.09,-1.85 13.65,-4.86 19.69,-9.06 6.03,-4.2 11.16,-9.85 15.37,-16.94 4.19,-7.09 6.29,-15.88 6.29,-26.38 0,-10.51 -2.36,-18.13 -7.08,-22.85 -4.21,-5.26 -9.99,-7.87 -17.34,-7.87 -6.3,0 -11.95,2.09 -16.93,6.29 -5,4.2 -7.49,9.72 -7.49,16.55" /><path
         id="path126"
         style="fill:#0071bc;fill-opacity:1;fill-rule:nonzero;stroke:none"
         d="m 3910.83,1492.18 c -3.15,9.46 -2.23,24.68 2.75,45.7 5,20.99 12.61,45.55 22.86,73.65 10.23,28.09 22.18,58.43 35.84,90.99 13.65,32.56 27.69,65.4 42.14,98.48 14.44,33.09 28.36,65.25 41.75,96.5 13.4,31.25 25.08,59.2 35.06,83.9 9.97,24.68 17.33,45.17 22.06,61.46 4.73,16.27 5.52,25.99 2.36,29.14 -3.68,3.15 -1.97,6.81 5.12,11.03 7.09,4.2 16.02,6.56 26.79,7.09 10.76,0.51 21.66,-1.85 32.69,-7.09 11.03,-5.25 18.91,-15.76 23.64,-31.52 3.15,-9.98 2.36,-24.42 -2.37,-43.32 -4.72,-18.91 -11.81,-40.84 -21.27,-65.78 -9.45,-24.95 -20.75,-52.13 -33.87,-81.55 -13.14,-29.41 -26.79,-59.08 -40.97,-89.01 18.38,20.48 37.15,37.81 56.33,51.99 19.17,14.18 37.15,21.54 53.96,22.06 20.48,0.52 35.72,-8.4 45.7,-26.78 9.97,-18.39 13.11,-42.03 9.45,-70.9 -1.06,-17.86 -5,-36.63 -11.82,-56.33 -6.83,-19.7 -14.58,-38.99 -23.24,-57.9 -8.66,-18.91 -17.33,-36.91 -26,-53.97 -8.66,-17.07 -15.36,-31.9 -20.08,-44.51 -4.73,-12.6 -6.7,-22.72 -5.91,-30.33 0.79,-7.62 6.42,-11.42 16.93,-11.42 4.73,0 11.29,3.8 19.7,11.42 8.4,7.61 17.59,17.59 27.57,29.94 9.97,12.34 20.35,26.25 31.12,41.75 10.76,15.49 20.88,30.85 30.33,46.08 9.46,15.24 17.84,29.81 25.21,43.73 7.35,13.91 12.61,25.34 15.76,34.26 1.57,4.2 4.19,6.83 7.87,7.89 3.67,1.04 7.09,1.04 10.25,0 3.15,-1.06 5.63,-3.16 7.48,-6.31 1.83,-3.14 1.69,-6.57 -0.39,-10.23 -4.21,-8.95 -10.25,-21.15 -18.12,-36.64 -7.88,-15.5 -17.22,-32.04 -27.97,-49.63 -10.77,-17.61 -22.45,-35.33 -35.06,-53.17 -12.6,-17.86 -25.6,-34.15 -38.99,-48.85 -13.4,-14.71 -26.93,-26.79 -40.58,-36.24 -13.66,-9.45 -26.78,-14.18 -39.38,-14.18 -10.52,-0.53 -19.44,1.97 -26.79,7.49 -7.36,5.51 -13.39,13 -18.11,22.45 -4.73,9.45 -8.02,20.09 -9.86,31.9 -1.84,11.82 -1.96,23.76 -0.39,35.84 2.62,21.54 7.61,42.81 14.97,63.82 7.35,21 15.36,41.09 24.03,60.27 8.66,19.17 17.19,36.74 25.6,52.78 8.39,16.02 14.7,29.93 18.91,41.76 4.2,11.81 5.63,20.87 4.33,27.17 -1.32,6.3 -7.49,9.18 -18.51,8.67 -6.84,-0.53 -16.68,-6.31 -29.54,-17.34 -12.88,-11.02 -26.4,-24.81 -40.58,-41.35 -14.18,-16.55 -28.1,-34.14 -41.75,-52.79 -13.66,-18.64 -24.7,-35.58 -33.08,-50.81 l -10.25,-21.27 v -0.79 l -1.57,-3.15 c -16.82,-37.3 -30.08,-69.06 -39.79,-95.32 -9.72,-26.27 -12.48,-43.33 -8.27,-51.21 2.09,-4.2 0.39,-8.54 -5.12,-12.99 -5.51,-4.48 -12.6,-6.83 -21.27,-7.09 -8.67,-0.27 -17.59,2.48 -26.78,8.27 -9.19,5.77 -16.15,16.54 -20.88,32.29" /></g></g></svg>