<svg xmlns="http://www.w3.org/2000/svg" width="842" height="906" viewBox="0 0 842 906">
  <g fill="#9C9BA1" fill-rule="evenodd" opacity=".1" transform="translate(115 26)">
    <path
      fill-rule="nonzero"
      d="M119.308082,696.226733 C115.757385,696.390527 112.042966,696.288155 109.975989,692.787062 C107.81692,689.122176 109.638315,685.713217 111.592734,682.611371 C118.755524,671.350546 126.501571,660.448019 132.97878,648.828895 C155.582501,608.289923 168.97692,564.956219 171.023431,518.387587 C171.17692,515.162897 162.227502,403.679424 170.655059,381.486661 C179.082617,359.293899 212.015059,319.889946 239.602036,294.5838 C239.843013,294.313702 235.22906,270.829863 296.382501,242.394993 C298.675654,241.328732 299.994594,245.261385 303.023431,244.012457 C309.564624,241.266555 316.946781,241.33319 323.437385,244.196725 C324.657416,244.633087 326.01081,244.47802 327.100641,243.777003 C334.604517,236.481353 353.398315,253.317993 383.482036,294.286924 C393.202966,303.899574 403.709739,311.610408 411.887617,322.50041 C429.772141,346.316183 454.475524,521.540619 455.161106,528.27664 C458.834594,564.485312 467.317385,599.445057 482.410408,632.695203 C489.106496,647.739992 497.394409,662.023788 507.132269,675.302072 C509.025292,677.851113 511.33785,680.103278 513.17971,682.693268 C517.487617,688.743402 514.929478,694.977805 507.572269,696.001516 C505.193044,696.247781 502.798552,696.312803 500.409478,696.196021 C498.229943,696.196021 496.050408,695.981042 493.195524,695.827485 L493.195524,700.833434 C493.195524,739.324983 493.123896,777.816532 493.29785,816.308081 C493.29785,819.993442 492.01878,821.283318 488.785292,821.866833 C461.556455,826.842071 434.429943,832.533906 407.078315,836.74136 C368.747152,842.648175 330.05785,844.695598 291.276455,843.90734 C239.581571,842.883629 188.469943,837.427247 138.575989,823.033864 C134.196455,821.774699 132.845757,819.96273 132.876455,815.366266 C133.101571,777.386573 133.009478,739.417117 133.009478,701.437424 C126.794904,697.83396 122.227772,696.097063 119.308082,696.226733 Z M373.035447,783.109726 C373.440754,765.475868 371.711503,747.857893 367.885769,730.643724 C364.286093,715.102798 359.024245,700.289713 348.510744,687.926681 C334.438358,671.411884 309.362997,667.178109 290.742578,678.15722 C279.658024,684.687279 272.581041,694.682268 267.869851,706.276455 C254.246149,739.418812 253.960623,774.201372 256.051086,809.20946 C256.102073,810.070567 257.723457,811.423735 258.743195,811.567252 C270.745513,813.217707 282.758028,814.847659 294.801136,816.14957 C320.202813,818.896911 345.227187,814.919418 370.261759,811.669765 C372.443999,811.392981 373.035447,810.378105 373.025249,808.379107 C373.004855,799.952563 373.035447,791.53627 373.035447,783.109726 Z M313.939302,515.069029 C334.961642,494.065805 355.830084,473.226589 376.093199,453.002401 L314.308655,391.069029 L252.093199,453.125406 L313.939302,515.069029 Z"
    />
    <path
      d="M240.079914,295.122207 L203.356757,258.203992 L189.626606,272.401964 L0.828313975,82.7298768 L70.1530463,14.6658826 L298.574986,245.192224 L240.079914,295.122207 Z M327.473488,239.272309 L364.391703,202.549152 L350.193731,188.819001 L539.865818,0.0207086311 L607.929813,69.3454409 L377.403471,297.767381 L327.473488,239.272309 Z M282.101499,369.849898 L245.183284,406.573056 L259.381255,420.303206 L69.7091682,609.101499 L1.64517392,539.776766 L232.171516,311.354826 L282.101499,369.849898 Z M385.495072,326 L422.218229,362.918215 L435.94838,348.720243 L624.746672,538.39233 L555.42194,606.456325 L327,375.929983 L385.495072,326 Z">

      <animateTransform
        attributeName="transform"
        attributeType="XML"
        type="rotate"
        from="0 312 300"
        to="360 312 300"
        dur="10s"
        repeatCount="indefinite"
      />

    </path>
  </g>
</svg>
