<?xml version="1.0" standalone="no"?>
<!DOCTYPE svg PUBLIC "-//W3C//DTD SVG 20010904//EN"
 "http://www.w3.org/TR/2001/REC-SVG-20010904/DTD/svg10.dtd">
<svg version="1.0" xmlns="http://www.w3.org/2000/svg"
 width="500.000000pt" height="500.000000pt" viewBox="0 0 500.000000 500.000000"
 preserveAspectRatio="xMidYMid meet">
<metadata>
Created by potrace 1.11, written by Peter Selinger 2001-2013
</metadata>
<g transform="translate(0.000000,500.000000) scale(0.100000,-0.100000)"
fill="#000000" stroke="none">
<path d="M2460 4857 c-3 -3 -39 -7 -80 -10 -41 -4 -86 -9 -100 -12 -14 -3 -45
-7 -70 -10 -25 -3 -81 -14 -125 -26 -44 -11 -87 -21 -95 -23 -113 -27 -296
-98 -444 -172 -432 -218 -797 -578 -1030 -1017 -20 -38 -36 -71 -36 -73 0 -2
12 -4 28 -4 29 0 118 -38 143 -61 52 -50 161 -120 204 -133 16 -5 25 3 45 42
132 256 342 506 555 665 28 20 55 41 61 46 26 22 216 131 284 163 62 30 228
93 265 102 6 2 28 8 50 14 57 15 181 40 240 47 28 3 66 8 85 11 42 6 326 6
355 0 11 -2 43 -7 70 -10 292 -38 571 -145 826 -316 52 -35 96 -66 99 -69 3
-3 37 -33 75 -66 39 -33 85 -75 104 -94 l33 -34 55 17 c30 10 62 19 71 21 9 2
44 12 77 21 84 22 89 23 190 36 50 7 92 13 94 15 12 9 -207 248 -310 338 -240
211 -512 368 -813 470 -75 26 -148 48 -162 51 -14 3 -54 11 -88 19 -87 20
-116 25 -161 30 -22 3 -56 7 -75 10 -43 8 -414 17 -420 12z"/>
<path d="M2507 4274 c-1 -1 -37 -4 -80 -7 -43 -4 -81 -9 -86 -11 -4 -3 -29 -7
-57 -10 -27 -2 -95 -18 -151 -35 -377 -114 -672 -309 -908 -601 -65 -80 -155
-212 -155 -228 0 -4 -9 -18 -20 -32 -35 -44 -27 -51 55 -47 41 2 76 5 78 8 2
2 24 36 49 74 122 191 318 385 499 496 30 19 64 39 75 46 138 86 395 172 594
198 101 14 347 13 433 -2 45 -7 96 -15 112 -17 17 -2 37 -6 45 -9 8 -2 69 -22
135 -43 186 -59 355 -149 508 -272 75 -60 73 -59 180 -23 38 13 38 13 20 33
-34 39 -158 135 -253 197 -168 111 -408 212 -580 245 -14 3 -47 9 -75 14 -93
19 -159 25 -288 27 -70 1 -128 1 -130 -1z"/>
<path d="M4385 3799 c-22 -4 -52 -10 -68 -13 -15 -2 -35 -7 -45 -10 -9 -3 -28
-7 -42 -10 -14 -2 -142 -40 -285 -85 -258 -79 -439 -129 -545 -150 -55 -11
-71 -13 -165 -28 -27 -4 -115 -8 -195 -8 -164 0 -213 12 -445 107 -295 122
-410 151 -490 126 -43 -14 -75 -53 -75 -92 0 -33 -37 -115 -68 -151 -57 -67
-186 -145 -318 -194 -84 -30 -277 -77 -354 -85 -198 -21 -334 -26 -405 -13
-75 13 -164 58 -260 131 -47 36 -91 67 -96 67 -5 1 -15 2 -21 3 -28 4 -70 -18
-93 -48 -79 -103 -90 -338 -30 -606 35 -156 37 -160 84 -160 21 0 53 -3 70 -6
l31 -6 0 196 0 196 50 25 c29 15 50 33 51 43 1 9 2 24 3 32 1 12 16 15 66 15
l65 0 3 -32 c3 -26 13 -39 50 -65 26 -17 49 -32 50 -34 2 -1 4 -136 4 -299 0
-220 3 -295 11 -292 9 3 12 66 12 225 0 141 4 222 10 223 6 1 16 1 23 0 21 -3
82 145 82 200 l0 49 45 0 45 0 0 -49 c0 -63 72 -200 106 -201 20 0 20 -4 19
-212 0 -117 1 -219 3 -225 2 -7 10 -13 18 -13 12 0 14 50 14 295 l0 295 26 0
c37 0 81 49 96 106 13 46 57 103 81 105 6 0 19 2 29 4 42 8 100 -57 114 -128
5 -30 33 -67 49 -67 8 0 15 -4 15 -10 0 -5 14 -10 30 -10 l30 0 0 -310 c0
-241 3 -310 13 -310 9 0 12 66 12 297 0 258 2 298 15 299 8 1 21 2 28 3 7 1
12 16 12 41 0 36 2 39 28 37 21 -2 27 3 28 18 1 11 2 26 3 33 1 9 8 11 21 7
17 -5 20 -2 20 28 0 41 7 49 31 36 12 -6 19 -21 19 -40 0 -23 4 -30 15 -25 16
6 35 -22 28 -41 -5 -13 2 -15 45 -16 23 0 25 -5 22 -49 -1 -16 3 -29 9 -29 6
-1 17 -2 24 -3 9 -1 12 -62 14 -266 0 -146 2 -275 2 -287 1 -19 5 -21 29 -14
87 25 187 -30 213 -119 8 -27 22 -46 40 -55 14 -8 29 -21 32 -30 10 -26 21
-17 41 33 39 96 129 211 210 267 81 57 75 38 74 211 0 85 3 158 7 162 3 4 142
8 308 9 292 2 314 3 347 16 41 17 202 67 216 67 9 0 14 -7 12 -17 -3 -18 -24
-26 -209 -89 l-75 -25 0 -138 1 -137 52 -59 c29 -32 52 -61 51 -64 -1 -3 6
-23 16 -44 l16 -37 30 22 c22 16 49 23 95 26 50 3 65 8 65 19 0 28 42 84 79
107 44 28 72 36 136 42 28 2 69 6 92 9 l41 6 -1 124 -1 124 -101 34 c-55 19
-117 40 -137 47 -27 8 -38 17 -38 31 0 26 15 24 164 -24 l128 -42 299 1 c200
0 300 -3 302 -10 2 -6 3 -50 1 -98 l-2 -88 39 0 c33 0 41 4 56 33 9 17 18 34
18 37 1 3 9 21 18 41 21 47 26 72 42 209 12 107 13 441 1 500 -50 256 -155
359 -363 357 -43 0 -96 -4 -118 -8z m-1943 -414 c20 -19 40 -35 44 -35 5 0 24
16 44 35 l36 35 29 -24 28 -24 -42 -42 -41 -42 40 -41 39 -41 -21 -23 c-12
-13 -25 -23 -29 -23 -4 0 -23 16 -43 36 -33 33 -36 34 -58 20 -13 -8 -30 -24
-38 -36 -18 -25 -24 -25 -55 2 l-25 22 41 42 42 43 -41 41 -40 41 21 24 c12
12 24 23 27 24 3 0 22 -15 42 -34z m1241 -18 c3 -8 2 -19 -1 -24 -4 -6 -71
-32 -149 -58 l-143 -46 0 -175 0 -175 23 6 c85 26 216 68 235 76 34 13 40 11
38 -13 -1 -20 -18 -28 -146 -70 l-145 -48 -285 -1 c-157 0 -290 0 -296 0 -15
1 -24 49 -10 53 6 2 127 3 269 2 141 0 258 2 258 5 1 3 2 79 3 169 l2 163 -38
-4 c-21 -2 -41 -6 -45 -10 -3 -4 -17 -7 -29 -7 -13 0 -40 -9 -61 -19 -21 -11
-80 -28 -131 -39 -78 -17 -94 -18 -99 -6 -11 30 9 42 134 73 70 18 135 36 143
39 8 3 20 6 25 7 6 2 57 15 115 30 58 15 112 28 120 30 8 2 56 15 105 28 111
31 102 30 108 14z m452 -73 c448 -114 415 -103 415 -137 0 -22 -4 -27 -17 -23
-56 15 -147 36 -162 36 -9 0 -28 8 -41 17 -14 10 -31 18 -39 20 -7 1 -35 7
-62 13 -27 7 -55 10 -62 7 -9 -3 -12 -45 -10 -163 0 -88 2 -162 2 -165 1 -3
112 -6 249 -6 321 -1 292 1 287 -24 -3 -12 -6 -23 -8 -26 -2 -2 -137 -4 -300
-4 -275 0 -299 2 -354 21 -32 12 -67 23 -78 26 -11 2 -49 14 -85 26 -51 18
-66 28 -68 46 -2 12 -2 22 0 22 2 0 32 -10 68 -21 36 -11 72 -22 80 -24 8 -2
42 -13 74 -24 33 -12 61 -21 63 -21 2 0 2 79 1 176 l-3 175 -142 47 c-107 34
-143 50 -143 62 0 23 11 32 29 25 9 -4 147 -40 306 -81z m-1663 -237 c5 -9 14
-8 35 5 38 22 80 13 102 -23 29 -48 16 -86 -51 -152 l-60 -58 -41 24 c-57 34
-97 86 -104 134 -5 35 -1 44 23 66 22 21 35 25 58 21 17 -3 34 -10 38 -17z
m-17 -334 c11 -13 25 -23 30 -23 5 0 26 17 47 37 l38 38 25 -29 24 -28 -40
-39 -41 -40 42 -41 41 -41 -22 -24 c-13 -12 -26 -23 -30 -23 -4 0 -22 16 -40
35 -19 19 -37 35 -41 35 -5 0 -24 -16 -42 -35 -19 -19 -37 -35 -41 -35 -3 0
-16 10 -29 23 l-24 22 41 42 40 42 -42 42 -42 43 28 22 c30 24 37 22 78 -23z"/>
<path d="M2974 2739 c-27 -11 -55 -27 -61 -36 -8 -10 -13 -47 -13 -89 l0 -73
38 1 c20 0 110 0 200 -2 90 -1 166 1 169 4 7 6 5 124 -2 147 -3 10 -27 28 -53
40 -63 31 -207 35 -278 8z"/>
<path d="M4276 2749 c-21 -5 -51 -18 -67 -30 -28 -20 -29 -23 -29 -110 0 -69
3 -89 13 -83 7 4 9 3 4 -2 -5 -5 -13 -10 -18 -10 -5 -1 -14 -2 -20 -3 -5 0 -8
-5 -5 -10 3 -4 0 -28 -7 -52 l-13 -44 -109 0 c-89 0 -116 -4 -142 -19 -35 -22
-54 -55 -48 -85 9 -45 25 -53 40 -19 6 13 22 29 38 36 27 13 187 24 187 13 0
-3 -29 -75 -65 -160 -66 -159 -137 -279 -186 -319 -54 -44 -47 -1 21 133 87
173 90 239 13 251 -34 5 -45 -5 -50 -46 -7 -65 -133 -291 -192 -344 -15 -14
-20 -14 -30 -3 -8 11 2 40 48 133 84 169 93 219 47 249 -38 25 -70 14 -77 -26
-3 -19 -24 -78 -47 -131 -23 -53 -42 -103 -42 -110 -1 -31 -20 -43 -88 -53
-17 -3 -22 1 -18 13 3 10 8 42 12 72 25 228 -19 364 -140 434 -110 65 -308 52
-454 -30 -194 -109 -324 -378 -234 -482 27 -31 77 -39 102 -17 19 17 19 20 4
36 -25 28 -21 111 11 198 76 207 222 322 369 289 92 -20 154 -88 183 -201 15
-60 15 -69 0 -279 -1 -10 -4 -18 -7 -18 -3 0 -6 -12 -7 -26 0 -15 -7 -31 -15
-35 -12 -8 -68 -26 -108 -34 -97 -21 -309 -108 -391 -161 -110 -70 -149 -144
-114 -218 27 -56 129 -84 235 -64 25 5 54 10 65 12 46 9 136 52 208 99 65 43
135 111 177 172 30 45 80 151 80 171 0 18 25 30 79 39 37 6 43 5 38 -8 -9 -23
29 -77 55 -77 32 0 81 32 114 74 16 20 31 36 34 36 3 0 5 -16 6 -35 0 -19 9
-44 19 -55 34 -38 77 -23 142 49 l43 46 0 -35 c0 -111 105 -102 186 17 31 44
36 45 41 10 9 -66 55 -107 119 -107 39 0 109 36 146 76 18 19 35 34 38 34 3 0
4 -15 2 -34 -6 -48 12 -76 48 -76 17 0 30 3 31 8 7 76 60 199 120 279 75 98
122 133 135 100 2 -7 -16 -57 -42 -112 -37 -78 -48 -113 -52 -165 -4 -59 -2
-70 17 -89 30 -30 61 -26 110 15 52 45 161 209 161 244 0 23 -27 8 -42 -23
-47 -99 -132 -207 -163 -207 -22 0 -16 25 29 123 60 131 67 160 52 225 -14 59
-73 64 -138 12 l-38 -31 26 58 c71 157 89 222 72 259 -11 23 -21 27 -63 27
-31 -1 -32 -1 -33 -31 0 -15 -42 -124 -92 -242 -110 -256 -160 -336 -247 -387
-72 -42 -102 -14 -88 83 12 94 114 264 157 264 17 0 18 -2 8 -16 -11 -12 -10
-18 3 -31 33 -33 62 11 37 57 -13 25 -72 35 -120 21 -47 -14 -117 -82 -150
-147 -71 -139 -180 -279 -188 -241 -5 27 14 78 98 257 43 91 85 182 93 202 14
33 19 37 54 36 53 0 181 28 209 47 13 8 24 22 24 30 0 22 -22 30 -34 13 -16
-22 -68 -34 -150 -37 l-68 -2 6 34 c8 41 -7 87 -29 87 -8 0 -15 4 -15 9 0 4
34 8 75 7 41 -1 75 -5 75 -10 0 -4 8 -5 18 -1 22 10 139 12 175 3 l27 -7 0 93
c0 103 -7 117 -71 137 -45 14 -184 19 -233 8z m-1042 -976 c-58 -138 -200
-268 -363 -333 -120 -47 -201 -21 -201 66 0 83 137 171 395 254 55 17 111 36
125 40 14 5 33 9 42 9 16 1 16 -2 2 -36z"/>
<path d="M397 2450 c-103 -39 -219 -161 -297 -312 -21 -39 -69 -162 -75 -189
-2 -9 -8 -34 -14 -54 -14 -52 -7 -171 13 -218 46 -106 161 -151 282 -110 164
56 358 279 459 531 30 74 31 75 68 78 40 2 58 -15 39 -39 -25 -31 -83 -202
-85 -246 -1 -59 23 -101 57 -101 32 0 84 37 122 87 32 42 44 45 44 11 0 -46
61 -98 115 -98 35 0 77 25 101 61 23 36 29 36 30 3 3 -35 32 -64 66 -64 39 0
118 81 178 182 42 71 47 76 75 71 21 -3 38 2 58 17 l28 22 -32 17 c-43 22 -54
53 -28 84 20 27 56 30 83 8 8 -7 27 -16 41 -20 27 -7 26 -8 -95 -161 -103
-130 -140 -184 -140 -205 0 -2 33 -3 73 -3 39 0 93 -3 119 -7 61 -10 100 5
156 62 24 24 45 43 45 43 1 0 3 -16 3 -35 2 -42 28 -75 59 -75 12 0 40 13 63
30 l41 29 -32 -75 c-32 -73 -35 -77 -95 -109 -106 -55 -124 -86 -81 -136 17
-20 30 -24 77 -24 84 0 110 23 156 135 21 49 42 90 47 90 19 0 139 124 181
187 42 63 88 145 88 158 0 3 -6 5 -14 5 -8 0 -24 -19 -36 -42 -46 -89 -168
-248 -191 -248 -4 0 18 57 50 128 61 133 91 215 96 259 4 36 -28 65 -68 61
-27 -3 -33 -8 -35 -32 -13 -109 -184 -395 -222 -371 -15 9 -6 33 57 161 65
131 77 190 44 223 -14 14 -31 20 -49 18 -22 -3 -28 -10 -34 -42 -5 -21 -33
-89 -62 -149 -39 -81 -68 -125 -106 -163 -62 -63 -97 -72 -157 -46 l-42 19 66
85 c64 84 131 163 192 228 36 39 28 53 -23 42 -48 -11 -116 -6 -168 12 -99 35
-180 -23 -176 -125 2 -38 -5 -56 -45 -121 -57 -91 -115 -153 -130 -138 -8 8
10 53 56 148 90 184 91 243 5 247 -30 1 -33 -2 -40 -39 -5 -22 -37 -98 -72
-170 -62 -129 -114 -201 -138 -193 -24 8 -38 52 -32 98 11 93 116 270 159 270
17 0 19 -12 5 -26 -8 -8 -6 -15 4 -24 24 -19 46 -5 46 29 0 57 -69 76 -151 43
-44 -18 -93 -76 -139 -168 -66 -129 -133 -214 -168 -214 -21 0 -14 20 66 176
23 45 46 103 51 129 8 43 7 50 -15 71 -26 27 -48 29 -84 9 -14 -8 -37 -14 -52
-15 -24 0 -26 3 -23 37 4 57 -9 83 -44 83 -55 0 -73 -59 -35 -115 29 -43 28
-34 7 -81 -9 -22 -17 -41 -18 -44 -25 -83 -175 -301 -268 -387 -99 -92 -194
-113 -252 -55 -81 81 -62 263 51 480 66 128 169 245 238 272 82 31 68 -149
-18 -229 -30 -28 -23 -52 24 -71 40 -17 71 4 104 69 20 39 24 61 23 117 -5
147 -99 214 -230 164z m1575 -807 c-5 -10 -17 -34 -26 -54 -22 -48 -58 -65
-81 -39 -24 27 -4 56 58 86 62 29 60 28 49 7z"/>
<path d="M2972 2309 c-13 -5 -21 -13 -18 -18 8 -12 -12 -65 -71 -191 -83 -175
-100 -234 -81 -274 19 -43 88 -49 88 -8 0 32 28 102 78 191 110 200 126 294
52 305 -14 3 -35 0 -48 -5z"/>
<path d="M673 1718 c-33 -48 -142 -156 -179 -179 -38 -23 -37 -25 15 -126 78
-148 153 -262 277 -422 8 -11 16 -5 37 30 31 51 60 85 102 117 20 16 30 33 31
55 7 78 22 125 59 173 l24 31 -25 36 c-13 20 -50 83 -82 140 -42 76 -62 103
-75 101 -32 -4 -87 17 -121 47 -19 16 -35 29 -37 29 -2 0 -14 -15 -26 -32z"/>
<path d="M4088 1701 c-34 -20 -61 -49 -106 -116 -34 -50 -71 -102 -84 -117
-13 -14 -31 -37 -42 -50 -10 -12 -35 -40 -55 -61 -20 -21 -31 -38 -26 -37 28
6 56 -2 90 -26 l38 -25 31 33 c80 85 165 202 230 316 20 35 36 65 36 67 0 2
-15 12 -33 23 l-33 19 -46 -26z"/>
<path d="M4634 1719 c-3 -6 -25 -19 -47 -29 -45 -20 -106 -18 -143 6 -19 13
-29 14 -57 4 -27 -11 -40 -27 -76 -96 -23 -46 -72 -127 -107 -179 -35 -53 -64
-97 -64 -99 0 -3 12 -7 28 -11 15 -3 37 -14 50 -24 23 -17 25 -17 75 7 35 17
69 25 111 25 81 1 129 -22 162 -80 l26 -43 30 47 c72 113 208 394 208 429 0 9
-8 10 -27 5 -44 -11 -82 -4 -124 23 -25 17 -40 22 -45 15z"/>
<path d="M1020 1695 c0 -10 103 -182 118 -198 15 -14 24 -15 47 -8 17 6 45 12
63 15 19 2 36 7 39 10 3 3 -8 22 -24 43 -17 21 -41 57 -54 80 -23 40 -24 41
-79 41 -30 0 -67 5 -82 11 -16 6 -28 9 -28 6z"/>
<path d="M1253 1389 c-79 -14 -133 -55 -164 -123 -20 -44 -25 -116 -9 -145 8
-15 2 -22 -36 -41 -54 -28 -120 -97 -141 -148 -49 -117 12 -234 140 -269 53
-15 172 -6 223 16 93 40 152 127 133 195 -10 36 -61 85 -89 87 -11 1 -26 2
-32 2 -77 6 -180 -49 -173 -92 4 -32 95 -30 95 2 0 38 73 66 121 47 94 -40 46
-173 -79 -216 -71 -24 -135 -4 -185 59 -25 30 -31 46 -30 86 0 59 35 125 89
170 30 24 41 28 61 20 60 -23 183 5 183 41 0 28 -34 50 -86 54 -27 2 -52 4
-56 5 -16 2 -7 83 12 121 21 42 77 90 107 92 79 6 118 -67 76 -141 -21 -35
-17 -41 31 -45 69 -7 88 56 39 131 -46 72 -137 108 -230 92z"/>
<path d="M3108 1329 c-24 -42 -23 -52 11 -72 40 -23 46 -22 68 16 23 38 14 72
-21 81 -35 9 -40 7 -58 -25z"/>
<path d="M2735 1276 c-29 -21 -29 -60 -1 -87 l25 -24 -40 -75 c-70 -136 -183
-230 -236 -197 -14 9 -17 75 -5 93 4 6 23 16 43 23 47 15 112 72 133 115 13
28 14 39 5 60 -10 22 -19 26 -56 26 -80 0 -137 -43 -207 -154 -43 -67 -111
-138 -156 -161 -37 -19 -38 -13 -4 23 36 38 78 129 80 177 4 99 -92 149 -176
91 l-35 -23 -10 21 c-7 14 -22 22 -46 24 -34 3 -37 1 -43 -28 -19 -99 -168
-311 -197 -283 -7 7 -14 32 -16 55 -1 24 -5 61 -7 84 -4 36 -1 45 27 70 58 54
105 85 123 82 23 -4 32 30 10 38 -22 9 -76 -21 -128 -70 l-46 -45 -12 29 c-20
47 -55 73 -100 73 -44 0 -69 -22 -118 -103 -33 -57 -9 -59 29 -3 51 75 59 80
75 58 8 -10 14 -26 15 -34 0 -9 2 -23 4 -31 17 -85 18 -81 -51 -147 -36 -35
-71 -63 -77 -64 -7 -1 -21 -2 -32 -3 -26 -1 -31 -32 -6 -39 23 -6 67 19 138
79 50 43 65 52 61 37 -4 -14 19 -68 39 -90 25 -28 58 -29 101 -3 43 26 45 26
22 -12 -33 -57 -72 -170 -65 -195 11 -45 75 -56 75 -13 0 23 201 419 237 466
13 18 38 39 56 48 30 14 33 14 45 -2 32 -41 -12 -171 -84 -248 -36 -38 -65
-46 -57 -15 6 24 -13 36 -32 21 -45 -37 7 -77 97 -74 78 1 134 23 188 70 l47
43 12 -39 c13 -45 50 -70 102 -70 90 0 206 107 284 261 23 45 28 49 60 49 19
0 35 -4 35 -8 0 -5 -14 -37 -31 -71 -61 -128 -67 -214 -14 -227 35 -9 63 4
113 50 25 22 42 36 39 29 -4 -7 -1 -28 7 -48 13 -31 19 -35 51 -35 31 0 45 9
91 54 46 46 54 51 54 33 0 -12 10 -35 23 -50 43 -53 140 -45 214 18 l42 35 -1
-29 c-1 -39 19 -63 50 -59 19 2 26 10 29 31 5 36 92 183 134 225 18 18 45 42
61 53 46 33 47 0 2 -87 -21 -41 -40 -83 -41 -92 -14 -66 -14 -85 1 -107 30
-46 91 -27 154 47 28 33 42 36 42 7 0 -33 53 -79 91 -79 55 0 107 22 156 66
50 44 53 45 57 22 14 -82 90 -111 181 -69 66 30 185 164 185 208 0 19 -20 16
-27 -4 -21 -57 -131 -169 -178 -182 -48 -13 -66 3 -64 54 3 41 5 45 44 60 54
20 118 75 139 119 13 28 14 39 5 60 -10 22 -19 26 -56 26 -80 0 -141 -45 -203
-150 -83 -141 -218 -222 -233 -142 -6 32 26 133 55 177 51 74 108 113 95 66
-6 -25 22 -37 41 -17 13 13 13 18 -2 40 -35 54 -160 21 -217 -58 -16 -22 -47
-68 -69 -101 -49 -77 -103 -135 -124 -135 -24 0 -20 14 29 112 32 64 45 102
45 132 0 83 -64 98 -142 35 -34 -27 -38 -28 -38 -10 0 30 -28 52 -63 49 -24
-2 -30 -8 -33 -30 -6 -60 -92 -193 -160 -248 -79 -63 -129 -57 -126 14 2 47 6
53 40 61 45 10 117 70 140 116 19 38 20 46 8 64 -11 16 -24 20 -68 20 -47 0
-61 -5 -100 -35 -28 -21 -62 -63 -88 -105 -45 -77 -111 -160 -140 -175 -36
-19 -28 17 19 96 26 43 56 100 66 126 17 45 17 49 1 73 -14 20 -24 25 -48 23
-26 -3 -33 -9 -43 -43 -33 -110 -150 -274 -197 -275 -22 0 -17 11 43 116 67
114 77 145 55 179 -15 23 -23 26 -52 21 -19 -3 -50 -9 -70 -12 l-36 -6 6 33
c3 23 0 39 -11 51 -19 22 -33 23 -58 4z m-105 -119 c0 -31 -54 -94 -101 -116
-21 -11 -39 -18 -39 -16 0 12 58 101 82 125 35 36 58 39 58 7z m800 5 c0 -31
-54 -95 -98 -119 -23 -12 -42 -20 -42 -17 0 3 12 26 26 52 45 81 114 131 114
84z m1010 -7 c0 -31 -52 -90 -101 -116 -35 -18 -38 -18 -32 -2 21 56 94 143
120 143 7 0 13 -11 13 -25z"/>
<path d="M2645 791 c-87 -59 -189 -70 -268 -30 -34 17 -43 18 -73 7 -19 -6
-34 -15 -34 -18 0 -4 37 -13 83 -20 110 -18 361 -20 472 -4 50 7 99 13 110 13
13 1 16 4 9 11 -8 8 -19 8 -38 0 -37 -14 -105 -15 -138 -2 -15 6 -40 24 -55
40 l-28 30 -40 -27z"/>
<path d="M1605 765 c-22 -13 -58 -26 -80 -29 -22 -4 -44 -14 -49 -24 -19 -36
-105 -110 -154 -132 -29 -13 -52 -27 -52 -30 0 -11 248 -155 341 -198 205 -95
468 -175 650 -197 24 -3 76 -9 114 -14 70 -9 482 -8 520 2 11 3 43 8 70 11
146 20 429 100 577 164 214 94 432 229 601 375 l59 51 -24 18 c-24 19 -27 19
-97 -7 -60 -22 -139 -21 -191 2 -43 18 -44 18 -86 -3 -51 -26 -111 -24 -158 5
-31 19 -32 19 -61 1 -40 -24 -92 -32 -133 -19 -33 11 -47 7 -157 -41 -50 -22
-227 -73 -290 -84 -16 -3 -39 -8 -50 -10 -173 -35 -404 -39 -620 -11 -38 5
-61 9 -115 21 -14 3 -38 7 -53 10 -16 3 -47 12 -70 20 -23 8 -57 17 -74 20
-27 4 -33 2 -34 -13 -4 -89 -71 -148 -162 -140 -57 5 -93 29 -125 83 -23 40
-28 110 -11 145 6 12 2 21 -16 33 -13 9 -26 16 -27 15 -2 -1 -21 -11 -43 -24z"/>
</g>
</svg>
