<?xml version="1.0" encoding="UTF-8"?>
<svg width="121px" height="168px" viewBox="0 0 121 168" version="1.1" xmlns="http://www.w3.org/2000/svg" xmlns:xlink="http://www.w3.org/1999/xlink">
    <!-- Generator: Sketch 50.2 (55047) - http://www.bohemiancoding.com/sketch -->
    <title>visual</title>
    <desc>Created with Sketch.</desc>
    <defs></defs>
    <g id="flow-cocktail" stroke="none" stroke-width="1" fill="none" fill-rule="evenodd">
        <g id="3.4" transform="translate(-496.000000, -552.000000)">
            <g id="popup" transform="translate(432.000000, 264.000000)">
                <g id="visual" transform="translate(40.000000, 288.000000)">
                    <rect id="Rectangle-5" x="0" y="0" width="168" height="168"></rect>
                    <g id="check" transform="translate(55.000000, 0.000000)">
                        <circle id="Oval" fill="#81DCB1" cx="29" cy="29" r="29"></circle>
                        <path d="M16.9166667,27.4633816 L25.6274102,40.1507775 C25.8774875,40.5150208 26.3754927,40.6075706 26.7397359,40.3574933 C26.814593,40.3060989 26.8801542,40.2423356 26.9336097,40.1689361 L42.6944444,18.5277778" id="Path-2" stroke="#FFFFFF" stroke-width="6.4" stroke-linecap="round"></path>
                    </g>
                    <g id="cocktail" transform="translate(23.000000, 57.000000)">
                        <path d="M80.024566,34.0000206 C80.0082527,33.668736 80,33.3353317 80,33 C80,21.954305 88.954305,13 100,13 C111.045695,13 120,21.954305 120,33 C120,43.9306496 111.231249,52.8132477 100.344448,52.9970936 C101.610171,47.8278918 102.711287,42.2657615 103.647788,36.3107028 C103.663951,36.2079244 103.67207,36.1040415 103.67207,36 C103.67207,34.8954364 102.776644,34.0000107 101.67208,34.0000107 L80.0245654,34.0000082 Z" id="Combined-Shape" stroke="#FD9B40" stroke-width="4" fill="#FCE1C8"></path>
                        <path d="M12.4817014,2.05843827 L29.2408507,6.21731966 C29.6868387,6.3279942 30,6.72836675 30,7.18788184 L30,9.01900055 C30,9.5712853 29.5522847,10.0190006 29,10.0190006 C28.8995495,10.0190006 28.7996722,10.0038656 28.7037315,9.97410523 L15.2962685,5.81517934 C14.7687788,5.65155473 14.2085199,5.94652572 14.0448953,6.47401546 C14.015135,6.56995625 14,6.66983347 14,6.77028401 L14,61 L10,61 L10,3.99956262 C10,2.89499312 10.8954305,1.99956262 12,1.99956262 C12.1623617,1.99956262 12.3241193,2.01933334 12.4817014,2.05843827 Z" id="Combined-Shape" fill="#9FC7E3" transform="translate(20.000000, 31.499781) scale(-1, 1) rotate(20.000000) translate(-20.000000, -31.499781) "></path>
                        <path d="M13.75,52.2419727 L15.9500231,51.3590522 C16.9762341,50.9472098 18.0636465,50.7084239 19.1679952,50.6524146 L36.7738341,49.7594986 C37.5882206,49.7181953 38.4046018,49.7766574 39.2047929,49.9335826 L51.7736165,52.3984499 C52.9157687,52.622437 54.0882556,52.6453119 55.2382752,52.4660445 L71.3718938,49.9511036 C72.4500287,49.7830417 73.5484017,49.7925669 74.6234598,49.9793014 L89.1221631,52.4976841 C90.0362733,52.6564624 90.9680329,52.6872548 91.8906317,52.5891752 L95.25,52.2320479 C96.9131608,52.0552408 98.4047496,53.2601686 98.5815567,54.9233295 C98.6300838,55.3798072 98.574202,55.8413438 98.4181355,56.2730498 C87.0807416,87.6342442 72.1080226,103.591201 53.5,104.143927 C34.7750051,104.700128 20.6545076,89.2105813 11.1385074,57.6752858 L11.1385303,57.6752789 C10.470404,55.4611595 11.6036654,53.1033468 13.75,52.2419727 Z" id="Rectangle-7" fill="#FE9EA4"></path>
                        <path d="M6.32793027,34 L101.67208,34.0000107 C102.776644,34.0000107 103.67207,34.8954364 103.67207,36 C103.67207,36.1040415 103.663951,36.2079244 103.647788,36.3107028 C96.5511737,81.4369009 80.0019109,104 54,104 C27.9980893,104 11.4488267,81.4369014 4.35221199,36.3107043 L4.35221218,36.3107042 C4.18061486,35.2195453 4.92606686,34.195879 6.01722583,34.0242817 C6.12000474,34.0081185 6.2238882,34 6.32793027,34 Z" id="Rectangle-7" stroke="#EBEBEB" stroke-width="6" fill-opacity="0.4" fill="#EBEBEB"></path>
                        <path d="M53.9998152,101 L85.3779044,107.036008 C86.4625875,107.244661 87.1727496,108.293118 86.9640959,109.377801 C86.7829603,110.319432 85.9589978,111 85.0001034,111 L22.9995271,111 C21.8949576,111 20.9995271,110.104569 20.9995271,109 C20.9995271,108.041106 21.6800954,107.217143 22.6217261,107.036008 L53.9998152,101 Z" id="Rectangle-10" fill="#EBEBEB"></path>
                    </g>
                </g>
            </g>
        </g>
    </g>
</svg>