<?xml version="1.0" encoding="UTF-8"?>
<svg width="12px" height="12px" viewBox="0 0 12 12" version="1.1" xmlns="http://www.w3.org/2000/svg" xmlns:xlink="http://www.w3.org/1999/xlink">
    <!-- Generator: Sketch 50 (54983) - http://www.bohemiancoding.com/sketch -->
    <title>Combined Shape</title>
    <desc>Created with Sketch.</desc>
    <defs></defs>
    <g id="flow-cocktail" stroke="none" stroke-width="1" fill="none" fill-rule="evenodd">
        <g id="3.0" transform="translate(-954.000000, -306.000000)" fill="#9C9BA1">
            <g id="popup" transform="translate(432.000000, 264.000000)">
                <g id="close" transform="translate(463.000000, 40.000000)">
                    <g id="Combined-Shape" transform="translate(57.000000, 0.000000)">
                        <path d="M9,7 L15,7 C15.5522847,7 16,7.44771525 16,8 C16,8.55228475 15.5522847,9 15,9 L9,9 L9,15 C9,15.5522847 8.55228475,16 8,16 C7.44771525,16 7,15.5522847 7,15 L7,9 L1,9 C0.44771525,9 0,8.55228475 0,8 C0,7.44771525 0.44771525,7 1,7 L7,7 L7,1 C7,0.44771525 7.44771525,1.01453063e-16 8,0 C8.55228475,-1.01453063e-16 9,0.44771525 9,1 L9,7 Z" transform="translate(8.000000, 8.000000) rotate(45.000000) translate(-8.000000, -8.000000) "></path>
                    </g>
                </g>
            </g>
        </g>
    </g>
</svg>