<?xml version="1.0" encoding="UTF-8"?>
<svg version="1.1" viewBox="0 0 12 12" xmlns="http://www.w3.org/2000/svg" xmlns:xlink="http://www.w3.org/1999/xlink">
<desc>Created with Sketch.</desc>
<defs>
<rect id="a" x="-4.4409e-16" width="16" height="16"/>
</defs>
<g fill="none" fill-rule="evenodd">
<g transform="translate(-1369 -775)">
<g transform="translate(16 647)">
<g transform="translate(1234 42)">
<g transform="translate(117 84)">
<mask id="b" fill="white">
<use xlink:href="#a"/>
</mask>
<path transform="translate(8 8) rotate(45) translate(-8 -8)" d="m9 7h6c0.55228 0 1 0.44772 1 1s-0.44772 1-1 1h-6v6c0 0.55228-0.44772 1-1 1s-1-0.44772-1-1v-6h-6c-0.55228 0-1-0.44772-1-1s0.44772-1 1-1h6v-6c0-0.55228 0.44772-1 1-1s1 0.44772 1 1v6z" fill="#1072B8" mask="url(#b)"/>
</g>
</g>
</g>
</g>
</g>
</svg>
