<?xml version="1.0" encoding="UTF-8"?>
<svg version="1.1" viewBox="0 0 16 12" xmlns="http://www.w3.org/2000/svg" xmlns:xlink="http://www.w3.org/1999/xlink">
<defs>
<rect id="b" width="16" height="16"/>
</defs>
<g fill="none" fill-rule="evenodd">
<g transform="translate(0 -2)">
<g stroke="#1072B8" stroke-width="2">
<mask id="a" fill="white">
<use xlink:href="#b"/>
</mask>
<path d="m2 3c-0.55228 0-1 0.44772-1 1v8c0 0.55228 0.44772 1 1 1h12c0.55228 0 1-0.44772 1-1v-8c0-0.55228-0.44772-1-1-1h-12z" mask="url(#a)"/>
<path d="m1 4.2038v7.7962c0 0.55228 0.44772 1 1 1h12c0.55228 0 1-0.44772 1-1v-7.7962l-5.683 4.9726c-0.75405 0.6598-1.88 0.6598-2.634 0l-5.683-4.9726z" mask="url(#a)"/>
</g>
</g>
</g>
</svg>
