<?xml version="1.0" encoding="UTF-8"?>
<svg width="48px" height="48px" viewBox="0 0 48 48" version="1.1" xmlns="http://www.w3.org/2000/svg" xmlns:xlink="http://www.w3.org/1999/xlink">
    <!-- Generator: Sketch 50.2 (55047) - http://www.bohemiancoding.com/sketch -->
    <title>facebook</title>
    <desc>Created with Sketch.</desc>
    <defs></defs>
    <g id="Page-1" stroke="none" stroke-width="1" fill="none" fill-rule="evenodd">
        <g id="iPhone-8---menu-open" transform="translate(-311.000000, -431.000000)">
            <g id="mobile-scrolled">
                <g id="social" transform="translate(16.000000, 431.000000)">
                    <g id="facebook" transform="translate(295.000000, 0.000000)">
                        <path d="M29.3789062,11.7388393 L29.3789062,15.421875 L27.1886161,15.421875 C26.3887609,15.421875 25.8493318,15.589284 25.5703125,15.9241071 C25.2912932,16.2589302 25.1517857,16.7611574 25.1517857,17.4308036 L25.1517857,20.0675223 L29.2393973,20.0675223 L28.6953125,24.1969866 L25.1517857,24.1969866 L25.1517857,34.7857143 L20.8828125,34.7857143 L20.8828125,24.1969866 L17.3253348,24.1969866 L17.3253348,20.0675223 L20.8828125,20.0675223 L20.8828125,17.0262277 C20.8828125,15.2963083 21.3664386,13.9547109 22.3337054,13.0013951 C23.3009721,12.0480793 24.5890917,11.5714286 26.1981027,11.5714286 C27.565297,11.5714286 28.6255543,11.6272316 29.3789062,11.7388393 Z" id="" fill="#363542"></path>
                        <circle id="Oval" stroke="#363542" cx="24" cy="24" r="23.5"></circle>
                    </g>
                </g>
            </g>
        </g>
    </g>
</svg>