<svg xmlns="http://www.w3.org/2000/svg" width="32" height="32" viewBox="0 0 32 32">
  <g fill="none" fill-rule="evenodd">
    <path fill="#363542" d="M19.5273438,9.24330357 L19.5273438,11.453125 L18.2131696,11.453125 C17.7332565,11.453125 17.4095991,11.5535704 17.2421875,11.7544643 C17.0747759,11.9553581 16.9910714,12.2566944 16.9910714,12.6584821 L16.9910714,14.2405134 L19.4436384,14.2405134 L19.1171875,16.718192 L16.9910714,16.718192 L16.9910714,23.0714286 L14.4296875,23.0714286 L14.4296875,16.718192 L12.2952009,16.718192 L12.2952009,14.2405134 L14.4296875,14.2405134 L14.4296875,12.4157366 C14.4296875,11.377785 14.7198632,10.5728265 15.3002232,10.0008371 C15.8805833,9.42884759 16.653455,9.14285714 17.6188616,9.14285714 C18.4391782,9.14285714 19.0753326,9.17633895 19.5273438,9.24330357 Z"/>
    <circle cx="16" cy="16" r="15.5" stroke="#363542"/>
  </g>
</svg>
