<svg xmlns="http://www.w3.org/2000/svg" xmlns:xlink="http://www.w3.org/1999/xlink" width="16" height="16" viewBox="0 0 16 16">
  <defs>
    <rect id="groente-active-a" width="16" height="16"/>
  </defs>
  <g fill="none" fill-rule="evenodd">
    <mask id="groente-active-b" fill="#fff">
      <use xlink:href="#groente-active-a"/>
    </mask>
    <path stroke="#5499CC" stroke-width="2" d="M10 9.90044607L6 9.74068796 6 14C6 14.5522847 6.44771525 15 7 15L9 15C9.55228475 15 10 14.5522847 10 14L10 9.90044607zM4.75888056 8.90343839L5.15443136 8.80043606 5.50888219 9.0039908C5.95871258 9.26232032 6.46814649 9.40002441 7 9.40002441 7.6120884 9.40002441 8.19431228 9.21740961 8.68813955 8.8804504L9.35364474 8.42634808 9.93895339 8.97999044C10.4928299 9.50390117 11.2218798 9.80004883 12 9.80004883 13.6568542 9.80004883 15 8.45690308 15 6.80004883 15 5.14319458 13.6568542 3.80004883 12 3.80004883 11.954124 3.80004883 11.9084053 3.80107125 11.8628619 3.80310884L11.0937043 3.83752072 10.8637931 3.10272248C10.475543 1.86187208 9.3211164 1 8 1 6.90588869 1 5.91596826 1.58987669 5.38657757 2.52547027L5.0554077 3.11074765 4.38844651 3.02480651C4.26056164 3.00832793 4.13093248 3 4 3 2.34314575 3 1 4.34314575 1 6 1 7.65685425 2.34314575 9 4 9 4.25941496 9 4.51361711 8.96730555 4.75888056 8.90343839z" mask="url(#groente-active-b)"/>
  </g>
</svg>
