<?xml version="1.0" encoding="UTF-8"?>
<svg width="16px" height="16px" viewBox="0 0 16 16" version="1.1" xmlns="http://www.w3.org/2000/svg" xmlns:xlink="http://www.w3.org/1999/xlink">
    <!-- Generator: Sketch 50.2 (55047) - http://www.bohemiancoding.com/sketch -->
    <title>info-active</title>
    <desc>Created with Sketch.</desc>
    <defs>
        <rect id="path-1" x="0" y="0" width="16" height="16"></rect>
    </defs>
    <g id="flow-cocktail" stroke="none" stroke-width="1" fill="none" fill-rule="evenodd">
        <g id="1.3" transform="translate(-1264.000000, -304.000000)">
            <g id="display" transform="translate(824.000000, 160.000000)">
                <g id="info-active" transform="translate(440.000000, 144.000000)">
                    <g id="info">
                        <mask id="mask-2" fill="white">
                            <use xlink:href="#path-1"></use>
                        </mask>
                        <g id="Mask"></g>
                        <circle id="Oval" stroke="#8B94A6" stroke-width="2" mask="url(#mask-2)" cx="8" cy="8" r="7"></circle>
                        <path d="M8.99,11.5029902 C8.99,11.5836573 8.96066696,11.6533233 8.902,11.7119902 C8.84333304,11.7706572 8.77366707,11.7999902 8.693,11.7999902 L7.307,11.7999902 C7.22633293,11.7999902 7.15666696,11.7706572 7.098,11.7119902 C7.03933304,11.6533233 7.01,11.5836573 7.01,11.5029902 L7.01,10.3919902 C7.01,10.3113232 7.03933304,10.2416572 7.098,10.1829902 C7.15666696,10.1243233 7.22633293,10.0949902 7.307,10.0949902 L8.693,10.0949902 C8.77366707,10.0949902 8.84333304,10.1243233 8.902,10.1829902 C8.96066696,10.2416572 8.99,10.3113232 8.99,10.3919902 L8.99,11.5029902 Z M8.033,3.98999023 C8.44366872,3.98999023 8.83049818,4.046823 9.1935,4.16049023 C9.55650182,4.27415747 9.871832,4.43182256 10.1395,4.63349023 C10.407168,4.83515791 10.6179992,5.07348886 10.772,5.34849023 C10.9260008,5.62349161 11.003,5.92598858 11.003,6.25599023 C11.003,6.51999155 10.9590004,6.75098924 10.871,6.94899023 C10.7829996,7.14699122 10.6711673,7.32665609 10.5355,7.48799023 C10.3998327,7.64932437 10.2513341,7.79415626 10.09,7.92249023 C9.92866586,8.05082421 9.77283409,8.17732294 9.6225,8.30199023 C9.47216592,8.42665752 9.33650061,8.55682289 9.2155,8.69249023 C9.09449939,8.82815758 9.01200022,8.97665609 8.968,9.13799023 C8.94599989,9.2186573 8.91116691,9.28832327 8.8635,9.34699023 C8.8158331,9.40565719 8.75166707,9.43499023 8.671,9.43499023 L7.329,9.43499023 C7.24833293,9.43499023 7.17866696,9.40565719 7.12,9.34699023 C7.06133304,9.28832327 7.032,9.2186573 7.032,9.13799023 C7.032,8.89598902 7.08149951,8.67965785 7.1805,8.48899023 C7.2795005,8.29832261 7.4023326,8.12415769 7.549,7.96649023 C7.6956674,7.80882278 7.85516581,7.66399089 8.0275,7.53199023 C8.1998342,7.39998957 8.3593326,7.27349084 8.506,7.15249023 C8.6526674,7.03148963 8.7754995,6.90865752 8.8745,6.78399023 C8.97350049,6.65932294 9.023,6.52365763 9.023,6.37699023 C9.023,6.1643225 8.94233414,5.99749084 8.781,5.87649023 C8.61966586,5.75548963 8.37033502,5.69499023 8.033,5.69499023 C7.70299835,5.69499023 7.46650072,5.74448974 7.3235,5.84349023 C7.18049929,5.94249073 7.07600033,6.05065631 7.01,6.16799023 C6.94399967,6.28532415 6.88716691,6.39348974 6.8395,6.49249023 C6.7918331,6.59149073 6.69833403,6.64099023 6.559,6.64099023 L5.217,6.64099023 C5.15099967,6.64099023 5.09416691,6.61899045 5.0465,6.57499023 C4.9988331,6.53099001 4.975,6.47232393 4.975,6.39899023 C4.98233337,6.14232228 5.05566597,5.87282498 5.195,5.59049023 C5.33433403,5.30815549 5.53416537,5.04782476 5.7945,4.80949023 C6.05483464,4.57115571 6.37199813,4.374991 6.746,4.22099023 C7.12000187,4.06698946 7.54899758,3.98999023 8.033,3.98999023 Z" id="?" fill="#8B94A6" mask="url(#mask-2)"></path>
                    </g>
                </g>
            </g>
        </g>
    </g>
</svg>