<svg xmlns="http://www.w3.org/2000/svg" xmlns:xlink="http://www.w3.org/1999/xlink" width="16" height="16" viewBox="0 0 16 16">
  <defs>
    <rect id="info-b" width="16" height="16"/>
  </defs>
  <g fill="none" fill-rule="evenodd">
    <mask id="info-a" fill="white">
      <use xlink:href="#b"/>
    </mask>
    <circle cx="8" cy="8" r="7" mask="url(#a)" stroke="#CCD1DB" stroke-width="2"/>
    <path
      d="m8.99 11.503c0 0.080667-0.029333 0.15033-0.088 0.209-0.058667 0.058667-0.12833 0.088-0.209 0.088h-1.386c-0.080667 0-0.15033-0.029333-0.209-0.088-0.058667-0.058667-0.088-0.12833-0.088-0.209v-1.111c0-0.080667 0.029333-0.15033 0.088-0.209 0.058667-0.058667 0.12833-0.088 0.209-0.088h1.386c0.080667 0 0.15033 0.029333 0.209 0.088 0.058667 0.058667 0.088 0.12833 0.088 0.209v1.111zm-0.957-7.513c0.41067 0 0.7975 0.056833 1.1605 0.1705 0.363 0.11367 0.67833 0.27133 0.946 0.473 0.26767 0.20167 0.4785 0.44 0.6325 0.715 0.154 0.275 0.231 0.5775 0.231 0.9075 0 0.264-0.044 0.495-0.132 0.693s-0.19983 0.37767-0.3355 0.539-0.28417 0.30617-0.4455 0.4345c-0.16133 0.12833-0.31717 0.25483-0.4675 0.3795-0.15033 0.12467-0.286 0.25483-0.407 0.3905-0.121 0.13567-0.2035 0.28417-0.2475 0.4455-0.022 0.080667-0.056833 0.15033-0.1045 0.209-0.047667 0.058667-0.11183 0.088-0.1925 0.088h-1.342c-0.080667 0-0.15033-0.029333-0.209-0.088s-0.088-0.12833-0.088-0.209c0-0.242 0.0495-0.45833 0.1485-0.649 0.099-0.19067 0.22183-0.36483 0.3685-0.5225 0.14667-0.15767 0.30617-0.3025 0.4785-0.4345 0.17233-0.132 0.33183-0.2585 0.4785-0.3795 0.14667-0.121 0.2695-0.24383 0.3685-0.3685 0.099-0.12467 0.1485-0.26033 0.1485-0.407 0-0.21267-0.080666-0.3795-0.242-0.5005-0.16133-0.121-0.41066-0.1815-0.748-0.1815-0.33 0-0.5665 0.0495-0.7095 0.1485-0.143 0.099-0.2475 0.20717-0.3135 0.3245s-0.12283 0.2255-0.1705 0.3245c-0.047667 0.099-0.14117 0.1485-0.2805 0.1485h-1.342c-0.066 0-0.12283-0.022-0.1705-0.066-0.047667-0.044-0.0715-0.10267-0.0715-0.176 0.0073334-0.25667 0.080666-0.52617 0.22-0.8085 0.13933-0.28233 0.33917-0.54267 0.5995-0.781 0.26033-0.23833 0.5775-0.4345 0.9515-0.5885s0.803-0.231 1.287-0.231z"
      fill="#CCD1DB"
      mask="url(#a)"/>
  </g>
</svg>
