<svg xmlns="http://www.w3.org/2000/svg" width="32" height="32" viewBox="0 0 32 32">
  <g fill="none" fill-rule="evenodd">
    <circle cx="16" cy="16" r="15.5" stroke="#363542"/>
    <path fill="#363542" d="M21.4006696,20.0792411 L21.4006696,14.6551339 L20.2706473,14.6551339 C20.382255,15.0066982 20.438058,15.3722079 20.438058,15.7516741 C20.438058,16.4548026 20.2594884,17.1035127 19.9023438,17.6978237 C19.5451991,18.2921347 19.0597129,18.7622751 18.4458705,19.1082589 C17.8320282,19.4542428 17.162392,19.6272321 16.436942,19.6272321 C15.3376061,19.6272321 14.3973253,19.2491667 13.6160714,18.4930246 C12.8348175,17.7368824 12.4441964,16.823108 12.4441964,15.7516741 C12.4441964,15.3722079 12.4999994,15.0066982 12.6116071,14.6551339 L11.4313616,14.6551339 L11.4313616,20.0792411 C11.4313616,20.2243311 11.4801892,20.3457026 11.577846,20.4433594 C11.6755027,20.5410161 11.7968743,20.5898438 11.9419643,20.5898438 L20.890067,20.5898438 C21.0295766,20.5898438 21.1495531,20.5410161 21.25,20.4433594 C21.3504469,20.3457026 21.4006696,20.2243311 21.4006696,20.0792411 Z M18.2617188,17.3922991 C18.7695338,16.9012252 19.0234375,16.3097133 19.0234375,15.6177455 C19.0234375,14.9257778 18.7709289,14.3356609 18.265904,13.8473772 C17.7608792,13.3590935 17.1512313,13.1149554 16.436942,13.1149554 C15.7282331,13.1149554 15.1213753,13.3590935 14.6163504,13.8473772 C14.1113256,14.3356609 13.858817,14.9257778 13.858817,15.6177455 C13.858817,16.3097133 14.1113256,16.8998301 14.6163504,17.3881138 C15.1213753,17.8763975 15.7282331,18.1205357 16.436942,18.1205357 C17.1512313,18.1205357 17.7594841,17.8777926 18.2617188,17.3922991 Z M21.4006696,12.6043527 L21.4006696,11.2232143 C21.4006696,11.0669635 21.3448666,10.9316412 21.2332589,10.8172433 C21.1216512,10.7028454 20.9849338,10.6456473 20.8231027,10.6456473 L19.3666295,10.6456473 C19.2047983,10.6456473 19.0680809,10.7028454 18.9564732,10.8172433 C18.8448655,10.9316412 18.7890625,11.0669635 18.7890625,11.2232143 L18.7890625,12.6043527 C18.7890625,12.7661838 18.8448655,12.9029012 18.9564732,13.0145089 C19.0680809,13.1261166 19.2047983,13.1819196 19.3666295,13.1819196 L20.8231027,13.1819196 C20.9849338,13.1819196 21.1216512,13.1261166 21.2332589,13.0145089 C21.3448666,12.9029012 21.4006696,12.7661838 21.4006696,12.6043527 Z M22.8571429,10.8632812 L22.8571429,20.422433 C22.8571429,20.8744442 22.6953141,21.2622752 22.3716518,21.5859375 C22.0479895,21.9095998 21.6601585,22.0714286 21.2081473,22.0714286 L11.6489955,22.0714286 C11.1969843,22.0714286 10.8091534,21.9095998 10.4854911,21.5859375 C10.1618287,21.2622752 10,20.8744442 10,20.422433 L10,10.8632812 C10,10.4112701 10.1618287,10.0234391 10.4854911,9.69977679 C10.8091534,9.37611445 11.1969843,9.21428571 11.6489955,9.21428571 L21.2081473,9.21428571 C21.6601585,9.21428571 22.0479895,9.37611445 22.3716518,9.69977679 C22.6953141,10.0234391 22.8571429,10.4112701 22.8571429,10.8632812 Z"/>
  </g>
</svg>
