<?xml version="1.0" encoding="UTF-8"?>
<svg width="48px" height="48px" viewBox="0 0 48 48" version="1.1" xmlns="http://www.w3.org/2000/svg" xmlns:xlink="http://www.w3.org/1999/xlink">
    <!-- Generator: Sketch 50.2 (55047) - http://www.bohemiancoding.com/sketch -->
    <title>instagram</title>
    <desc>Created with Sketch.</desc>
    <defs></defs>
    <g id="Page-1" stroke="none" stroke-width="1" fill="none" fill-rule="evenodd">
        <g id="iPhone-8---menu-open" transform="translate(-311.000000, -495.000000)">
            <g id="mobile-scrolled">
                <g id="social" transform="translate(16.000000, 431.000000)">
                    <g id="instagram" transform="translate(295.000000, 64.000000)">
                        <circle id="Oval" stroke="#363542" cx="24" cy="24" r="23.5"></circle>
                        <path d="M28.2857143,24.0714286 C28.2857143,23.0855605 27.9369455,22.2438651 27.2393973,21.546317 C26.5418492,20.8487688 25.7001537,20.5 24.7142857,20.5 C23.7284177,20.5 22.8867222,20.8487688 22.1891741,21.546317 C21.491626,22.2438651 21.1428571,23.0855605 21.1428571,24.0714286 C21.1428571,25.0572966 21.491626,25.898992 22.1891741,26.5965402 C22.8867222,27.2940883 23.7284177,27.6428571 24.7142857,27.6428571 C25.7001537,27.6428571 26.5418492,27.2940883 27.2393973,26.5965402 C27.9369455,25.898992 28.2857143,25.0572966 28.2857143,24.0714286 Z M30.2109375,24.0714286 C30.2109375,25.5967338 29.6761586,26.8941539 28.6065848,27.9637277 C27.537011,29.0333015 26.239591,29.5680804 24.7142857,29.5680804 C23.1889805,29.5680804 21.8915604,29.0333015 20.8219866,27.9637277 C19.7524128,26.8941539 19.2176339,25.5967338 19.2176339,24.0714286 C19.2176339,22.5461233 19.7524128,21.2487033 20.8219866,20.1791295 C21.8915604,19.1095557 23.1889805,18.5747768 24.7142857,18.5747768 C26.239591,18.5747768 27.537011,19.1095557 28.6065848,20.1791295 C29.6761586,21.2487033 30.2109375,22.5461233 30.2109375,24.0714286 Z M31.7176339,18.3515625 C31.7176339,18.7049869 31.5920771,19.0072532 31.3409598,19.2583705 C31.0898425,19.5094879 30.7875762,19.6350446 30.4341518,19.6350446 C30.0807274,19.6350446 29.7784611,19.5094879 29.5273438,19.2583705 C29.2762264,19.0072532 29.1506696,18.7049869 29.1506696,18.3515625 C29.1506696,17.9981381 29.2762264,17.6958718 29.5273438,17.4447545 C29.7784611,17.1936371 30.0807274,17.0680804 30.4341518,17.0680804 C30.7875762,17.0680804 31.0898425,17.1936371 31.3409598,17.4447545 C31.5920771,17.6958718 31.7176339,17.9981381 31.7176339,18.3515625 Z M24.7142857,15.2823661 C24.6491812,15.2823661 24.293437,15.2800409 23.6470424,15.2753906 C23.0006478,15.2707403 22.5100463,15.2707403 22.1752232,15.2753906 C21.8404001,15.2800409 21.3916509,15.2939917 20.8289621,15.3172433 C20.2662732,15.3404949 19.7872974,15.3869974 19.3920201,15.4567522 C18.9967428,15.526507 18.6642499,15.6125367 18.3945312,15.7148438 C17.9294992,15.9008566 17.5202771,16.1705711 17.1668527,16.5239955 C16.8134283,16.8774199 16.5437137,17.286642 16.3577009,17.7516741 C16.2553938,18.0213927 16.1693642,18.3538857 16.0996094,18.7491629 C16.0298546,19.1444402 15.9833521,19.6234161 15.9601004,20.1861049 C15.9368488,20.7487937 15.9228981,21.197543 15.9182478,21.5323661 C15.9135974,21.8671892 15.9135974,22.3577907 15.9182478,23.0041853 C15.9228981,23.6505799 15.9252232,24.0063241 15.9252232,24.0714286 C15.9252232,24.1365331 15.9228981,24.4922773 15.9182478,25.1386719 C15.9135974,25.7850665 15.9135974,26.275668 15.9182478,26.6104911 C15.9228981,26.9453142 15.9368488,27.3940634 15.9601004,27.9567522 C15.9833521,28.5194411 16.0298546,28.9984169 16.0996094,29.3936942 C16.1693642,29.7889715 16.2553938,30.1214644 16.3577009,30.391183 C16.5437137,30.8562151 16.8134283,31.2654372 17.1668527,31.6188616 C17.5202771,31.972286 17.9294992,32.2420006 18.3945312,32.4280134 C18.6642499,32.5303205 18.9967428,32.6163501 19.3920201,32.6861049 C19.7872974,32.7558597 20.2662732,32.8023622 20.8289621,32.8256138 C21.3916509,32.8488654 21.8404001,32.8628162 22.1752232,32.8674665 C22.5100463,32.8721168 23.0006478,32.8721168 23.6470424,32.8674665 C24.293437,32.8628162 24.6491812,32.8604911 24.7142857,32.8604911 C24.7793902,32.8604911 25.1351344,32.8628162 25.781529,32.8674665 C26.4279236,32.8721168 26.9185251,32.8721168 27.2533482,32.8674665 C27.5881713,32.8628162 28.0369205,32.8488654 28.5996094,32.8256138 C29.1622982,32.8023622 29.6412741,32.7558597 30.0365513,32.6861049 C30.4318286,32.6163501 30.7643216,32.5303205 31.0340402,32.4280134 C31.4990723,32.2420006 31.9082944,31.972286 32.2617188,31.6188616 C32.6151431,31.2654372 32.8848577,30.8562151 33.0708705,30.391183 C33.1731776,30.1214644 33.2592072,29.7889715 33.3289621,29.3936942 C33.3987169,28.9984169 33.4452194,28.5194411 33.468471,27.9567522 C33.4917226,27.3940634 33.5056733,26.9453142 33.5103237,26.6104911 C33.514974,26.275668 33.514974,25.7850665 33.5103237,25.1386719 C33.5056733,24.4922773 33.5033482,24.1365331 33.5033482,24.0714286 C33.5033482,24.0063241 33.5056733,23.6505799 33.5103237,23.0041853 C33.514974,22.3577907 33.514974,21.8671892 33.5103237,21.5323661 C33.5056733,21.197543 33.4917226,20.7487937 33.468471,20.1861049 C33.4452194,19.6234161 33.3987169,19.1444402 33.3289621,18.7491629 C33.2592072,18.3538857 33.1731776,18.0213927 33.0708705,17.7516741 C32.8848577,17.286642 32.6151431,16.8774199 32.2617188,16.5239955 C31.9082944,16.1705711 31.4990723,15.9008566 31.0340402,15.7148438 C30.7643216,15.6125367 30.4318286,15.526507 30.0365513,15.4567522 C29.6412741,15.3869974 29.1622982,15.3404949 28.5996094,15.3172433 C28.0369205,15.2939917 27.5881713,15.2800409 27.2533482,15.2753906 C26.9185251,15.2707403 26.4279236,15.2707403 25.781529,15.2753906 C25.1351344,15.2800409 24.7793902,15.2823661 24.7142857,15.2823661 Z M35.4285714,24.0714286 C35.4285714,26.2012755 35.4053202,27.6754051 35.358817,28.4938616 C35.2658105,30.4283951 34.6891794,31.9257759 33.6289062,32.9860491 C32.5686331,34.0463223 31.0712522,34.6229534 29.1367188,34.7159598 C28.3182623,34.762463 26.8441327,34.7857143 24.7142857,34.7857143 C22.5844388,34.7857143 21.1103092,34.762463 20.2918527,34.7159598 C18.3573192,34.6229534 16.8599383,34.0463223 15.7996652,32.9860491 C14.739392,31.9257759 14.1627609,30.4283951 14.0697545,28.4938616 C14.0232513,27.6754051 14,26.2012755 14,24.0714286 C14,21.9415816 14.0232513,20.467452 14.0697545,19.6489955 C14.1627609,17.7144621 14.739392,16.2170812 15.7996652,15.156808 C16.8599383,14.0965349 18.3573192,13.5199037 20.2918527,13.4268973 C21.1103092,13.3803941 22.5844388,13.3571429 24.7142857,13.3571429 C26.8441327,13.3571429 28.3182623,13.3803941 29.1367188,13.4268973 C31.0712522,13.5199037 32.5686331,14.0965349 33.6289062,15.156808 C34.6891794,16.2170812 35.2658105,17.7144621 35.358817,19.6489955 C35.4053202,20.467452 35.4285714,21.9415816 35.4285714,24.0714286 Z" id="" fill="#363542"></path>
                    </g>
                </g>
            </g>
        </g>
    </g>
</svg>