<svg xmlns="http://www.w3.org/2000/svg" xmlns:xlink="http://www.w3.org/1999/xlink" width="16" height="12" viewBox="0 0 16 12">
  <defs>
    <rect id="mail-default-a" width="16" height="16"/>
  </defs>
  <g fill="none" fill-rule="evenodd" transform="translate(0 -2)">
    <mask id="mail-default-b" fill="#fff">
      <use xlink:href="#mail-default-a"/>
    </mask>
    <path stroke="#EBEBEB" stroke-width="2" d="M2,3 C1.44771525,3 1,3.44771525 1,4 L1,12 C1,12.5522847 1.44771525,13 2,13 L14,13 C14.5522847,13 15,12.5522847 15,12 L15,4 C15,3.44771525 14.5522847,3 14,3 L2,3 Z" mask="url(#mail-default-b)"/>
    <path stroke="#EBEBEB" stroke-width="2" d="M1,4.20376823 L1,12 C1,12.5522847 1.44771525,13 2,13 L14,13 C14.5522847,13 15,12.5522847 15,12 L15,4.20376823 L9.31700922,9.17638516 C8.56295724,9.83618064 7.43704276,9.83618064 6.68299078,9.17638516 L1,4.20376823 Z" mask="url(#mail-default-b)"/>
  </g>
</svg>
