<svg xmlns="http://www.w3.org/2000/svg" xmlns:xlink="http://www.w3.org/1999/xlink" width="16" height="16" viewBox="0 0 16 16">
  <defs>
    <rect id="search-active-a" width="16" height="16"/>
  </defs>
  <g fill="none" fill-rule="evenodd">
    <mask id="search-active-b" fill="#fff">
      <use xlink:href="#search-active-a"/>
    </mask>
    <path fill="#1072B8" fill-rule="nonzero" d="M9.26161419,8.31639502 C9.73989699,7.64476307 10,6.84455497 10,6 C10,3.790861 8.209139,2 6,2 C3.790861,2 2,3.790861 2,6 C2,8.209139 3.790861,10 6,10 C6.84455497,10 7.64476307,9.73989699 8.31639502,9.26161419 L8.8684702,8.8684702 L9.26161419,8.31639502 Z M15.7781746,14.363961 C16.1686989,14.7544853 16.1686989,15.3876503 15.7781746,15.7781746 C15.3876503,16.1686989 14.7544853,16.1686989 14.363961,15.7781746 L9.47653436,10.8907479 C8.49571549,11.589209 7.29583043,12 6,12 C2.6862915,12 0,9.3137085 0,6 C0,2.6862915 2.6862915,0 6,0 C9.3137085,0 12,2.6862915 12,6 C12,7.29583043 11.589209,8.49571549 10.8907479,9.47653436 L15.7781746,14.363961 Z" mask="url(#search-active-b)"/>
  </g>
</svg>
