<?xml version="1.0" encoding="UTF-8"?>
<svg width="14px" height="16px" viewBox="0 0 14 16" version="1.1" xmlns="http://www.w3.org/2000/svg" xmlns:xlink="http://www.w3.org/1999/xlink">
    <defs>
        <rect id="path-1" x="0" y="0" width="16" height="16"></rect>
    </defs>
    <g id="flow-cocktail" stroke="none" stroke-width="1" fill="none" fill-rule="evenodd">
        <g id="2.0" transform="translate(-1265.000000, -372.000000)">
            <g id="display" transform="translate(824.000000, 160.000000)">
                <g id="trash" transform="translate(440.000000, 212.000000)">
                    <mask id="mask-2" fill="white">
                        <use xlink:href="#path-1"></use>
                    </mask>
                    <g id="Mask"></g>
                    <path d="M5,1 C5,0.44771525 5.44771525,-7.86725357e-16 6,-8.8817842e-16 L10,-8.8817842e-16 C10.5522847,-9.89631482e-16 11,0.44771525 11,1 L14,1 C14.5522847,1 15,1.44771525 15,2 C15,2.55228475 14.5522847,3 14,3 L2,3 C1.44771525,3 1,2.55228475 1,2 C1,1.44771525 1.44771525,1 2,1 L5,1 Z M2.00052938,4 L13.9996308,4 C14.5519155,4 14.9996308,4.44771525 14.9996308,5 C14.9996308,5.05651209 14.9948404,5.11292248 14.985311,5.16862533 L13.2745602,15.1686253 C13.1924027,15.6488675 12.776099,16 12.2888799,16 L3.71128024,16 C3.22406122,16 2.80775748,15.6488675 2.72560002,15.1686253 L1.01484916,5.16862533 C0.92171996,4.62424917 1.2875279,4.10744898 1.83190405,4.01431978 C1.8876069,4.00479041 1.94401729,4 2.00052938,4 Z M3.18613228,6 L4.55473296,14 L11.4454272,14 L12.8140279,6 L3.18613228,6 Z" id="Combined-Shape" fill-opacity="0.4" fill="#9C9BA1" mask="url(#mask-2)"></path>
                </g>
            </g>
        </g>
    </g>
</svg>
