<?xml version="1.0" encoding="UTF-8"?>
<svg width="18px" height="21px" viewBox="0 0 18 21" version="1.1" xmlns="http://www.w3.org/2000/svg" xmlns:xlink="http://www.w3.org/1999/xlink">
    <!-- Generator: Sketch 50.2 (55047) - http://www.bohemiancoding.com/sketch -->
    <title>bestand-default</title>
    <desc>Created with Sketch.</desc>
    <defs></defs>
    <g id="cms" stroke="none" stroke-width="1" fill="none" fill-rule="evenodd">
        <g id="Desktop-HD" transform="translate(-152.000000, -252.000000)" fill="#9C9BA1">
            <g id="sectie-menu">
                <g id="afbeelding" transform="translate(136.000000, 205.000000)">
                    <g id="Group" transform="translate(0.000000, 32.000000)">
                        <path d="M32.3839286,20.0982143 C32.5922629,20.3065487 32.7708326,20.5892839 32.9196429,20.9464286 C33.0684531,21.3035732 33.1428571,21.6309509 33.1428571,21.9285714 L33.1428571,34.7857143 C33.1428571,35.0833348 33.0386915,35.3363085 32.8303571,35.5446429 C32.6220228,35.7529772 32.3690491,35.8571429 32.0714286,35.8571429 L17.0714286,35.8571429 C16.773808,35.8571429 16.5208344,35.7529772 16.3125,35.5446429 C16.1041656,35.3363085 16,35.0833348 16,34.7857143 L16,16.9285714 C16,16.6309509 16.1041656,16.3779772 16.3125,16.1696429 C16.5208344,15.9613085 16.773808,15.8571429 17.0714286,15.8571429 L27.0714286,15.8571429 C27.3690491,15.8571429 27.6964268,15.9315469 28.0535714,16.0803571 C28.4107161,16.2291674 28.6934513,16.4077371 28.9017857,16.6160714 L32.3839286,20.0982143 Z M27.4285714,17.375 L27.4285714,21.5714286 L31.625,21.5714286 C31.5505949,21.3556537 31.4687504,21.2031254 31.3794643,21.1138393 L27.8861607,17.6205357 C27.7968746,17.5312496 27.6443463,17.4494051 27.4285714,17.375 Z M31.7142857,34.4285714 L31.7142857,23 L27.0714286,23 C26.773808,23 26.5208344,22.8958344 26.3125,22.6875 C26.1041656,22.4791656 26,22.226192 26,21.9285714 L26,17.2857143 L17.4285714,17.2857143 L17.4285714,34.4285714 L31.7142857,34.4285714 Z M30.2857143,29.4285714 L30.2857143,33 L18.8571429,33 L18.8571429,30.8571429 L21,28.7142857 L22.4285714,30.1428571 L26.7142857,25.8571429 L30.2857143,29.4285714 Z M21,27.2857143 C20.4047589,27.2857143 19.8988116,27.077383 19.4821429,26.6607143 C19.0654741,26.2440455 18.8571429,25.7380982 18.8571429,25.1428571 C18.8571429,24.5476161 19.0654741,24.0416687 19.4821429,23.625 C19.8988116,23.2083313 20.4047589,23 21,23 C21.5952411,23 22.1011884,23.2083313 22.5178571,23.625 C22.9345259,24.0416687 23.1428571,24.5476161 23.1428571,25.1428571 C23.1428571,25.7380982 22.9345259,26.2440455 22.5178571,26.6607143 C22.1011884,27.077383 21.5952411,27.2857143 21,27.2857143 Z" id="bestand-default"></path>
                    </g>
                </g>
            </g>
        </g>
    </g>
</svg>