<?xml version="1.0" encoding="UTF-8"?>
<svg width="36px" height="64px" viewBox="0 0 36 64" version="1.1" xmlns="http://www.w3.org/2000/svg" xmlns:xlink="http://www.w3.org/1999/xlink">
    <!-- Generator: Sketch 50.2 (55047) - http://www.bohemiancoding.com/sketch -->
    <title>Combined Shape@1x</title>
    <desc>Created with Sketch.</desc>
    <defs>
        <rect id="path-1" x="0" y="0" width="64" height="64"></rect>
    </defs>
    <g id="Page-1" stroke="none" stroke-width="1" fill="none" fill-rule="evenodd">
        <g id="visuals" transform="translate(-126.000000, -59.000000)">
            <g id="Combined-Shape" transform="translate(112.000000, 59.000000)">
                <mask id="mask-2" fill="white">
                    <use xlink:href="#path-1"></use>
                </mask>
                <g id="Mask"></g>
                <path d="M30.3596931,12 L30.2474514,15.1427661 L30.236183,15.3321819 L30.0557128,17.4978244 C29.922264,19.0992108 29.1520279,20.5801432 27.9175447,21.6088792 L18.7196312,29.2738071 C18.263646,29.6537948 18,30.21669 18,30.8102497 L18,58 C18,59.1045695 18.8954305,60 20,60 L44,60 C45.1045695,60 46,59.1045695 46,58 L46,30.8102497 C46,30.21669 45.736354,29.6537948 45.2803688,29.2738071 L36.0824553,21.6088792 C34.8479721,20.5801432 34.077736,19.0992108 33.9442872,17.4978244 L33.763817,15.3321819 L33.7525486,15.1427661 L33.6403069,12 L30.3596931,12 Z M26.3571429,12 L25,12 C23.8954305,12 23,11.1045695 23,10 L23,2 C23,0.8954305 23.8954305,0 25,0 L39,0 C40.1045695,0 41,0.8954305 41,2 L41,10 C41,11.1045695 40.1045695,12 39,12 L37.6428571,12 L37.75,15 L37.9304702,17.1656425 C37.9749532,17.699438 38.2316985,18.1930821 38.6431929,18.5359941 L47.8411064,26.200922 C49.2090619,27.340885 50,29.0295706 50,30.8102497 L50,58 C50,61.3137085 47.3137085,64 44,64 L20,64 C16.6862915,64 14,61.3137085 14,58 L14,30.8102497 C14,29.0295706 14.7909381,27.340885 16.1588936,26.200922 L25.3568071,18.5359941 C25.7683015,18.1930821 26.0250468,17.699438 26.0695298,17.1656425 L26.25,15 L26.3571429,12 Z" fill="#FC0D1B" fill-rule="nonzero" mask="url(#mask-2)"></path>
            </g>
        </g>
    </g>
</svg>