<?xml version="1.0" encoding="UTF-8"?>
<svg width="28px" height="48px" viewBox="0 0 28 48" version="1.1" xmlns="http://www.w3.org/2000/svg" xmlns:xlink="http://www.w3.org/1999/xlink">
    <!-- Generator: Sketch 50.2 (55047) - http://www.bohemiancoding.com/sketch -->
    <title>fleshie</title>
    <desc>Created with Sketch.</desc>
    <defs>
        <rect id="path-1" x="0" y="0" width="48" height="48"></rect>
    </defs>
    <g id="Page-1" stroke="none" stroke-width="1" fill="none" fill-rule="evenodd">
        <g id="visuals" transform="translate(-145.000000, -157.000000)">
            <g id="fleshie" transform="translate(135.000000, 157.000000)">
                <mask id="mask-2" fill="white">
                    <use xlink:href="#path-1"></use>
                </mask>
                <g id="Mask"></g>
                <path d="M13.0794468,20.8030234 C12.395469,21.3730049 12,22.2173477 12,23.1076873 L12,43.5 C12,45.1568542 13.3431458,46.5 15,46.5 L33,46.5 C34.6568542,46.5 36,45.1568542 36,43.5 L36,23.1076873 C36,22.2173477 35.604531,21.3730049 34.9205532,20.8030234 L28.0221181,15.0543275 C27.4048765,14.5399595 27.0197584,13.7994933 26.953034,12.9988001 L26.8134557,11.3035373 L26.6776151,7.5 L21.3223849,7.5 L21.1823186,11.3745682 L21.046966,12.9988001 C20.9802416,13.7994933 20.5951235,14.5399595 19.9778819,15.0543275 L13.0794468,20.8030234 Z M19.7678571,9 L18.75,9 C17.9215729,9 17.25,8.32842712 17.25,7.5 L17.25,1.5 C17.25,0.671572875 17.9215729,1.52179594e-16 18.75,0 L29.25,0 C30.0784271,-1.52179594e-16 30.75,0.671572875 30.75,1.5 L30.75,7.5 C30.75,8.32842712 30.0784271,9 29.25,9 L28.2321429,9 L28.3125,11.25 L28.4478527,12.8742319 C28.4812149,13.2745785 28.6737739,13.6448116 28.9823947,13.9019956 L35.8808298,19.6506915 C36.9067965,20.5056637 37.5,21.772178 37.5,23.1076873 L37.5,43.5 C37.5,45.9852814 35.4852814,48 33,48 L15,48 C12.5147186,48 10.5,45.9852814 10.5,43.5 L10.5,23.1076873 C10.5,21.772178 11.0932035,20.5056637 12.1191702,19.6506915 L19.0176053,13.9019956 C19.3262261,13.6448116 19.5187851,13.2745785 19.5521473,12.8742319 L19.6875,11.25 L19.7678571,9 Z" id="Combined-Shape" fill="#1072B8" fill-rule="nonzero" mask="url(#mask-2)"></path>
            </g>
        </g>
    </g>
</svg>