<?xml version="1.0" encoding="UTF-8"?>
<svg width="48px" height="25px" viewBox="0 0 48 25" version="1.1" xmlns="http://www.w3.org/2000/svg" xmlns:xlink="http://www.w3.org/1999/xlink">
    <!-- Generator: Sketch 50.2 (55047) - http://www.bohemiancoding.com/sketch -->
    <title>lompklomp</title>
    <desc>Created with Sketch.</desc>
    <defs>
        <rect id="path-1" x="0" y="0" width="48" height="48"></rect>
    </defs>
    <g id="Page-1" stroke="none" stroke-width="1" fill="none" fill-rule="evenodd">
        <g id="visuals" transform="translate(-258.000000, -169.000000)">
            <g id="lompklomp" transform="translate(258.000000, 157.000000)">
                <mask id="mask-2" fill="white">
                    <use xlink:href="#path-1"></use>
                </mask>
                <g id="Mask"></g>
                <path d="M29.7839358,17.1745099 C29.4794138,17.1022409 28.4995956,16.86309 28.3453908,16.8261718 C26.441199,16.3702892 24.319502,15.4567153 21.9668278,14.0920842 C21.2754036,13.6910346 20.3909542,13.9026198 19.955884,14.5731582 C17.7775049,17.9305186 16.1536443,19.753638 14.6732495,20.1890483 C12.5467532,20.8144883 8.60632325,20.873944 2.69309838,20.4182033 C2.2825677,20.3865631 1.92329111,20.6918096 1.88819535,21.1020554 C1.72202093,23.0446494 1.94645435,25.1239842 2.56928523,27.3449813 C3.17465379,29.5037082 3.76249208,31.3200216 4.33048673,32.7904848 C4.55383971,33.3687162 5.10986119,33.7500024 5.72973016,33.7500024 L13.5950408,33.75 C13.9572969,31.0425289 15.465184,29.4206915 17.8972535,29.4206915 C20.1287824,29.4206915 23.7418468,30.8771139 28.9851099,33.7851742 C29.0794395,33.8374921 29.1791456,33.8794869 29.2824628,33.9104188 C33.9497263,35.3076139 37.7118832,35.2780692 40.610869,33.8959995 C42.7249351,32.8881343 44.9188254,30.0750008 45.8580877,26.8564206 C46.8809275,23.3514444 46.3876308,19.7957854 44.1366168,16.6374723 C38.9169964,18.4438625 34.8586867,18.3788463 29.7839358,17.1745099 Z M2.8083637,18.9226385 C8.54227631,19.3645594 12.3561551,19.3070132 14.25,18.75 C15.2450302,18.4573441 16.7275469,16.7929123 18.6975502,13.7567048 C19.5676908,12.4156277 21.3365896,11.9924574 22.7194379,12.7945565 C24.9551715,14.0913581 26.9469044,14.9489712 28.6946364,15.3673958 C32.2454983,16.2175079 37.1900062,17.705362 44.6535533,14.8527808 C51.4708883,23.0580324 46.020538,32.9787227 41.2563786,35.25 C37.9830089,36.8105544 33.8483107,36.8430247 28.8522839,35.3474109 C28.6456195,35.2855381 28.4462296,35.2015592 28.2575755,35.0969264 C23.237712,32.3127698 19.7842714,30.9206915 17.8972535,30.9206915 C16.290395,30.9206915 15.3519078,31.9300998 15.0817918,33.9489164 C14.9821331,34.6938271 14.3465884,35.25 13.5950408,35.25 L5.72973062,35.2500024 C4.48999276,35.2500024 3.37795071,34.4874306 2.93124511,33.3309688 C2.34444286,31.8118151 1.74236115,29.9514922 1.125,27.75 C0.455307837,25.3618969 0.211525689,23.1032997 0.393653557,20.9742085 C0.498942223,19.743455 1.57676724,18.8277176 2.8083637,18.9226385 Z" id="Rectangle-8" fill="#FD8E26" fill-rule="nonzero" mask="url(#mask-2)"></path>
            </g>
        </g>
    </g>
</svg>