<?xml version="1.0" encoding="UTF-8"?>
<svg width="48px" height="48px" viewBox="0 0 48 48" version="1.1" xmlns="http://www.w3.org/2000/svg" xmlns:xlink="http://www.w3.org/1999/xlink">
    <!-- Generator: Sketch 50.2 (55047) - http://www.bohemiancoding.com/sketch -->
    <title>parakrakraplu</title>
    <desc>Created with Sketch.</desc>
    <defs>
        <rect id="path-1" x="0" y="0" width="48" height="48"></rect>
    </defs>
    <g id="Page-1" stroke="none" stroke-width="1" fill="none" fill-rule="evenodd">
        <g id="visuals" transform="translate(-196.000000, -157.000000)">
            <g id="parakrakraplu" transform="translate(196.000000, 157.000000)">
                <mask id="mask-2" fill="white">
                    <use xlink:href="#path-1"></use>
                </mask>
                <g id="Mask"></g>
                <path d="M24,4.5 C9.73160813,4.5 2.44680038,10.5710279 1.58591016,23.0299939 L4.99376941,21.3260643 C5.62720626,21.0093459 6.37279374,21.0093459 7.00623059,21.3260643 L11.3291796,23.4875388 C11.7514708,23.6986844 12.2485292,23.6986844 12.6708204,23.4875388 L16.9937694,21.3260643 C17.6272063,21.0093459 18.3727937,21.0093459 19.0062306,21.3260643 L23.3291796,23.4875388 C23.7514708,23.6986844 24.2485292,23.6986844 24.6708204,23.4875388 L28.9937694,21.3260643 C29.6272063,21.0093459 30.3727937,21.0093459 31.0062306,21.3260643 L35.3291796,23.4875388 C35.7514708,23.6986844 36.2485292,23.6986844 36.6708204,23.4875388 L40.9937694,21.3260643 C41.6272063,21.0093459 42.3727937,21.0093459 43.0062306,21.3260643 L46.4140885,23.0299943 C45.5532004,10.5710286 38.2683926,4.5 24,4.5 Z M25.4613207,24.7693397 C25.5021362,24.9057492 25.5240622,25.0503164 25.5240622,25.2000046 L25.5240622,41.9481349 C25.5240622,43.5146432 26.7939682,44.7845492 28.3604766,44.7845492 C29.9269849,44.7845492 31.1968909,43.5146432 31.1968909,41.9481349 L31.1968909,37.6737132 C31.1968909,36.8452861 31.8684637,36.1737132 32.6968909,36.1737132 C33.525318,36.1737132 34.1968909,36.8452861 34.1968909,37.6737132 L34.1968909,41.9481349 C34.1968909,45.1714975 31.5838392,47.7845492 28.3604766,47.7845492 C25.1371139,47.7845492 22.5240622,45.1714975 22.5240622,41.9481349 L22.5240622,25.2000046 C22.5240622,25.0579759 22.5438018,24.9205576 22.580687,24.7903435 L18.3354102,22.6677051 C18.1242646,22.5621323 17.8757354,22.5621323 17.6645898,22.6677051 L13.3416408,24.8291796 C12.4970583,25.2514708 11.5029417,25.2514708 10.6583592,24.8291796 L6.3354102,22.6677051 C6.12426458,22.5621323 5.87573542,22.5621323 5.6645898,22.6677051 L2.2567177,24.3716304 C1.51575469,24.7421119 0.614750884,24.4417773 0.244269377,23.7008143 C0.124460168,23.4611959 0.0710118639,23.1938628 0.0894792743,22.9265985 C1.00740389,9.64219951 8.97757746,3 24,3 C39.0224234,3 46.992597,9.64220023 47.9105209,22.9266007 C47.9676204,23.753054 47.3439416,24.4693201 46.5174888,24.5264262 C46.250224,24.5448936 45.9828904,24.4914452 45.7432716,24.3716358 L42.3354102,22.6677051 C42.1242646,22.5621323 41.8757354,22.5621323 41.6645898,22.6677051 L37.3416408,24.8291796 C36.4970583,25.2514708 35.5029417,25.2514708 34.6583592,24.8291796 L30.3354102,22.6677051 C30.1242646,22.5621323 29.8757354,22.5621323 29.6645898,22.6677051 L25.4613207,24.7693397 Z M25.5,3 L22.5,3 L22.5,1.5 C22.5,0.671572875 23.1715729,1.52179594e-16 24,0 C24.8284271,-1.52179594e-16 25.5,0.671572875 25.5,1.5 L25.5,3 Z" id="Combined-Shape" fill="#555367" fill-rule="nonzero" mask="url(#mask-2)"></path>
            </g>
        </g>
    </g>
</svg>