<?xml version="1.0" encoding="UTF-8"?>
<svg width="64px" height="64px" viewBox="0 0 64 64" version="1.1" xmlns="http://www.w3.org/2000/svg" xmlns:xlink="http://www.w3.org/1999/xlink">
    <!-- Generator: Sketch 50.2 (55047) - http://www.bohemiancoding.com/sketch -->
    <title>Combined Shape@</title>
    <desc>Created with Sketch.</desc>
    <defs>
        <rect id="path-1" x="0" y="0" width="64" height="64"></rect>
    </defs>
    <g id="Page-1" stroke="none" stroke-width="1" fill="none" fill-rule="evenodd">
        <g id="visuals" transform="translate(-200.000000, -59.000000)">
            <g id="Combined-Shape" transform="translate(200.000000, 59.000000)">
                <mask id="mask-2" fill="white">
                    <use xlink:href="#path-1"></use>
                </mask>
                <g id="Mask"></g>
                <path d="M5.76393202,26.645898 C7.17156948,25.9420793 8.82843052,25.9420793 10.236068,26.645898 L16,29.527864 L21.763932,26.645898 C23.1715695,25.9420793 24.8284305,25.9420793 26.236068,26.645898 L32,29.527864 L37.763932,26.645898 C39.1715695,25.9420793 40.8284305,25.9420793 42.236068,26.645898 L48,29.527864 L53.763932,26.645898 C55.1715695,25.9420793 56.8284305,25.9420793 58.236068,26.645898 L59.4823156,27.2690219 C57.3473237,14.2038062 48.5736563,8 32,8 C15.4263454,8 6.65267825,14.2038049 4.51768506,27.2690176 L5.76393202,26.645898 Z M34.032083,32.9839585 L34.032083,55.9308465 C34.032083,58.0195243 35.7252909,59.7127322 37.8139687,59.7127322 C39.9026466,59.7127322 41.5958545,58.0195243 41.5958545,55.9308465 L41.5958545,50.2316176 C41.5958545,49.1270481 42.491285,48.2316176 43.5958545,48.2316176 C44.700424,48.2316176 45.5958545,49.1270481 45.5958545,50.2316176 L45.5958545,55.9308465 C45.5958545,60.2286633 42.1117856,63.7127322 37.8139687,63.7127322 C33.5161519,63.7127322 30.032083,60.2286633 30.032083,55.9308465 L30.032083,33.0160415 L24.4472136,30.2236068 C24.1656861,30.0828431 23.8343139,30.0828431 23.5527864,30.2236068 L17.7888544,33.1055728 C16.6627444,33.6686278 15.3372556,33.6686278 14.2111456,33.1055728 L8.4472136,30.2236068 C8.1656861,30.0828431 7.8343139,30.0828431 7.5527864,30.2236068 L3.00895694,32.4955072 C2.02100625,32.9894826 0.819667846,32.5890365 0.325692503,31.6010858 C0.165946891,31.2815945 0.0946824852,30.9251504 0.119305699,30.568798 C1.34320518,12.856266 11.9701033,4 32,4 C52.0298978,4 62.656796,12.856267 63.8806945,30.5688009 C63.9568272,31.6707387 63.1252555,32.6257601 62.0233184,32.7019016 C61.6669654,32.7265248 61.3105206,32.6552603 60.9910288,32.4955144 L56.4472136,30.2236068 C56.1656861,30.0828431 55.8343139,30.0828431 55.5527864,30.2236068 L49.7888544,33.1055728 C48.6627444,33.6686278 47.3372556,33.6686278 46.2111456,33.1055728 L40.4472136,30.2236068 C40.1656861,30.0828431 39.8343139,30.0828431 39.5527864,30.2236068 L34.032083,32.9839585 Z M32,0 C33.1045695,-2.02906125e-16 34,0.8954305 34,2 L34,4 L30,4 L30,2 C30,0.8954305 30.8954305,2.02906125e-16 32,0 Z" fill="#FD8E26" fill-rule="nonzero" mask="url(#mask-2)"></path>
            </g>
        </g>
    </g>
</svg>