<svg xmlns="http://www.w3.org/2000/svg" xmlns:xlink="http://www.w3.org/1999/xlink" width="59" height="60" viewBox="0 0 59 60">
  <defs>
    <rect id="peper-blauw-a" width="64" height="64"/>
  </defs>
  <g fill="none" fill-rule="evenodd" transform="translate(-2 -3)">
    <mask id="peper-blauw-b" fill="#fff">
      <use xlink:href="#peper-blauw-a"/>
    </mask>
    <path fill="#1072B8" fill-rule="nonzero" d="M32.3958004,70.2457383 C32.3943551,70.2484598 32.3930039,70.2510677 32.391743,70.2535625 C32.3951549,70.2468115 32.3990847,70.2385284 32.403485,70.2287491 L32.3958004,70.2457383 Z M33.1452966,66.5552388 C33.4994822,63.6805396 33.6948562,60.3155578 33.950371,53.7855907 C33.9631043,53.4601764 33.9747219,53.1614322 33.9989718,52.5369502 C34.3445285,43.6438836 34.5730624,40.0803354 35.1633841,37.0183176 C36.1159175,32.0774958 38.5596057,25.0391555 42.5022139,15.7838139 C42.6077853,15.5359832 42.6622036,15.2693796 42.6622036,15 C42.6622036,13.8954269 41.7667702,12.9999935 40.6621987,12.9999935 L23.730438,13 C22.7759895,13 21.9545443,13.6744149 21.7687117,14.6105981 C20.8859941,19.0575108 21.1715467,26.6526309 22.7039167,37.2004517 C24.2059612,47.5395322 26.9065041,56.1481565 30.2293264,62.3460765 C31.1970558,64.1511413 32.1790549,65.6688861 33.1088771,66.8431644 C33.1211369,66.7487585 33.1332792,66.6527767 33.1452966,66.5552388 Z M33.2451609,1 L35.8736357,1 C39.1873441,1 41.8736357,3.6862915 41.8736357,7 L41.8736357,9.12234868 C44.6066267,9.68268482 46.6622036,12.1012896 46.6622036,15 C46.6622036,15.8081371 46.4989491,16.607946 46.1822355,17.3514366 C42.3416571,26.3672616 39.9779316,33.175292 39.0910593,37.775528 C37.3770877,46.6659547 38.617925,73 34.8736357,73 C31.1642476,73 22.1733846,61.371012 18.7454716,37.775528 C17.1528449,26.8129394 16.8527751,18.8316929 17.8452623,13.8317885 C18.2771921,11.6558217 19.8537314,9.95124027 21.8736357,9.29377161 L21.8736357,7 C21.8736357,3.6862915 24.5599272,1 27.8736357,1 L28.9021104,1 C27.9753244,-0.195801019 27.0140564,-1.92782957 26.0183065,-4.19608564 C25.5743277,-5.20748765 26.0342953,-6.38731462 27.0456899,-6.83131037 C27.2991067,-6.94255876 27.5728549,-7 27.8496153,-7 L29.5285836,-6.99999291 C30.3491456,-6.99999291 31.0864536,-6.49877775 31.3883227,-5.73575936 C32.5899322,-2.69851618 33.2088782,-0.453263055 33.2451609,1 Z" mask="url(#peper-blauw-b)" transform="rotate(-40 31.968 33)"/>
  </g>
</svg>
