<?xml version="1.0" encoding="UTF-8"?>
<svg width="59px" height="60px" viewBox="0 0 59 60" version="1.1" xmlns="http://www.w3.org/2000/svg" xmlns:xlink="http://www.w3.org/1999/xlink">
  <defs>
    <rect id="path-1" x="0" y="0" width="64" height="64"></rect>
  </defs>
  <g id="Page-1" stroke="none" stroke-width="1" fill="none" fill-rule="evenodd">
    <g id="visuals" transform="translate(-26.000000, -62.000000)">
      <g id="Combined-Shape" transform="translate(24.000000, 59.000000)">
        <mask id="mask-2" fill="white">
          <use xlink:href="#path-1"></use>
        </mask>
        <g id="Mask"></g>
        <path
          d="M24.2078878,8.34140797 C26.6616575,7.01391759 29.79097,7.54537691 31.6542251,9.76591794 C32.1736857,10.3849869 32.5627327,11.1026141 32.7980225,11.8757404 C35.6512293,21.2509393 38.2166282,27.9855666 40.4942193,32.0796224 C44.895897,39.9918041 62.7736316,59.3672583 59.9053395,61.7740411 C57.0637834,64.1583897 42.7014134,61.0292835 24.9085949,45.157514 C16.6419559,37.7834047 11.2818428,31.8622963 8.82825547,27.3941889 C7.76044838,25.4496624 7.87246375,23.1304974 8.99718747,21.3284778 L7.52277949,19.5713468 C5.39276873,17.0328988 5.72387251,13.2483652 8.26232049,11.1183544 L14.390676,5.97605356 C16.929124,3.8460428 20.7136576,4.17714658 22.8436684,6.71559456 L24.2078878,8.34140797 Z M56.2368022,61.256876 L56.2317686,61.238922 C56.2346837,61.2492418 56.2369976,61.258113 56.2387234,61.2654777 C56.2380857,61.2627561 56.2374445,61.2598898 56.2368022,61.256876 Z M54.4387424,57.9480225 C52.8622432,55.5182091 50.8489398,52.8148995 46.8472935,47.6484127 C46.6478755,47.390946 46.464746,47.1546271 46.0819133,46.6606586 C40.630272,39.6260548 38.5147346,36.7493197 36.9987201,34.0242265 C34.5525039,29.6270608 31.9003198,22.6646068 28.971314,13.040344 C28.8928839,12.7826347 28.7632012,12.5434251 28.5900474,12.3370684 C27.8800415,11.4909163 26.6185262,11.380548 25.7723753,12.0905529 L12.8018983,22.9740839 C12.0707483,23.5875915 11.8749903,24.6322381 12.3344013,25.4688469 C14.5166207,29.4427797 19.6174158,35.0774295 27.5712878,42.1725406 C35.3677536,49.1272402 42.9700064,53.9859534 49.4993822,56.5979667 C51.4009792,57.358682 53.1288217,57.8901252 54.5959184,58.1919964 C54.5446269,58.1117968 54.4922326,58.0304655 54.4387424,57.9480225 Z M3.01922891,5.07457233 L4.23624852,4.05337904 C4.83104065,3.55428918 5.62322518,3.41299937 6.23440491,3.6969985 C10.8993156,5.86465974 12.5139736,7.55079388 11.0783788,8.75540091 C9.77542301,9.84871068 7.12717826,9.5658325 3.1336446,7.90676636 C2.29172904,7.55698416 2.01843838,6.55417848 2.52324128,5.66692232 C2.64972562,5.44460979 2.81861654,5.24290611 3.01922891,5.07457233 Z"
          fill="#1072B8"
          fill-rule="nonzero"
          mask="url(#mask-2)"></path>
      </g>
    </g>
  </g>
</svg>
