<?xml version="1.0" encoding="UTF-8"?>
<svg width="45px" height="45px" viewBox="0 0 45 45" version="1.1" xmlns="http://www.w3.org/2000/svg" xmlns:xlink="http://www.w3.org/1999/xlink">
    <!-- Generator: Sketch 50.2 (55047) - http://www.bohemiancoding.com/sketch -->
    <title>peperrrr</title>
    <desc>Created with Sketch.</desc>
    <defs>
        <rect id="path-1" x="0" y="0" width="48" height="48"></rect>
    </defs>
    <g id="Page-1" stroke="none" stroke-width="1" fill="none" fill-rule="evenodd">
        <g id="visuals" transform="translate(-74.000000, -159.000000)">
            <g id="peperrrr" transform="translate(73.000000, 157.000000)">
                <mask id="mask-2" fill="white">
                    <use xlink:href="#path-1"></use>
                </mask>
                <g id="Mask"></g>
                <path d="M42.0874032,42.7098778 C40.873879,40.8395074 39.3496168,38.7928449 36.3213573,34.8830884 C36.1716642,34.689821 36.0341927,34.5124214 35.7470719,34.1419499 C31.7203332,28.9459896 30.1427132,26.8007216 29.0598523,24.8542382 C27.2884246,21.6700301 25.3318309,16.5336247 23.1635012,9.40882653 C23.0458562,9.02226316 22.8513326,8.66344937 22.5916022,8.35391473 C21.5265951,7.08468868 19.6343252,6.91913652 18.3650996,7.98414326 L8.63724184,16.1467915 C7.54051849,17.0670516 7.24688122,18.6340227 7.93599627,19.8889333 C9.6744238,23.0546984 13.5972644,27.3881077 19.679956,32.8140653 C25.6525142,38.1417804 31.5012747,41.8798105 36.5674023,43.9064655 C39.8382708,45.2149446 42.490845,45.62684 43.5608219,45.410476 C43.2938317,44.7016353 42.8082888,43.8209583 42.0874032,42.7098778 Z M6.78763341,7.90824255 C5.67867939,7.66800994 4.29140402,7.13632017 2.62580732,6.31317323 C1.88313919,5.94612712 1.57862231,5.04653109 1.94565597,4.30385681 C2.0376206,4.11777098 2.16720615,3.95279763 2.32621422,3.81937402 L3.29084087,3.00996309 C3.76228111,2.61437776 4.42752028,2.54689325 4.96879826,2.83974443 C7.12338964,4.00545715 8.56141044,4.99704177 9.28286065,5.8144983 L10.793007,4.54733503 C12.696843,2.94982695 15.5352432,3.19815479 17.1327513,5.10199078 L18.1559158,6.32135084 C19.9962431,5.32573305 22.3432275,5.72432754 23.7406688,7.38973331 C24.1302642,7.85403503 24.4220495,8.39225542 24.5985169,8.97210016 C26.738422,16.0034993 28.6624712,21.0544698 30.3706645,24.1250116 C33.6719228,30.0591479 47.0802237,44.5907386 44.9290046,46.3958257 C42.7978376,48.1840872 32.02606,45.8372575 18.6814462,33.9334304 C12.4814669,28.4028484 8.46138206,23.9620171 6.6211916,20.6109365 C5.82033629,19.1525417 5.90434781,17.4131679 6.7478906,16.0616532 L5.64208462,14.7438049 C4.04457655,12.8399689 4.29290438,10.0015688 6.19674037,8.40406069 L6.78763341,7.90824255 Z" id="Combined-Shape" fill="#FC0D1B" fill-rule="nonzero" mask="url(#mask-2)"></path>
            </g>
        </g>
    </g>
</svg>