<?xml version="1.0" encoding="utf-8"?><svg xmlns="http://www.w3.org/2000/svg" xmlns:xlink="http://www.w3.org/1999/xlink"><symbol viewBox="0 0 16 8" id="arrow-active" xmlns="http://www.w3.org/2000/svg"><defs><path id="aa" d="M0 0h16v16H0z"/></defs><g fill="none" fill-rule="evenodd" transform="translate(0 -4)"><mask id="ab" fill="#fff"><use xlink:href="#aa"/></mask><g mask="url(#ab)"><g transform="rotate(90 5.25 10.25)"><rect width="2" height="15" x="2" fill="#1072B8" rx="1"/><path stroke="#1072B8" stroke-linecap="round" stroke-width="2" d="M0 4.803l2.161-3.327a1 1 0 0 1 1.678 0L6 4.803"/></g></g></g></symbol><symbol viewBox="0 0 16 8" id="arrow-default" xmlns="http://www.w3.org/2000/svg"><defs><path id="ba" d="M0 0h16v16H0z"/></defs><g fill="none" fill-rule="evenodd" transform="translate(0 -4)"><mask id="bb" fill="#fff"><use xlink:href="#ba"/></mask><g mask="url(#bb)"><g transform="rotate(90 5.25 10.25)"><rect width="2" height="15" x="2" fill="#EBEBEB" rx="1"/><path stroke="#EBEBEB" stroke-linecap="round" stroke-width="2" d="M0 4.803l2.161-3.327a1 1 0 0 1 1.678 0L6 4.803"/></g></g></g></symbol><symbol viewBox="0 0 14 16" id="check" xmlns="http://www.w3.org/2000/svg"><defs><path id="ca" d="M0 0h16v16H0z"/></defs><g fill="none" fill-rule="evenodd" transform="translate(-1)"><mask id="cb" fill="#fff"><use xlink:href="#ca"/></mask><path stroke="#2DC57D" stroke-linecap="round" stroke-width="2" d="M2 7.47l3.385 6.593a.576.576 0 0 0 1.01.026L14 1" mask="url(#cb)"/></g></symbol><symbol viewBox="0 0 9 16" id="chevron-active" xmlns="http://www.w3.org/2000/svg"><path fill="#1072B8" d="M5.875 7.725L.107 1.716a.393.393 0 0 1 .007-.545L1.146.116A.374.374 0 0 1 1.68.109l7.044 7.337a.36.36 0 0 1 .103.28.382.382 0 0 1-.103.279L1.68 15.342a.374.374 0 0 1-.534-.007L.114 14.279a.393.393 0 0 1-.007-.545l5.768-6.009z"/></symbol><symbol viewBox="0 0 9 16" id="chevron-default" xmlns="http://www.w3.org/2000/svg"><path fill="#EBEBEB" d="M5.875 7.725L.107 1.716a.393.393 0 0 1 .007-.545L1.146.116A.374.374 0 0 1 1.68.109l7.044 7.337a.36.36 0 0 1 .103.28.382.382 0 0 1-.103.279L1.68 15.342a.374.374 0 0 1-.534-.007L.114 14.279a.393.393 0 0 1-.007-.545l5.768-6.009z"/></symbol><symbol viewBox="0 0 12 12" id="delete" xmlns="http://www.w3.org/2000/svg"><defs><path id="fa" d="M0 0h16v16H0z"/></defs><g fill="none" fill-rule="evenodd" transform="translate(-2 -2)"><mask id="fb" fill="#fff"><use xlink:href="#fa"/></mask><path fill="#1072B8" d="M9 7h6a1 1 0 0 1 0 2H9v6a1 1 0 0 1-2 0V9H1a1 1 0 1 1 0-2h6V1a1 1 0 1 1 2 0v6z" mask="url(#fb)" transform="rotate(45 8 8)"/></g></symbol><symbol viewBox="0 0 12 12" id="error" xmlns="http://www.w3.org/2000/svg"><defs><path id="ga" d="M0 0h16v16H0z"/></defs><g fill="none" fill-rule="evenodd" transform="translate(-2 -2)"><mask id="gb" fill="#fff"><use xlink:href="#ga"/></mask><path fill="#FC0D1B" d="M9 7h6a1 1 0 0 1 0 2H9v6a1 1 0 0 1-2 0V9H1a1 1 0 1 1 0-2h6V1a1 1 0 1 1 2 0v6z" mask="url(#gb)" transform="rotate(45 8 8)"/></g></symbol><symbol viewBox="0 0 16 16" id="loading" xmlns="http://www.w3.org/2000/svg"><defs><path id="ha" d="M0 0h16v16H0z"/><linearGradient id="hc" x1="74.969%" x2="0%" y1="0%" y2="50%"><stop offset="0%" stop-color="#1072B8" stop-opacity="0"/><stop offset="100%" stop-color="#1072B8"/></linearGradient></defs><g fill="none" fill-rule="evenodd"><mask id="hb" fill="#fff"><use xlink:href="#ha"/></mask><circle cx="8" cy="8" r="7" stroke="#9FC7E3" stroke-width="2" mask="url(#hb)"/><path stroke="url(#hc)" stroke-linecap="round" stroke-width="2" d="M3.05 3A7.022 7.022 0 0 0 1 7.97C1 11.854 4.134 15 8 15s7-3.147 7-7.03" mask="url(#hb)"/></g></symbol><symbol viewBox="0 0 16 12" id="mail-active" xmlns="http://www.w3.org/2000/svg"><defs><path id="ia" d="M0 0h16v16H0z"/></defs><g fill="none" fill-rule="evenodd" transform="translate(0 -2)"><mask id="ib" fill="#fff"><use xlink:href="#ia"/></mask><path stroke="#1072B8" stroke-width="2" d="M2 3a1 1 0 0 0-1 1v8a1 1 0 0 0 1 1h12a1 1 0 0 0 1-1V4a1 1 0 0 0-1-1H2z" mask="url(#ib)"/><path stroke="#1072B8" stroke-width="2" d="M1 4.204V12a1 1 0 0 0 1 1h12a1 1 0 0 0 1-1V4.204L9.317 9.176a2 2 0 0 1-2.634 0L1 4.204z" mask="url(#ib)"/></g></symbol><symbol viewBox="0 0 16 12" id="mail-default" xmlns="http://www.w3.org/2000/svg"><defs><path id="ja" d="M0 0h16v16H0z"/></defs><g fill="none" fill-rule="evenodd" transform="translate(0 -2)"><mask id="jb" fill="#fff"><use xlink:href="#ja"/></mask><path stroke="#EBEBEB" stroke-width="2" d="M2 3a1 1 0 0 0-1 1v8a1 1 0 0 0 1 1h12a1 1 0 0 0 1-1V4a1 1 0 0 0-1-1H2z" mask="url(#jb)"/><path stroke="#EBEBEB" stroke-width="2" d="M1 4.204V12a1 1 0 0 0 1 1h12a1 1 0 0 0 1-1V4.204L9.317 9.176a2 2 0 0 1-2.634 0L1 4.204z" mask="url(#jb)"/></g></symbol><symbol viewBox="0 0 16 16" id="search-active" xmlns="http://www.w3.org/2000/svg"><defs><path id="ka" d="M0 0h16v16H0z"/></defs><g fill="none" fill-rule="evenodd"><mask id="kb" fill="#fff"><use xlink:href="#ka"/></mask><path stroke="#1072B8" stroke-width="2" d="M9.885 9.885l-.3-.3.491-.689a5 5 0 1 0-1.18 1.18l.69-.49.299.299z" mask="url(#kb)"/></g></symbol><symbol viewBox="0 0 16 16" id="search-default" xmlns="http://www.w3.org/2000/svg"><defs><path id="la" d="M0 0h16v16H0z"/></defs><g fill="none" fill-rule="evenodd"><mask id="lb" fill="#fff"><use xlink:href="#la"/></mask><path stroke="#EBEBEB" stroke-width="2" d="M9.885 9.885l-.3-.3.491-.689a5 5 0 1 0-1.18 1.18l.69-.49.299.299z" mask="url(#lb)"/></g></symbol></svg>