<svg xmlns="http://www.w3.org/2000/svg" xmlns:xlink="http://www.w3.org/1999/xlink" width="64" height="33" viewBox="0 0 64 33">
  <defs>
    <rect id="klomp-grijs-a" width="64" height="64"/>
  </defs>
  <g fill="none" fill-rule="evenodd" transform="translate(0 -16)">
    <mask id="klomp-grijs-b" fill="#fff">
      <use xlink:href="#klomp-grijs-a"/>
    </mask>
    <path fill="#555367" fill-rule="nonzero" d="M5.35142728,35.91995 C6.14259522,38.7412323 6.90738841,41.1043041 7.63963959,43.0000033 L16.5034662,43.0000005 C17.521428,39.4611656 20.1024017,37.2275886 23.8630046,37.2275886 C27.2977245,37.2275886 32.3279754,39.2552775 39.616859,43.2978961 C45.4015225,45.029604 49.92101,44.994112 53.2871459,43.389332 C55.56116,42.3052128 58.1236981,39.0193776 59.2241986,35.2482806 C60.2909053,31.5929852 59.957417,27.933226 58.0054666,24.5620762 C51.3392549,26.6020181 45.8702134,26.4163789 39.2501023,24.8452986 C38.8363288,24.7471022 37.5272975,24.427598 37.3281935,24.3799305 C34.5806583,23.7221429 31.5784434,22.42943 28.2856237,20.519482 C25.1032838,25.4241664 22.7496779,28.0665759 20.1286653,28.837462 C17.1162982,29.7234523 12.0155374,29.8359991 4.45430952,29.2940547 C4.39559088,31.3562308 4.69021056,33.5620701 5.35142728,35.91995 Z M3.74448493,25.2301847 C11.3897017,25.8194125 16.4748734,25.7426843 19,25 C20.3267069,24.6097921 22.3033959,22.3905498 24.9300669,18.3422731 C26.0902544,16.5541703 28.4487861,15.9899432 30.2925839,17.0594087 C33.273562,18.7884775 35.9292058,19.9319616 38.2595152,20.4898611 C42.9939977,21.6233438 49.5866749,23.6071494 59.538071,19.8037077 C68.627851,30.7440432 61.3607174,43.9716303 55.0085047,47 C50.6440118,49.0807392 45.1310809,49.1240329 38.4697119,47.1298812 C38.1941593,47.0473841 37.9283062,46.9354123 37.6767673,46.7959018 C30.983616,43.083693 26.3790285,41.2275886 23.8630046,41.2275886 C21.7205267,41.2275886 20.4692104,42.5734664 20.1090557,45.2652219 C19.9761774,46.2584361 19.1287846,47 18.1267211,47 L7.63964083,47.0000033 C5.98665702,47.0000033 4.50393427,45.9832408 3.90832681,44.4412917 C3.12592381,42.4157535 2.32314821,39.935323 1.5,37 C0.607077116,33.8158625 0.282034253,30.8043996 0.52487141,27.9656113 C0.665256297,26.3246066 2.10235632,25.1036235 3.74448493,25.2301847 Z" mask="url(#klomp-grijs-b)"/>
  </g>
</svg>
